<svg id="ambulance" xmlns="http://www.w3.org/2000/svg" width="30" height="26.457" viewBox="0 0 30 26.457">
  <path id="Path_40" data-name="Path 40" d="M256.954,117.274a.934.934,0,0,0-1.867,0v.845h1.867Z" transform="translate(-240.141 -111.295)"/>
  <path id="Path_41" data-name="Path 41" d="M0,416.278a.934.934,0,0,0,.934.934h.716v-1.867H.934A.934.934,0,0,0,0,416.278Z" transform="translate(0 -392.779)"/>
  <path id="Path_42" data-name="Path 42" d="M84.328,187.321c-.017-.012-.032-.025-.048-.038H75.671a.934.934,0,0,1-.934-.934v-4.9a.934.934,0,0,1,.934-.934h3.591c-.464-.425-.933-.822-1.326-1.144a3.6,3.6,0,0,0-2.271-.813H63.848a3.831,3.831,0,0,0-3.831,3.831v7.977h.6a.951.951,0,0,1,.959.888.934.934,0,0,1-.933.979h-.626v.962a.934.934,0,0,0,.934.934h1.725a3.755,3.755,0,0,1,7.485,0h4.016a3.755,3.755,0,0,1,7.485,0h4.266c.373,0,.4-.081.447-.193a5.469,5.469,0,0,0,.126-1.581v-2.993A8.864,8.864,0,0,0,84.328,187.321Zm-17.4-2.492H66.15v.782a.934.934,0,0,1-1.867,0v-.782H63.5a.934.934,0,1,1,0-1.867h.782v-.782a.934.934,0,0,1,1.867,0v.782h.782a.934.934,0,1,1,0,1.867Zm5.435.117a.934.934,0,0,1-1.867,0v-1.819a.934.934,0,1,1,1.867,0Zm11.383,7.38a.9.9,0,1,1,.9-.9A.9.9,0,0,1,83.751,192.327Z" transform="translate(-56.5 -169.866)"/>
  <path id="Path_43" data-name="Path 43" d="M343.105,246.849h6.444c-.637-1-1.445-2.229-2.046-3.035h-4.4Z" transform="translate(-323.001 -231.299)"/>
  <path id="Path_44" data-name="Path 44" d="M138.91,417.292a1.889,1.889,0,1,0,1.889,1.889A1.891,1.891,0,0,0,138.91,417.292Z" transform="translate(-128.992 -394.613)"/>
  <circle id="Ellipse_1" data-name="Ellipse 1" cx="1.889" cy="1.889" r="1.889" transform="translate(19.53 22.679)"/>
  <path id="Path_45" data-name="Path 45" d="M177.431,62.833l1.112.813a.934.934,0,1,0,1.1-1.508l-1.112-.813a.934.934,0,0,0-1.1,1.508Z" transform="translate(-166.675 -59.334)"/>
  <path id="Path_46" data-name="Path 46" d="M314.993,63.384a.93.93,0,0,0,.55-.18l1.15-.84a.934.934,0,0,0-1.1-1.508l-1.15.84a.934.934,0,0,0,.552,1.688Z" transform="translate(-295.656 -58.892)"/>
  <path id="Path_47" data-name="Path 47" d="M256.022,33.227a.934.934,0,0,0,.934-.934V31.166a.934.934,0,1,0-1.867,0v1.128A.934.934,0,0,0,256.022,33.227Z" transform="translate(-240.141 -30.232)"/>
</svg>
