<svg xmlns="http://www.w3.org/2000/svg" width="22" height="22.023" viewBox="0 0 22 22.023">
  <g id="drugs" transform="translate(-0.263 0.001)">
    <g id="Group_2" data-name="Group 2" transform="translate(7.56 -0.001)">
      <g id="Group_1" data-name="Group 1" transform="translate(0 0)">
        <path id="Path_12" data-name="Path 12" d="M182.917,1.7a5.816,5.816,0,0,0-8.214,0l-4.788,4.788,5.437,5.437a6.354,6.354,0,0,1,6.635-1l.93-1.016A5.815,5.815,0,0,0,182.917,1.7Z" transform="translate(-169.915 0.001)"/>
      </g>
    </g>
    <g id="Group_4" data-name="Group 4" transform="translate(0.263 7.398)">
      <g id="Group_3" data-name="Group 3" transform="translate(0)">
        <path id="Path_13" data-name="Path 13" d="M12.092,177.452l-5.444-5.444L1.961,176.7a5.838,5.838,0,0,0,8.257,8.257l.95-.955a6.352,6.352,0,0,1,.924-6.549Z" transform="translate(-0.263 -172.008)"/>
      </g>
    </g>
    <g id="Group_6" data-name="Group 6" transform="translate(11.938 11.762)">
      <g id="Group_5" data-name="Group 5">
        <path id="Path_14" data-name="Path 14" d="M271.7,278.575a5.146,5.146,0,0,0,4.517,5.1V273.478A5.145,5.145,0,0,0,271.7,278.575Z" transform="translate(-271.703 -273.478)"/>
      </g>
    </g>
    <g id="Group_8" data-name="Group 8" transform="translate(17.746 11.762)">
      <g id="Group_7" data-name="Group 7">
        <path id="Path_15" data-name="Path 15" d="M406.722,273.478v10.194a5.135,5.135,0,0,0,0-10.194Z" transform="translate(-406.722 -273.478)"/>
      </g>
    </g>
  </g>
</svg>
