<svg id="oxygen-tank" xmlns="http://www.w3.org/2000/svg" width="24" height="24.976" viewBox="0 0 24 24.976">
  <path id="Path_8" data-name="Path 8" d="M11.5,322.648a5.123,5.123,0,1,0,7.245,7.244l.517-.517-7.244-7.245Z" transform="translate(-10.003 -306.415)"/>
  <path id="Path_9" data-name="Path 9" d="M223.726,124.64a5.123,5.123,0,1,0-7.245-7.244l-.517.517,7.245,7.245Z" transform="translate(-205.917 -110.24)"/>
  <path id="Path_10" data-name="Path 10" d="M78.536,178.51l-5.961,5.971,7.244,7.244,5.962-5.971Z" transform="translate(-69.522 -169.801)"/>
  <path id="Path_11" data-name="Path 11" d="M320.5,5.84a2.195,2.195,0,0,0-2.916-2.949l-1.124-1.124.517-.517A.732.732,0,0,0,315.94.215l-2.07,2.07A.732.732,0,0,0,314.9,3.32l.517-.517,1.035,1.035-.995,1a6.622,6.622,0,0,1,3.1,3.108l.969-.969a6.6,6.6,0,0,1-.488,8.768l-2.676,2.676h0a2.193,2.193,0,1,0,1.036,1.034l2.676-2.675A8.061,8.061,0,0,0,320.5,5.84Z" transform="translate(-298.433 -0.001)"/>
</svg>
