<svg xmlns="http://www.w3.org/2000/svg" width="26" height="25.788" viewBox="0 0 26 25.788">
  <path id="syringe" d="M4.081,27.009a.433.433,0,1,1-.613.613L.127,24.28a.433.433,0,0,1,.613-.613l.459.459L3.7,21.621a.433.433,0,0,1,.613,0L6.336,23.64a.433.433,0,0,1,0,.613L3.831,26.759ZM25.87,2.088a.434.434,0,0,0-.613,0L18.351,8.994l-.158-.158a1.45,1.45,0,0,0-2.051,0l-.075.075a.433.433,0,0,0,0,.613c.574.571,1.795,1.793,2.366,2.366a.433.433,0,0,0,.613,0l.075-.075a1.449,1.449,0,0,0,0-2.05l-.158-.158L25.87,2.7a.433.433,0,0,0,0-.613ZM18.025,12.706,15.232,9.913a1.3,1.3,0,0,0-1.838,0L4.227,19.08,3.7,18.551a.433.433,0,1,0-.613.613l5.708,5.708a.433.433,0,1,0,.613-.613l-.529-.529,2.383-2.383a.433.433,0,0,0,0-.613l-.988-.988a.433.433,0,0,1,.613-.613l.988.988a.433.433,0,0,0,.613,0l2.354-2.354a.433.433,0,0,0,0-.613l-1.529-1.529a.433.433,0,0,1,.01-.622.445.445,0,0,1,.616.022l1.516,1.516a.433.433,0,0,0,.613,0l1.978-1.978a1.3,1.3,0,0,0-.019-1.857Zm7.5-2.719-1.3-1.6a.433.433,0,0,0-.674,0l-1.3,1.6a2.1,2.1,0,1,0,3.266,0Z" transform="translate(26 27.749) rotate(180)"/>
</svg>
