<svg xmlns="http://www.w3.org/2000/svg" width="30" height="30" viewBox="0 0 30 30">
  <g id="Group_17506" data-name="Group 17506" transform="translate(-28 -812)">
    <path id="Rectangle_1785" data-name="Rectangle 1785" d="M15,0A15,15,0,1,1,0,15,15,15,0,0,1,15,0Z" transform="translate(28 812)" fill="#a9e3e4"/>
    <g id="man_in_suit_and_tie" data-name="man in suit and tie" transform="translate(1)">
      <g id="Group_17484" data-name="Group 17484">
        <path id="Path_3246" data-name="Path 3246" d="M.111,5.775a1.221,1.221,0,0,0,.275.6C.657,8.26,2.349,9.867,3.708,9.8c1.729-.085,2.954-1.948,3.229-3.425a1.506,1.506,0,0,0,.289-.663,1.545,1.545,0,0,0-.051-1.119c-.012-.014-.09-.086-.1-.1a2.894,2.894,0,0,0-.442-3.078A4.95,4.95,0,0,0,4.533.257,3.247,3.247,0,0,0,.191,2.21,3.4,3.4,0,0,0,.209,4.495a.4.4,0,0,0-.1.1C-.1,4.862.037,5.436.111,5.775Z" transform="translate(38.839 817.974)" fill="#3f5078"/>
        <path id="Path_3247" data-name="Path 3247" d="M15,6.824A9.584,9.584,0,0,0,13.73,1.788a2.512,2.512,0,0,0-1.09-.733A11.086,11.086,0,0,1,10.209,0l-.35.24L9.9,2.516,7.8,8.126a.314.314,0,0,1-.588,0l-2.1-5.61S5.149.248,5.148.24A3.844,3.844,0,0,1,4.8,0,11.057,11.057,0,0,1,2.363,1.059a2.512,2.512,0,0,0-1.09.733A9.592,9.592,0,0,0,.006,6.828c-.041.9.147,1.231.383,1.327,2.932,1.177,11.289,1.177,14.222,0C14.849,8.059,15.036,7.721,15,6.824Z" transform="translate(34.999 827.292)" fill="#3f5078"/>
        <path id="Path_3248" data-name="Path 3248" d="M1.011.164h-.1A2.81,2.81,0,0,1,0,0L.833,1.275.086,2,.855,6.668a.082.082,0,0,0,.082.069.083.083,0,0,0,.082-.069L1.788,2,1.04,1.275,1.861.019A3.52,3.52,0,0,1,1.011.164Z" transform="translate(41.564 828.335)" fill="#3f5078"/>
      </g>
    </g>
  </g>
</svg>
