<svg xmlns="http://www.w3.org/2000/svg" width="40" height="40" viewBox="0 0 40 40">
  <g id="Group_17522" data-name="Group 17522" transform="translate(-30 -421)">
    <circle id="Ellipse_29" data-name="Ellipse 29" cx="20" cy="20" r="20" transform="translate(30 421)" fill="#a9e3e4"/>
    <path id="Vector" d="M19.479,0H2.521A2.523,2.523,0,0,0,0,2.521V13.979A2.523,2.523,0,0,0,2.521,16.5H19.479A2.523,2.523,0,0,0,22,13.979V2.521A2.523,2.523,0,0,0,19.479,0ZM6.875,3.667A2.292,2.292,0,1,1,4.583,5.958,2.295,2.295,0,0,1,6.875,3.667ZM11,12.146a.688.688,0,0,1-.687.688H3.438a.688.688,0,0,1-.687-.687v-.458A2.523,2.523,0,0,1,5.271,9.167H8.479A2.523,2.523,0,0,1,11,11.688Zm7.563.688H13.521a.688.688,0,0,1,0-1.375h5.042a.687.687,0,0,1,0,1.375Zm0-3.667H13.521a.688.688,0,0,1,0-1.375h5.042a.688.688,0,0,1,0,1.375Zm0-3.667H13.521a.688.688,0,1,1,0-1.375h5.042a.688.688,0,0,1,0,1.375Z" transform="translate(39 433)" fill="#3f5078"/>
  </g>
</svg>
