<svg xmlns="http://www.w3.org/2000/svg" width="40" height="40" viewBox="0 0 40 40">
  <g id="Group_17625" data-name="Group 17625" transform="translate(-648 -6230)">
    <g id="Group_17620" data-name="Group 17620" transform="translate(-221 240)">
      <rect id="Rectangle_1827" data-name="Rectangle 1827" width="40" height="40" rx="20" transform="translate(869 5990)" fill="#a9e3e4"/>
      <g id="ambulance" transform="translate(876 5998)">
        <path id="Path_40" data-name="Path 40" d="M256.705,117.149a.809.809,0,1,0-1.618,0v.732h1.618Z" transform="translate(-242.133 -111.967)" fill="#3f5078"/>
        <path id="Path_41" data-name="Path 41" d="M0,416.152a.809.809,0,0,0,.809.809h.62v-1.618H.809A.808.808,0,0,0,0,416.152Z" transform="translate(0 -395.787)" fill="#3f5078"/>
        <path id="Path_42" data-name="Path 42" d="M81.086,186.153c-.014-.01-.028-.022-.042-.033H73.583a.809.809,0,0,1-.809-.809v-4.249a.809.809,0,0,1,.809-.809H76.7c-.4-.368-.809-.712-1.15-.991a3.119,3.119,0,0,0-1.968-.7H63.337a3.32,3.32,0,0,0-3.32,3.32v6.913h.52a.824.824,0,0,1,.831.77.809.809,0,0,1-.808.848h-.543v.834a.809.809,0,0,0,.809.809h1.495a3.254,3.254,0,0,1,6.487,0h3.48a3.254,3.254,0,0,1,6.487,0h3.7c.323,0,.35-.07.388-.167a4.743,4.743,0,0,0,.109-1.37V187.92A7.688,7.688,0,0,0,81.086,186.153Zm-15.076-2.16h-.678v.678a.809.809,0,0,1-1.618,0v-.678h-.678a.809.809,0,1,1,0-1.618h.678V181.7a.809.809,0,0,1,1.618,0v.678h.678a.809.809,0,1,1,0,1.618Zm4.711.1a.809.809,0,0,1-1.618,0v-1.576a.809.809,0,1,1,1.618,0Zm9.865,6.4a.781.781,0,1,1,.781-.78A.78.78,0,0,1,80.586,190.49Z" transform="translate(-56.969 -171.025)" fill="#3f5078"/>
        <path id="Path_43" data-name="Path 43" d="M343.1,246.444h5.584c-.552-.864-1.252-1.931-1.773-2.63H343.1Z" transform="translate(-325.681 -232.968)" fill="#3f5078"/>
        <path id="Path_44" data-name="Path 44" d="M138.658,417.292a1.637,1.637,0,1,0,1.637,1.637A1.639,1.639,0,0,0,138.658,417.292Z" transform="translate(-130.063 -397.636)" fill="#3f5078"/>
        <circle id="Ellipse_1" data-name="Ellipse 1" cx="1.637" cy="1.637" r="1.637" transform="translate(16.926 19.655)" fill="#3f5078"/>
        <path id="Path_45" data-name="Path 45" d="M177.38,62.608l.964.7a.809.809,0,0,0,.955-1.307l-.964-.7a.809.809,0,0,0-.955,1.307Z" transform="translate(-168.058 -59.576)" fill="#3f5078"/>
        <path id="Path_46" data-name="Path 46" d="M314.868,63.023a.806.806,0,0,0,.477-.156l1-.728a.809.809,0,1,0-.955-1.307l-1,.728a.809.809,0,0,0,.478,1.463Z" transform="translate(-298.11 -59.13)" fill="#3f5078"/>
        <path id="Path_47" data-name="Path 47" d="M255.9,32.827a.809.809,0,0,0,.809-.809v-.977a.809.809,0,1,0-1.618,0v.977A.809.809,0,0,0,255.9,32.827Z" transform="translate(-242.134 -30.232)" fill="#3f5078"/>
      </g>
    </g>
  </g>
</svg>
