<svg xmlns="http://www.w3.org/2000/svg" width="30" height="30" viewBox="0 0 30 30">
  <g id="Iconly_Bold_Arrow_-_Up_Circle" data-name="Iconly/Bold/Arrow - Up Circle" transform="translate(30) rotate(90)">
    <g id="Arrow_-_Up_Circle" data-name="Arrow - Up Circle" transform="translate(0 0)">
      <path id="Arrow_-_Up_Circle-2" data-name="Arrow - Up Circle" d="M15,30A15,15,0,1,1,30,15l-.005.42A15.006,15.006,0,0,1,15,30Zm0-16.47h0l4.409,4.424A1.119,1.119,0,0,0,21,17.97a1.126,1.126,0,0,0,.337-.809A1.094,1.094,0,0,0,21,16.38L15.8,11.146a1.121,1.121,0,0,0-1.59,0L9,16.38a1.054,1.054,0,0,0-.331.78A1.121,1.121,0,0,0,9,17.97a1.137,1.137,0,0,0,.793.324,1.1,1.1,0,0,0,.8-.339L15,13.531Z" fill="#bfbfbf"/>
    </g>
  </g>
</svg>
