<svg id="ambulance" xmlns="http://www.w3.org/2000/svg" width="16" height="14.11" viewBox="0 0 16 14.11">
  <path id="Path_40" data-name="Path 40" d="M256.083,116.838a.5.5,0,0,0-1,0v.451h1Z" transform="translate(-247.116 -113.649)"/>
  <path id="Path_41" data-name="Path 41" d="M0,415.842a.5.5,0,0,0,.5.5H.88v-1H.5A.5.5,0,0,0,0,415.842Z" transform="translate(0 -403.309)"/>
  <path id="Path_42" data-name="Path 42" d="M72.983,183.231l-.026-.021H68.366a.5.5,0,0,1-.5-.5V180.1a.5.5,0,0,1,.5-.5h1.915c-.248-.226-.5-.438-.707-.61a1.918,1.918,0,0,0-1.211-.433h-6.3a2.043,2.043,0,0,0-2.043,2.043v4.254h.32a.507.507,0,0,1,.511.474.5.5,0,0,1-.5.522h-.334v.513a.5.5,0,0,0,.5.5h.92a2,2,0,0,1,3.992,0h2.142a2,2,0,0,1,3.992,0h2.275c.2,0,.216-.043.239-.1a2.918,2.918,0,0,0,.067-.843v-1.6A4.727,4.727,0,0,0,72.983,183.231ZM63.705,181.9h-.417v.417a.5.5,0,0,1-1,0V181.9h-.417a.5.5,0,1,1,0-1h.417v-.417a.5.5,0,0,1,1,0v.417h.417a.5.5,0,1,1,0,1Zm2.9.062a.5.5,0,0,1-1,0v-.97a.5.5,0,1,1,1,0Zm6.071,3.936a.48.48,0,1,1,.48-.48A.48.48,0,0,1,72.675,185.9Z" transform="translate(-58.141 -173.922)"/>
  <path id="Path_43" data-name="Path 43" d="M343.105,245.433h3.437c-.34-.532-.771-1.189-1.091-1.619h-2.346Z" transform="translate(-332.383 -237.14)"/>
  <path id="Path_44" data-name="Path 44" d="M138.028,417.292a1.007,1.007,0,1,0,1.007,1.007A1.009,1.009,0,0,0,138.028,417.292Z" transform="translate(-132.739 -405.196)"/>
  <circle id="Ellipse_1" data-name="Ellipse 1" cx="1.007" cy="1.007" r="1.007" transform="translate(10.416 12.096)"/>
  <path id="Path_45" data-name="Path 45" d="M177.253,62.046l.593.434a.5.5,0,1,0,.588-.8l-.593-.434a.5.5,0,1,0-.588.8Z" transform="translate(-171.516 -60.18)"/>
  <path id="Path_46" data-name="Path 46" d="M314.556,62.12a.5.5,0,0,0,.293-.1l.613-.448a.5.5,0,0,0-.588-.8l-.613.448a.5.5,0,0,0,.294.9Z" transform="translate(-304.244 -59.725)"/>
  <path id="Path_47" data-name="Path 47" d="M255.586,31.829a.5.5,0,0,0,.5-.5v-.6a.5.5,0,1,0-1,0v.6A.5.5,0,0,0,255.586,31.829Z" transform="translate(-247.117 -30.232)"/>
</svg>
