<svg id="XMLID_873_" xmlns="http://www.w3.org/2000/svg" width="20" height="20" viewBox="0 0 20 20">
  <path id="XMLID_951_" d="M3.154,180H0v2.941H6.684Z" transform="translate(0 -172.941)" fill="#3f5078"/>
  <path id="XMLID_1161_" d="M0,287.353H2.941V290.4a1.765,1.765,0,1,0,1.176,0v-.689H15.882v.689a1.765,1.765,0,1,0,1.176,0v-3.042H20V285H0Zm15.882,1.176H4.118v-1.176H15.882Z" transform="translate(0 -273.824)" fill="#3f5078"/>
  <path id="XMLID_1162_" d="M333.529,0H330V2.941A1.768,1.768,0,0,0,331.176,4.6V5.882h1.177V4.6a1.768,1.768,0,0,0,1.176-1.664V1.176h1.176V10h1.176V1.176h1.177V0Z" transform="translate(-317.059)" fill="#3f5078"/>
  <path id="XMLID_1163_" d="M196.176,196.765a.589.589,0,0,1,.588-.588h.588v1.176h1.176v-1.176h1.176v1.176h1.176v-1.176h.588a.589.589,0,0,1,.588.588v.588h1.176v-.588A1.767,1.767,0,0,0,201.471,195h-4.706A1.767,1.767,0,0,0,195,196.765v.588h1.176Z" transform="translate(-187.353 -187.353)" fill="#3f5078"/>
</svg>
