<svg id="surface1" xmlns="http://www.w3.org/2000/svg" width="17.005" height="26" viewBox="0 0 17.005 26">
  <path id="Path_20" data-name="Path 20" d="M126.707,202.729a6.434,6.434,0,0,0,6.434-6.434c0-3.553-6.434-10.111-6.434-10.111Zm0,0" transform="translate(-120.273 -176.729)" fill="#3f5078"/>
  <path id="Path_21" data-name="Path 21" d="M0,196.295a6.434,6.434,0,0,0,6.434,6.434V186.184S0,192.741,0,196.295Zm2.3,0a3.681,3.681,0,0,0,3.677,3.677A3.681,3.681,0,0,1,2.3,196.295Zm0,0" transform="translate(0 -176.729)" fill="#3f5078"/>
  <path id="Path_22" data-name="Path 22" d="M190.059,28.848a3.681,3.681,0,0,0,3.677,3.677V22.852C191.759,25.221,190.059,27.8,190.059,28.848Zm0,0" transform="translate(-180.407 -21.691)" fill="#3f5078"/>
  <path id="Path_23" data-name="Path 23" d="M262.461,22.816v9.675a3.681,3.681,0,0,0,3.677-3.677C266.138,27.842,264.543,25.307,262.461,22.816Zm0,0" transform="translate(-249.133 -21.658)" fill="#3f5078"/>
  <path id="Path_24" data-name="Path 24" d="M101.218,2.653A17.679,17.679,0,0,0,99.555,0V4.859a1.841,1.841,0,0,0,1.723-1.195A1.3,1.3,0,0,0,101.218,2.653Zm0,0" transform="translate(-94.499)" fill="#3f5078"/>
  <path id="Path_25" data-name="Path 25" d="M65.9,4.866V.008a18.092,18.092,0,0,0-1.665,2.631,1.322,1.322,0,0,0-.065,1.011A1.842,1.842,0,0,0,65.9,4.866Zm0,0" transform="translate(-60.843 -0.007)" fill="#3f5078"/>
  <path id="Path_26" data-name="Path 26" d="M40.336,389.429a4.141,4.141,0,0,1-4.136-4.137h.919a3.221,3.221,0,0,0,3.217,3.217Zm0,0" transform="translate(-34.361 -365.727)" fill="#3f5078"/>
</svg>
