<svg xmlns="http://www.w3.org/2000/svg" width="14" height="14" viewBox="0 0 14 14">
  <g id="meal" transform="translate(-32 -32)">
    <path id="Path_27" data-name="Path 27" d="M78.045,226.629A1.673,1.673,0,0,1,77.5,225.5c0-.045,0-.09.005-.134A1.7,1.7,0,0,0,76.5,225a1.258,1.258,0,0,0-.27.029.25.25,0,0,1-.291-.167,1.251,1.251,0,0,0-1.749-.73.25.25,0,0,1-.22,0,1.375,1.375,0,0,0-1.5,2.275.25.25,0,0,1,.076.255,1.252,1.252,0,0,0,.59,1.424.25.25,0,0,1,.125.25,1.251,1.251,0,0,0,1.4,1.4.25.25,0,0,1,.249.125,1.25,1.25,0,0,0,1.775.43A2.324,2.324,0,0,1,76.249,229,2.747,2.747,0,0,1,78.045,226.629ZM76.5,226.25H77v.5h-.5Zm-3.25-.5v-.5h.5v.5Zm1,2.5h-.5v-.5h.5Zm.5-1.25h-.5v-.5h.5Zm1,2.5h-.5V229h.5Zm0-3.75h-.5v-.5h.5Z" transform="translate(-38.749 -186)"/>
    <path id="Path_28" data-name="Path 28" d="M134.113,112.3l-.009-.006,0,0-.009-.006a2.486,2.486,0,0,0-1.316-.285,7.909,7.909,0,0,0-1.3.124c-2.082.372-3.129.986-3.414,1.437a.542.542,0,0,0-.053.488l0,.01v.006l0,.011a2.35,2.35,0,0,0,.6.962,1.753,1.753,0,0,1,1.945.971q.082-.008.165-.008a2.151,2.151,0,0,1,1.116.334,2.748,2.748,0,0,1,2.384-1.834,1.293,1.293,0,0,1,.3.037,2.938,2.938,0,0,0,.145-.527l0-.01v-.006l0-.011A1.54,1.54,0,0,0,134.113,112.3ZM131.22,115a1,1,0,1,1,.923-.615A1,1,0,0,1,131.22,115Z" transform="translate(-92.97 -77.5)"/>
    <path id="Path_29" data-name="Path 29" d="M273.281,368.918l-.134-.245-.134.245a.25.25,0,0,1-.1.1l-.245.134.245.134a.25.25,0,0,1,.1.1l.134.245.134-.245a.25.25,0,0,1,.1-.1l.245-.134-.245-.134A.25.25,0,0,1,273.281,368.918Z" transform="translate(-233.147 -326.152)"/>
    <path id="Path_30" data-name="Path 30" d="M96.054,83.349a2.586,2.586,0,0,0,.3.7,1.877,1.877,0,0,1,.614.016,2.368,2.368,0,0,1-.429-.838l0-.015a1.031,1.031,0,0,1,.113-.887c.449-.71,1.817-1.316,3.751-1.662a8.4,8.4,0,0,1,1.39-.132,2.956,2.956,0,0,1,1.584.363l.014.009a2.022,2.022,0,0,1,.793,2.209l0,.016a3.45,3.45,0,0,1-.176.634,2.45,2.45,0,0,1,.354.256q-.016-.5-.072-1a1.421,1.421,0,0,1,.372-1.128,2.251,2.251,0,0,0-1.01-1.416l0,0a4.779,4.779,0,0,0-3.328-.3c-2.1.375-3.556,1.046-4.088,1.888a1.531,1.531,0,0,0-.172,1.285Z" transform="translate(-61.985 -46.532)"/>
    <path id="Path_31" data-name="Path 31" d="M193.257,160a.5.5,0,0,0-.25.067.25.25,0,0,1-.25,0,.5.5,0,1,0,0,.867.25.25,0,0,1,.25,0,.5.5,0,1,0,.25-.933Z" transform="translate(-155.007 -123.999)"/>
    <path id="Path_32" data-name="Path 32" d="M264.829,209.763l1.753.584-.566-1.509.468-.176.523,1.4a11.973,11.973,0,0,0,.115-1.356A1.646,1.646,0,0,0,266,208a2.2,2.2,0,0,0-2,2,1.48,1.48,0,0,0,.645,1c.035,0,.07,0,.105,0a2.567,2.567,0,0,1,1.841.92q.146-.476.253-.958l-2.173-.724Z" transform="translate(-224.75 -170.5)"/>
    <path id="Path_33" data-name="Path 33" d="M361.5,144.211c.21.152.417.313.621.479q-.022-.459-.075-.92a.944.944,0,0,0-.369-.668.623.623,0,0,0-.5-.115.86.86,0,0,0-.624.953,12.556,12.556,0,0,1-.5,5.218.953.953,0,0,0-.038.379,2.4,2.4,0,0,1,.175.458l.005,0a.736.736,0,0,0,.289.221.623.623,0,0,0,.51-.018.944.944,0,0,0,.49-.585q.117-.372.213-.747c-.226-.329-.467-.647-.718-.949l.384-.32c.166.2.327.406.484.618q.112-.541.181-1.087c-.266-.3-.545-.584-.832-.852l.341-.365c.19.177.376.362.558.553q.042-.549.042-1.1c-.3-.262-.614-.512-.932-.743Z" transform="translate(-317.758 -107.508)"/>
    <path id="Path_34" data-name="Path 34" d="M43.95,34.05a7,7,0,1,0,0,9.9A7,7,0,0,0,43.95,34.05Zm-.507,9.09a1.174,1.174,0,0,1-.491.11,1.075,1.075,0,0,1-.425-.087l-.033-.015A2.727,2.727,0,0,1,40,45.5a2.526,2.526,0,0,1-1.745-.817,1.75,1.75,0,0,1-2.442-.434H35.75A1.752,1.752,0,0,1,34,42.5q0-.031,0-.063a1.752,1.752,0,0,1-.722-1.757,1.874,1.874,0,0,1,.594-3.023,3,3,0,0,1-.289-.717,2.032,2.032,0,0,1,.233-1.682c.78-1.233,2.837-1.829,4.425-2.112a5.228,5.228,0,0,1,3.68.371,2.719,2.719,0,0,1,1.183,1.54,1.2,1.2,0,0,1,.209-.066,1.116,1.116,0,0,1,.894.2,1.444,1.444,0,0,1,.574,1.018A14.542,14.542,0,0,1,44.2,42.25,1.444,1.444,0,0,1,43.443,43.14Z" transform="translate(0 0)"/>
    <path id="Path_35" data-name="Path 35" d="M226,320a2,2,0,1,0,2,2A2.2,2.2,0,0,0,226,320Zm1.12,2.219-.582.318-.318.582a.25.25,0,0,1-.439,0l-.318-.582-.582-.318a.25.25,0,0,1,0-.439l.582-.318.318-.582a.25.25,0,0,1,.439,0l.318.582.582.318a.25.25,0,0,1,0,.439Z" transform="translate(-186 -279)"/>
  </g>
</svg>
