<svg id="oxygen-tank" xmlns="http://www.w3.org/2000/svg" width="14" height="14.569" viewBox="0 0 14 14.569">
  <path id="Path_8" data-name="Path 8" d="M10.878,322.432a2.988,2.988,0,1,0,4.226,4.226l.3-.3L11.18,322.13Z" transform="translate(-10.003 -312.963)"/>
  <path id="Path_9" data-name="Path 9" d="M220.492,121a2.988,2.988,0,1,0-4.226-4.226l-.3.3,4.226,4.226Z" transform="translate(-210.104 -112.596)"/>
  <path id="Path_10" data-name="Path 10" d="M76.052,178.51l-3.477,3.483,4.226,4.226,3.478-3.483Z" transform="translate(-70.794 -173.43)"/>
  <path id="Path_11" data-name="Path 11" d="M317.467,3.407a1.28,1.28,0,0,0-1.7-1.72l-.656-.656.3-.3a.427.427,0,0,0-.6-.6L313.6,1.333a.427.427,0,0,0,.6.6l.3-.3.6.6-.58.581a3.863,3.863,0,0,1,1.809,1.813l.565-.566a3.847,3.847,0,0,1-.285,5.115l-1.561,1.561h0a1.279,1.279,0,1,0,.6.6l1.561-1.561A4.7,4.7,0,0,0,317.467,3.407Z" transform="translate(-304.597 -0.001)"/>
</svg>
