<svg xmlns="http://www.w3.org/2000/svg" width="14" height="14" viewBox="0 0 14 14">
  <g id="platelet" transform="translate(-3 -3)">
    <path id="Path_52" data-name="Path 52" d="M9.69,53H8.724v.966H8v.483h2.414v-.483H9.69Z" transform="translate(-3.793 -37.931)"/>
    <path id="Path_53" data-name="Path 53" d="M10.724,12.138v-.483a.725.725,0,0,1,.724-.724h.724V9H3v8.931a1.208,1.208,0,0,0,1.207,1.207h6.759a1.207,1.207,0,0,0,.483-.1V12.862A.725.725,0,0,1,10.724,12.138Zm.241-2.414a.483.483,0,1,1-.483.483A.483.483,0,0,1,10.966,9.724Zm-6.517.724a.483.483,0,1,1-.483.483A.483.483,0,0,1,4.448,10.448Zm-.724,3.379a.483.483,0,1,1,.483.483A.483.483,0,0,1,3.724,13.828Zm1.931,4.586A1.448,1.448,0,1,1,7.1,16.966,1.448,1.448,0,0,1,5.655,18.414Zm2.9,0a.483.483,0,1,1,.483-.483A.483.483,0,0,1,8.552,18.414Zm.966-3.862H5.655V9.724H9.517Zm.724,1.69a.483.483,0,1,1,.483-.483A.483.483,0,0,1,10.241,16.241Z" transform="translate(0 -4.552)"/>
    <path id="Path_54" data-name="Path 54" d="M24,53h.483v.483H24Z" transform="translate(-15.931 -37.931)"/>
    <path id="Path_55" data-name="Path 55" d="M28,53h.483v.483H28Z" transform="translate(-18.966 -37.931)"/>
    <path id="Path_56" data-name="Path 56" d="M24,57.724c0,.06.257.241.724.241s.724-.181.724-.241V57H24Z" transform="translate(-15.931 -40.966)"/>
    <path id="Path_57" data-name="Path 57" d="M11.042,3H4.284A1.209,1.209,0,0,0,3.1,3.966h9.124A1.209,1.209,0,0,0,11.042,3Z" transform="translate(-0.077 0)"/>
    <path id="Path_58" data-name="Path 58" d="M40,36.793h4.345V31H40Zm.849-2.688.982-2.162a.375.375,0,0,1,.683,0l.982,2.162a1.389,1.389,0,0,1-1.264,1.964h-.119a1.389,1.389,0,0,1-1.264-1.964Z" transform="translate(-28.069 -21.241)"/>
    <path id="Path_59" data-name="Path 59" d="M40,57v.483c.036.13.76.483,2.172.483s2.136-.352,2.173-.486V57Z" transform="translate(-28.069 -40.966)"/>
    <path id="Path_60" data-name="Path 60" d="M40,25h4.345v.966H40Z" transform="translate(-28.069 -16.69)"/>
    <path id="Path_61" data-name="Path 61" d="M42.552,19h-5.31a.242.242,0,0,0-.241.241v.483a.242.242,0,0,0,.241.241h5.31a.242.242,0,0,0,.241-.241v-.483A.242.242,0,0,0,42.552,19Z" transform="translate(-25.793 -12.138)"/>
    <path id="Path_62" data-name="Path 62" d="M17,15h2.414v.483H17Z" transform="translate(-10.621 -9.103)"/>
    <path id="Path_63" data-name="Path 63" d="M17,19h2.414v.483H17Z" transform="translate(-10.621 -12.138)"/>
    <path id="Path_64" data-name="Path 64" d="M19.966,23h-.483v.483H19v.483h.483v.483h.483v-.483h.483v-.483h-.483Z" transform="translate(-12.138 -15.172)"/>
    <circle id="Ellipse_2" data-name="Ellipse 2" cx="0.483" cy="0.483" r="0.483" transform="translate(5.172 11.931)"/>
  </g>
</svg>
