<svg xmlns="http://www.w3.org/2000/svg" width="12" height="12" viewBox="0 0 12 12">
  <path id="checkmark-circled" d="M8.25,2.25a6,6,0,1,0,6,6A6,6,0,0,0,8.25,2.25Zm3.078,3.994L7.6,11.025c-.029.029-.078.094-.137.094a.2.2,0,0,1-.137-.078c-.035-.035-2.114-2.033-2.114-2.033l-.04-.04a.14.14,0,0,1,0-.171A.349.349,0,0,0,5.2,8.764c.206-.217.624-.656.651-.683S5.919,8,5.983,8s.11.056.142.088,1.205,1.16,1.205,1.16l2.981-3.83a.153.153,0,0,1,.094-.037.15.15,0,0,1,.094.035l.82.646a.15.15,0,0,1,.035.094.139.139,0,0,1-.027.088Z" transform="translate(-2.25 -2.25)" fill="#3f5078"/>
</svg>
