<svg xmlns="http://www.w3.org/2000/svg" width="30" height="30" viewBox="0 0 30 30">
  <g id="Group_17520" data-name="Group 17520" transform="translate(-7267 -8111)">
    <rect id="Rectangle_1704" data-name="Rectangle 1704" width="30" height="30" rx="15" transform="translate(7267 8111)" fill="#b4b4b4"/>
    <path id="Path" d="M8.649,6.951A1.2,1.2,0,0,1,7.8,9a1.133,1.133,0,0,1-.839-.359L4.507,6.209,2.057,8.641A1.2,1.2,0,0,1,1.2,9a1.224,1.224,0,0,1-.853-.359,1.209,1.209,0,0,1,0-1.7L2.8,4.5.351,2.055A1.206,1.206,0,1,1,2.057.352L4.507,2.8,6.943.352a1.206,1.206,0,0,1,1.706,1.7L6.2,4.5Z" transform="translate(7277.5 8121.5)" fill="#fff"/>
  </g>
</svg>
