<svg xmlns="http://www.w3.org/2000/svg" width="14" height="14" viewBox="0 0 14 14">
  <path id="phone" d="M14,11.057a3.282,3.282,0,0,1-.1.7,3.946,3.946,0,0,1-.209.681,2.667,2.667,0,0,1-1.213,1.054,3.855,3.855,0,0,1-1.85.507,3.968,3.968,0,0,1-.527-.035,4.032,4.032,0,0,1-.572-.124q-.313-.09-.467-.144t-.552-.2q-.4-.149-.487-.179a9,9,0,0,1-1.74-.825,14.99,14.99,0,0,1-2.625-2.148A14.99,14.99,0,0,1,1.511,7.716a9.016,9.016,0,0,1-.825-1.74q-.03-.089-.179-.487T.3,4.937Q.248,4.783.159,4.469A4.121,4.121,0,0,1,.035,3.9,3.877,3.877,0,0,1,0,3.371a3.856,3.856,0,0,1,.507-1.85A2.667,2.667,0,0,1,1.561.308,3.961,3.961,0,0,1,2.242.1a3.278,3.278,0,0,1,.7-.1.555.555,0,0,1,.209.03q.179.059.527.756.109.189.3.537t.348.632q.159.283.308.532.03.04.174.248a2.831,2.831,0,0,1,.214.353.642.642,0,0,1,.07.283.825.825,0,0,1-.283.5,4.857,4.857,0,0,1-.616.547,6,6,0,0,0-.616.527.757.757,0,0,0-.283.457.67.67,0,0,0,.05.224q.05.134.084.2t.139.239q.1.169.114.189a10.435,10.435,0,0,0,1.73,2.337,10.435,10.435,0,0,0,2.337,1.73q.02.01.189.114t.239.139a2.088,2.088,0,0,0,.2.084.684.684,0,0,0,.224.05.757.757,0,0,0,.457-.283,6,6,0,0,0,.527-.616,4.857,4.857,0,0,1,.547-.616.825.825,0,0,1,.5-.283.649.649,0,0,1,.283.07,2.769,2.769,0,0,1,.353.214q.209.144.248.174.248.149.532.308t.632.348q.348.189.537.3.7.348.756.527a.555.555,0,0,1,.03.209Z" fill="#a9e3e4"/>
</svg>
