<svg xmlns="http://www.w3.org/2000/svg" width="26" height="29.768" viewBox="0 0 26 29.768">
  <g id="Group_17614" data-name="Group 17614" transform="translate(-271 -785)">
    <g id="Group_17613" data-name="Group 17613">
      <g id="Group_17065" data-name="Group 17065" transform="translate(251 358)">
        <circle id="Ellipse_127" data-name="Ellipse 127" cx="7.348" cy="7.348" r="7.348" transform="translate(25.652 427)" fill="#3f5078"/>
        <path id="Rectangle_1722" data-name="Rectangle 1722" d="M9.891,0h6.217A9.891,9.891,0,0,1,26,9.891v0a3.3,3.3,0,0,1-3.3,3.3H3.3A3.3,3.3,0,0,1,0,9.891v0A9.891,9.891,0,0,1,9.891,0Z" transform="translate(20 443.58)" fill="#3f5078"/>
      </g>
    </g>
    <path id="heart" d="M8.374,13.73a.769.769,0,0,1-.433-.134,14.031,14.031,0,0,1-3.158-2.711A5.573,5.573,0,0,1,3.374,7.207,2.711,2.711,0,0,1,6.044,4.5,2.924,2.924,0,0,1,8.265,5.594a.144.144,0,0,0,.218,0A2.923,2.923,0,0,1,10.7,4.5a2.711,2.711,0,0,1,2.67,2.708,5.575,5.575,0,0,1-1.409,3.678A14.04,14.04,0,0,1,8.807,13.6a.769.769,0,0,1-.433.134Z" transform="translate(275.625 799.5)" fill="#a9e3e4"/>
  </g>
</svg>
