<svg xmlns="http://www.w3.org/2000/svg" width="22" height="19.8" viewBox="0 0 22 19.8">
  <g id="Iconly_Bold_Message" data-name="Iconly/Bold/Message" transform="translate(-2 -3)">
    <g id="Message" transform="translate(2 3)">
      <path id="Message-2" data-name="Message" d="M16.433,19.8H5.566A5.567,5.567,0,0,1,0,14.245V5.555A5.567,5.567,0,0,1,5.566,0H16.433a5.6,5.6,0,0,1,3.938,1.63A5.513,5.513,0,0,1,22,5.555v8.69A5.567,5.567,0,0,1,16.433,19.8Zm-12-14.03a.806.806,0,0,0-.588.247.84.84,0,0,0-.078,1.1l.145.143,5,3.906a3.442,3.442,0,0,0,2.145.747,3.5,3.5,0,0,0,2.154-.747l4.963-3.971.088-.088a.851.851,0,0,0-.013-1.1.914.914,0,0,0-.581-.286h-.046a.836.836,0,0,0-.571.221L12.1,9.9a1.722,1.722,0,0,1-1.1.4,1.751,1.751,0,0,1-1.1-.4L4.95,5.94A.856.856,0,0,0,4.438,5.77Z" transform="translate(0)" fill="#3f5078"/>
    </g>
  </g>
</svg>
