<svg xmlns="http://www.w3.org/2000/svg" width="22" height="22" viewBox="0 0 22 22">
  <g id="meal" transform="translate(-32 -32)">
    <path id="Path_27" data-name="Path 27" d="M81.5,228.132a2.628,2.628,0,0,1-.859-1.775c0-.07,0-.141.008-.211a2.665,2.665,0,0,0-1.579-.575,1.977,1.977,0,0,0-.424.046.393.393,0,0,1-.458-.262,1.966,1.966,0,0,0-2.749-1.147.393.393,0,0,1-.346,0,2.161,2.161,0,0,0-2.357,3.575.393.393,0,0,1,.12.4,1.968,1.968,0,0,0,.927,2.238.393.393,0,0,1,.2.392,1.987,1.987,0,0,0-.017.254,1.966,1.966,0,0,0,1.964,1.964,1.989,1.989,0,0,0,.254-.016.393.393,0,0,1,.392.2,1.964,1.964,0,0,0,2.789.676,3.652,3.652,0,0,1-.685-2.035A4.316,4.316,0,0,1,81.5,228.132Zm-2.43-.6h.786v.786H79.07Zm-5.107-.786v-.786h.786v.786Zm1.571,3.929h-.786v-.786h.786Zm.786-1.964h-.786v-.786h.786Zm1.571,3.929h-.786v-.786h.786Zm0-5.893h-.786v-.786h.786Z" transform="translate(-38.034 -182.571)" fill="#3f5078"/>
    <path id="Path_28" data-name="Path 28" d="M137.623,112.47l-.014-.009-.008,0-.014-.009a3.906,3.906,0,0,0-2.068-.447,12.428,12.428,0,0,0-2.05.2c-3.272.585-4.917,1.55-5.365,2.258a.852.852,0,0,0-.083.767l0,.016,0,.009,0,.017a3.692,3.692,0,0,0,.945,1.512,2.754,2.754,0,0,1,3.057,1.525q.129-.012.259-.012a3.381,3.381,0,0,1,1.754.524,4.319,4.319,0,0,1,3.746-2.881,2.03,2.03,0,0,1,.478.059,4.613,4.613,0,0,0,.228-.828l0-.016,0-.01,0-.017A2.42,2.42,0,0,0,137.623,112.47Zm-4.546,4.244a1.571,1.571,0,1,1,1.45-.966A1.574,1.574,0,0,1,133.078,116.714Z" transform="translate(-91.256 -76.072)" fill="#3f5078"/>
    <path id="Path_29" data-name="Path 29" d="M273.632,369.059l-.211-.386-.211.386a.392.392,0,0,1-.156.156l-.386.211.386.211a.392.392,0,0,1,.156.156l.211.386.211-.386a.392.392,0,0,1,.156-.156l.386-.211-.386-.211A.392.392,0,0,1,273.632,369.059Z" transform="translate(-228.85 -320.14)" fill="#3f5078"/>
    <path id="Path_30" data-name="Path 30" d="M96.093,85.244a4.063,4.063,0,0,0,.472,1.1,2.949,2.949,0,0,1,.965.025,3.721,3.721,0,0,1-.674-1.317l-.006-.024a1.62,1.62,0,0,1,.177-1.394c.706-1.116,2.855-2.068,5.895-2.612a13.206,13.206,0,0,1,2.184-.207,4.645,4.645,0,0,1,2.49.57l.022.013a3.177,3.177,0,0,1,1.247,3.471l0,.025a5.423,5.423,0,0,1-.276,1,3.85,3.85,0,0,1,.557.4q-.025-.783-.113-1.568a2.234,2.234,0,0,1,.585-1.773,3.538,3.538,0,0,0-1.587-2.225l-.007,0c-1.134-.721-2.845-.876-5.23-.475-3.3.59-5.588,1.643-6.424,2.966a2.406,2.406,0,0,0-.271,2.02Z" transform="translate(-60.842 -45.674)" fill="#3f5078"/>
    <path id="Path_31" data-name="Path 31" d="M193.971,160a.784.784,0,0,0-.393.1.393.393,0,0,1-.393,0,.786.786,0,1,0,0,1.362.393.393,0,0,1,.393,0,.786.786,0,1,0,.393-1.467Z" transform="translate(-152.15 -121.714)" fill="#3f5078"/>
    <path id="Path_32" data-name="Path 32" d="M265.3,210.77l2.754.918-.889-2.372.736-.276.822,2.193a18.839,18.839,0,0,0,.18-2.132,2.586,2.586,0,0,0-1.763-1.1A3.454,3.454,0,0,0,264,211.143a2.326,2.326,0,0,0,1.013,1.576c.055,0,.11,0,.166,0a4.034,4.034,0,0,1,2.892,1.445q.23-.748.4-1.506l-3.414-1.138Z" transform="translate(-220.607 -167.357)" fill="#3f5078"/>
    <path id="Path_33" data-name="Path 33" d="M362.348,144.917c.33.239.656.491.976.753q-.035-.722-.117-1.446a1.484,1.484,0,0,0-.58-1.05.978.978,0,0,0-.781-.181,1.351,1.351,0,0,0-.981,1.5,19.731,19.731,0,0,1-.789,8.2,1.5,1.5,0,0,0-.059.6,3.785,3.785,0,0,1,.275.719L360.3,154a1.156,1.156,0,0,0,.453.348.979.979,0,0,0,.8-.028,1.483,1.483,0,0,0,.769-.92q.184-.584.335-1.173c-.355-.516-.734-1.017-1.128-1.491l.6-.5c.261.313.515.638.76.971q.176-.85.284-1.708c-.418-.468-.857-.918-1.307-1.339l.536-.574c.3.279.591.57.877.869q.067-.863.066-1.732c-.473-.413-.965-.8-1.464-1.167Z" transform="translate(-311.901 -105.526)" fill="#3f5078"/>
    <path id="Path_34" data-name="Path 34" d="M50.778,35.222a11,11,0,1,0,0,15.556A11,11,0,0,0,50.778,35.222Zm-.8,14.284a1.845,1.845,0,0,1-.771.173,1.689,1.689,0,0,1-.668-.137l-.052-.024a4.286,4.286,0,0,1-3.919,3.7,3.969,3.969,0,0,1-2.743-1.284,2.75,2.75,0,0,1-3.837-.682l-.1,0a2.753,2.753,0,0,1-2.75-2.75q0-.049,0-.1a2.753,2.753,0,0,1-1.134-2.76,2.946,2.946,0,0,1,.933-4.75,4.718,4.718,0,0,1-.454-1.127,3.193,3.193,0,0,1,.366-2.643c1.225-1.937,4.458-2.874,6.954-3.32,2.587-.436,4.477-.245,5.782.583A4.273,4.273,0,0,1,49.45,36.8a1.888,1.888,0,0,1,.329-.1,1.754,1.754,0,0,1,1.405.31,2.269,2.269,0,0,1,.9,1.6,22.852,22.852,0,0,1-.914,9.5A2.269,2.269,0,0,1,49.981,49.506Z" transform="translate(0 0)" fill="#3f5078"/>
    <path id="Path_35" data-name="Path 35" d="M227.143,320a3.143,3.143,0,1,0,3.143,3.143A3.454,3.454,0,0,0,227.143,320Zm1.76,3.488-.915.5-.5.915a.393.393,0,0,1-.689,0l-.5-.915-.915-.5a.393.393,0,0,1,0-.689l.915-.5.5-.915a.393.393,0,0,1,.689,0l.5.915.915.5a.393.393,0,0,1,0,.689Z" transform="translate(-182.572 -273.857)" fill="#3f5078"/>
  </g>
</svg>
