<svg xmlns="http://www.w3.org/2000/svg" width="40" height="40" viewBox="0 0 40 40">
  <g id="Group_17529" data-name="Group 17529" transform="translate(-30 -361)">
    <circle id="Ellipse_23" data-name="Ellipse 23" cx="20" cy="20" r="20" transform="translate(30 361)" fill="#a9e3e4"/>
    <g id="Group">
      <path id="Vector" d="M6.351,0V1.17H8.669L5.858,3.981a5.048,5.048,0,0,0-3.065-.918A4.788,4.788,0,0,0,0,3.958,5.959,5.959,0,0,1,1.465,7.877,5.959,5.959,0,0,1,0,11.8,4.812,4.812,0,0,0,7.607,7.877a5.046,5.046,0,0,0-.921-3.068L9.5,2V4.316h1.17V0Z" transform="translate(49.333 373)" fill="#495375"/>
      <path id="Vector-2" data-name="Vector" d="M7.607,8.733A5.973,5.973,0,0,1,7.607.9a4.813,4.813,0,1,0-3.378,8.7v3.762H2.65v1.17H4.229v1.96H5.4v-1.96H6.978v-1.17H5.4V9.592a4.787,4.787,0,0,0,2.208-.86Z" transform="translate(40 376.063)" fill="#495375"/>
      <path id="Vector-3" data-name="Vector" d="M2.315,3.128c0,1.727-.518,3.128-1.158,3.128S0,4.855,0,3.128.518,0,1.158,0,2.315,1.4,2.315,3.128Z" transform="translate(47.313 377.749)" fill="#495375"/>
    </g>
  </g>
</svg>
