<svg width="40" height="40" viewBox="0 0 40 40" fill="none" xmlns="http://www.w3.org/2000/svg">
<circle cx="20" cy="20" r="20" fill="#A9E3E4"/>
<path d="M29 16.76C29 15.4236 29 14.4887 29 14.4C29 13.4075 28.2903 12.6 27.418 12.6H27.207V14.8C27.207 15.1314 26.9709 15.4 26.6797 15.4C26.3885 15.4 26.1523 15.1314 26.1523 14.8C26.1523 14.1264 26.1523 12.2707 26.1523 11.6C26.1523 11.2686 25.9162 11 25.625 11C25.3338 11 25.0977 11.2686 25.0977 11.6V12.6H21.582V14.8C21.582 15.1314 21.3459 15.4 21.0547 15.4C20.7635 15.4 20.5273 15.1314 20.5273 14.8C20.5273 14.1264 20.5273 12.2707 20.5273 11.6C20.5273 11.2686 20.2912 11 20 11C19.7088 11 19.4727 11.2686 19.4727 11.6V12.6H15.957V14.8C15.957 15.1314 15.7209 15.4 15.4297 15.4C15.1385 15.4 14.9023 15.1314 14.9023 14.8C14.9023 14.1264 14.9023 12.2707 14.9023 11.6C14.9023 11.2686 14.6662 11 14.375 11C14.0838 11 13.8477 11.2686 13.8477 11.6V12.6H12.582C11.7097 12.6 11 13.4075 11 14.4V16.76H29Z" fill="#3F5078"/>
<path d="M11 17.96V27.68C11 28.6725 11.7097 29.48 12.582 29.48H27.418C28.2903 29.48 29 28.6725 29 27.68C29 27.423 29 21.8075 29 17.96C28.6718 17.96 11.1815 17.96 11 17.96ZM16.0625 26.28H14.9375C14.6463 26.28 14.4102 26.0114 14.4102 25.68C14.4102 25.3487 14.6463 25.08 14.9375 25.08H16.0625C16.3537 25.08 16.5898 25.3487 16.5898 25.68C16.5898 26.0114 16.3537 26.28 16.0625 26.28ZM16.0625 23.72H14.9375C14.6463 23.72 14.4102 23.4514 14.4102 23.12C14.4102 22.7887 14.6463 22.52 14.9375 22.52H16.0625C16.3537 22.52 16.5898 22.7887 16.5898 23.12C16.5898 23.4514 16.3537 23.72 16.0625 23.72ZM16.0625 21.16H14.9375C14.6463 21.16 14.4102 20.8914 14.4102 20.56C14.4102 20.2287 14.6463 19.96 14.9375 19.96H16.0625C16.3537 19.96 16.5898 20.2287 16.5898 20.56C16.5898 20.8914 16.3537 21.16 16.0625 21.16ZM20.5625 26.28H19.4375C19.1463 26.28 18.9102 26.0114 18.9102 25.68C18.9102 25.3487 19.1463 25.08 19.4375 25.08H20.5625C20.8537 25.08 21.0898 25.3487 21.0898 25.68C21.0898 26.0114 20.8537 26.28 20.5625 26.28ZM20.5625 23.72H19.4375C19.1463 23.72 18.9102 23.4514 18.9102 23.12C18.9102 22.7887 19.1463 22.52 19.4375 22.52H20.5625C20.8537 22.52 21.0898 22.7887 21.0898 23.12C21.0898 23.4514 20.8537 23.72 20.5625 23.72ZM20.5625 21.16H19.4375C19.1463 21.16 18.9102 20.8914 18.9102 20.56C18.9102 20.2287 19.1463 19.96 19.4375 19.96H20.5625C20.8537 19.96 21.0898 20.2287 21.0898 20.56C21.0898 20.8914 20.8537 21.16 20.5625 21.16ZM25.0625 26.28H23.9375C23.6463 26.28 23.4102 26.0114 23.4102 25.68C23.4102 25.3487 23.6463 25.08 23.9375 25.08H25.0625C25.3537 25.08 25.5898 25.3487 25.5898 25.68C25.5898 26.0114 25.3537 26.28 25.0625 26.28ZM25.0625 23.72H23.9375C23.6463 23.72 23.4102 23.4514 23.4102 23.12C23.4102 22.7887 23.6463 22.52 23.9375 22.52H25.0625C25.3537 22.52 25.5898 22.7887 25.5898 23.12C25.5898 23.4514 25.3537 23.72 25.0625 23.72ZM25.0625 21.16H23.9375C23.6463 21.16 23.4102 20.8914 23.4102 20.56C23.4102 20.2287 23.6463 19.96 23.9375 19.96H25.0625C25.3537 19.96 25.5898 20.2287 25.5898 20.56C25.5898 20.8914 25.3537 21.16 25.0625 21.16Z" fill="#3F5078"/>
</svg>
