<svg width="40" height="40" viewBox="0 0 40 40" fill="none" xmlns="http://www.w3.org/2000/svg">
<circle cx="20" cy="20" r="20" fill="#A9E3E4"/>
<path d="M28.4792 12H11.5208C10.1303 12 9 13.1303 9 14.5208V25.9792C9 27.3698 10.1303 28.5 11.5208 28.5H28.4792C29.8698 28.5 31 27.3698 31 25.9792V14.5208C31 13.1303 29.8698 12 28.4792 12ZM15.875 15.6667C17.1382 15.6667 18.1667 16.6952 18.1667 17.9583C18.1667 19.2215 17.1382 20.25 15.875 20.25C14.6118 20.25 13.5833 19.2215 13.5833 17.9583C13.5833 16.6952 14.6118 15.6667 15.875 15.6667ZM20 24.1458C20 24.5253 19.692 24.8333 19.3125 24.8333H12.4375C12.058 24.8333 11.75 24.5253 11.75 24.1458V23.6875C11.75 22.2969 12.8803 21.1667 14.2708 21.1667H17.4792C18.8698 21.1667 20 22.2969 20 23.6875V24.1458ZM27.5625 24.8333H22.5208C22.1413 24.8333 21.8333 24.5253 21.8333 24.1458C21.8333 23.7663 22.1413 23.4583 22.5208 23.4583H27.5625C27.942 23.4583 28.25 23.7663 28.25 24.1458C28.25 24.5253 27.942 24.8333 27.5625 24.8333ZM27.5625 21.1667H22.5208C22.1413 21.1667 21.8333 20.8587 21.8333 20.4792C21.8333 20.0997 22.1413 19.7917 22.5208 19.7917H27.5625C27.942 19.7917 28.25 20.0997 28.25 20.4792C28.25 20.8587 27.942 21.1667 27.5625 21.1667ZM27.5625 17.5H22.5208C22.1413 17.5 21.8333 17.192 21.8333 16.8125C21.8333 16.433 22.1413 16.125 22.5208 16.125H27.5625C27.942 16.125 28.25 16.433 28.25 16.8125C28.25 17.192 27.942 17.5 27.5625 17.5Z" fill="#3F5078"/>
</svg>
