<svg width="40" height="40" viewBox="0 0 40 40" fill="none" xmlns="http://www.w3.org/2000/svg">
<circle cx="20" cy="20" r="20" fill="#A9E3E4"/>
<path d="M18.054 33.4641C18.849 33.4641 19.6363 33.3075 20.3708 33.0032C21.1053 32.699 21.7727 32.253 22.3349 31.6908C22.897 31.1286 23.343 30.4612 23.6472 29.7267C23.9514 28.9922 24.108 28.2049 24.108 27.4099C24.108 24.0663 18.054 17.8961 18.054 17.8961V33.4641Z" fill="#3F5078"/>
<path d="M12 27.4099C12 28.2049 12.1566 28.9922 12.4608 29.7267C12.7651 30.4613 13.211 31.1287 13.7732 31.6909C14.3354 32.2531 15.0028 32.699 15.7374 33.0033C16.4719 33.3075 17.2592 33.4641 18.0542 33.4641V17.8962C18.0542 17.8962 12 24.0663 12 27.4099ZM14.1621 27.4099C14.1632 28.3271 14.528 29.2065 15.1766 29.855C15.8252 30.5036 16.7046 30.8685 17.6218 30.8695C16.7046 30.8685 15.8252 30.5036 15.1766 29.855C14.528 29.2065 14.1632 28.3271 14.1621 27.4099V27.4099Z" fill="#3F5078"/>
<path d="M21.0815 15.734C21.0826 16.6512 21.4474 17.5305 22.0959 18.1791C22.7445 18.8276 23.6239 19.1924 24.5411 19.1934V10.0919C22.6814 12.3211 21.0815 14.7473 21.0815 15.734Z" fill="#3F5078"/>
<path d="M24.5405 10.0902V19.1935C25.4577 19.1925 26.3371 18.8277 26.9856 18.1792C27.6342 17.5306 27.999 16.6513 28 15.7341C28 14.8185 26.4999 12.4341 24.5405 10.0902Z" fill="#3F5078"/>
<path d="M18.3223 11.496C17.8755 10.6194 17.3518 9.78408 16.7573 9V13.5717C17.1098 13.5716 17.4539 13.4639 17.7436 13.263C18.0333 13.0621 18.2548 12.7776 18.3785 12.4475C18.4331 12.2932 18.4563 12.1295 18.4467 11.9661C18.437 11.8027 18.3947 11.6428 18.3223 11.496V11.496Z" fill="#3F5078"/>
<path d="M16.7567 13.5717V9.00038C16.1644 9.77909 15.6403 10.6074 15.1903 11.4761C15.1181 11.6229 15.0755 11.7825 15.065 11.9457C15.0546 12.109 15.0764 12.2727 15.1293 12.4275C15.2503 12.7622 15.4714 13.0516 15.7625 13.2563C16.0537 13.461 16.4008 13.5711 16.7567 13.5717V13.5717Z" fill="#3F5078"/>
<path d="M17.6211 31.3019C16.5892 31.3007 15.5999 30.8903 14.8703 30.1606C14.1406 29.4309 13.7302 28.4417 13.729 27.4098H14.5939C14.595 28.2123 14.9142 28.9817 15.4817 29.5492C16.0492 30.1167 16.8186 30.4359 17.6211 30.437L17.6211 31.3019Z" fill="#3F5078"/>
</svg>
