<svg width="40" height="40" viewBox="0 0 40 40" fill="none" xmlns="http://www.w3.org/2000/svg">
<circle cx="20" cy="20" r="20" fill="#A9E3E4"/>
<path d="M25.6843 12V13.1704H28.002L25.1911 15.9813C24.3946 15.3884 23.3539 15.0628 22.1264 15.0628C21.0858 15.0628 20.1214 15.3948 19.3333 15.9582C20.2455 17.0088 20.7983 18.3795 20.7983 19.8768C20.7983 21.3742 20.2455 22.7448 19.3333 23.7955C20.1214 24.3589 21.0858 24.6908 22.1264 24.6908C24.7808 24.6908 26.9404 22.5313 26.9404 19.8768C26.9404 18.6474 26.6138 17.6054 26.0193 16.8084L28.8297 13.998V16.3157H30.0001V12H25.6843Z" fill="#495375"/>
<path d="M17.6071 23.7955C16.6949 22.7449 16.1421 21.3742 16.1421 19.8768C16.1421 18.3795 16.6949 17.0088 17.6071 15.9582C16.8189 15.3948 15.8545 15.0628 14.814 15.0628C12.1595 15.0628 10 17.2224 10 19.8769C10 22.3332 11.8493 24.3656 14.2288 24.6553V28.417H12.6503V29.5874H14.2288V31.547H15.3992V29.5874H16.9777V28.417H15.3992V24.6553C16.2153 24.556 16.969 24.2517 17.6071 23.7955V23.7955Z" fill="#495375"/>
<path d="M18.4705 23.0048C19.1099 23.0048 19.6282 21.6044 19.6282 19.8769C19.6282 18.1494 19.1099 16.749 18.4705 16.749C17.8311 16.749 17.3127 18.1494 17.3127 19.8769C17.3127 21.6044 17.8311 23.0048 18.4705 23.0048Z" fill="#495375"/>
</svg>
