<svg width="40" height="40" viewBox="0 0 40 40" fill="none" xmlns="http://www.w3.org/2000/svg">
<circle cx="20" cy="20" r="20" fill="#A9E3E4"/>
<path d="M20.9479 21.8771L20.5797 20.8328C20.0797 21.0674 19.4989 21.1862 18.8476 21.1862C18.1892 21.1862 17.6029 21.0616 17.0989 20.8163L16.5939 21.8546C16.5763 21.8907 16.5516 21.923 16.5213 21.9494C16.491 21.9757 16.4557 21.9958 16.4175 22.0082C16.3224 22.0391 16.2246 22.0698 16.124 22.1002C16.1865 22.4364 16.4007 22.908 16.7917 23.3273C17.0525 23.6121 17.3704 23.8388 17.7247 23.9924C18.079 24.1461 18.4617 24.2234 18.8478 24.2193C19.9989 24.2193 20.6903 23.6163 21.0164 23.227C21.1313 22.8606 21.2818 22.5063 21.4656 22.1692C21.3472 22.1319 21.237 22.0959 21.1336 22.0607C21.0908 22.0461 21.0518 22.022 21.0197 21.9902C20.9875 21.9584 20.9629 21.9197 20.9479 21.8771Z" fill="#3F5078"/>
<path d="M20.7465 24.9962C20.7465 24.7394 20.7632 24.4829 20.7963 24.2283C20.2231 24.6208 19.5426 24.8265 18.8479 24.8172C18.3796 24.8222 17.9155 24.7284 17.4859 24.5419C17.0562 24.3555 16.6707 24.0805 16.3545 23.7351C15.9448 23.2956 15.6511 22.7524 15.5477 22.2683C15.4366 22.2998 15.3237 22.3315 15.2089 22.3636C12.888 23.014 10 23.8235 10 26.3222V29.4484C10 29.8141 10.1689 30.3241 10.4438 30.3241H24.08C23.0812 29.8373 22.2392 29.0798 21.6498 28.1378C21.0604 27.1959 20.7474 26.1073 20.7465 24.9962Z" fill="#3F5078"/>
<path d="M18.9703 12.2691C19.0807 12.2768 19.1895 12.2865 19.296 12.296C20.2079 12.3775 20.8104 12.4312 21.387 11.1628C21.4104 11.1114 21.4478 11.0677 21.495 11.0367C21.5422 11.0057 21.5972 10.9886 21.6537 10.9876C21.7101 10.9866 21.7657 11.0015 21.814 11.0308C21.8623 11.06 21.9014 11.1023 21.9266 11.1528L21.9555 11.2107C22.3287 11.6132 22.5837 12.3563 22.754 13.0807C22.78 12.7423 22.7963 12.4578 22.7963 12.3463C22.7963 12.2305 22.7986 12.1144 22.8009 11.9915C22.8179 11.1158 22.8371 10.1233 21.9769 9.25327C21.1578 8.42484 19.9953 7.96855 18.7868 8.00169C17.5841 8.03458 16.4591 8.54454 15.7004 9.40082C15.6727 9.43201 15.6446 9.46347 15.6162 9.4952C15.1088 10.0622 14.5336 10.7048 14.5795 12.5215C14.5822 12.6319 14.6468 12.9578 14.7333 13.3307C14.8317 12.7309 15.0331 12.0841 15.4365 11.6514C15.5878 11.485 15.773 11.3528 15.9795 11.2638C16.1861 11.1749 16.4094 11.1311 16.6343 11.1356C17.08 11.1356 17.2322 11.5759 17.3797 12.0016C17.6044 12.6509 17.8547 13.3737 18.9054 13.4376C18.3645 12.8316 18.4585 12.6131 18.5034 12.5086C18.5374 12.4291 18.6511 12.2472 18.9703 12.2691Z" fill="#3F5078"/>
<path d="M22.0952 17.3788C22.1441 17.3473 22.2014 17.3314 22.2596 17.3332H22.2687C22.762 17.3332 23.3367 16.5937 23.5533 15.6769C23.6303 15.3501 23.5237 15.1032 23.3785 15.0284C23.2475 14.9611 23.1184 15.0543 23.0392 15.135C23.019 15.187 22.9846 15.2324 22.9399 15.2659C22.8952 15.2995 22.8421 15.3198 22.7864 15.3246C22.7777 15.3254 22.7691 15.3258 22.7605 15.3258C22.6857 15.3257 22.6136 15.2976 22.5585 15.2469C22.5034 15.1963 22.4693 15.1269 22.4629 15.0523C22.4053 14.3829 22.1639 12.6674 21.6948 11.8629C20.9793 13.0466 20.098 12.9679 19.2428 12.8915L19.2299 12.8904C19.4039 13.0995 19.5918 13.2966 19.7924 13.4803C19.8341 13.5186 19.864 13.568 19.8787 13.6226C19.8934 13.6772 19.8923 13.7349 19.8756 13.789C19.8588 13.843 19.827 13.8912 19.784 13.9279C19.7409 13.9646 19.6883 13.9883 19.6323 13.9964C17.5405 14.2953 17.086 12.9817 16.8145 12.1969C16.7586 12.0355 16.6756 11.7959 16.6165 11.7335C16.4768 11.7318 16.3383 11.76 16.2103 11.816C16.0823 11.872 15.9677 11.9547 15.8741 12.0585C15.5726 12.3816 15.3685 12.9526 15.284 13.7098C15.2434 14.0769 15.2324 14.4467 15.2509 14.8156C15.2553 14.8784 15.2396 14.9409 15.2061 14.9942C15.2012 15.0516 15.1799 15.1063 15.1446 15.1518C15.1094 15.1973 15.0617 15.2316 15.0073 15.2506C14.953 15.2696 14.8943 15.2725 14.8384 15.2589C14.7825 15.2453 14.7317 15.2158 14.6921 15.1739C14.5606 15.0354 14.4197 14.9913 14.3054 15.0529C14.1726 15.1248 14.0647 15.3508 14.1417 15.6772C14.3586 16.5938 14.9332 17.3334 15.4265 17.3334C15.4315 17.3334 15.4365 17.3334 15.4415 17.3334C15.519 17.3331 15.5936 17.3631 15.6494 17.4169C15.7052 17.4708 15.7379 17.5442 15.7405 17.6217C15.7604 17.9103 15.9195 19.388 17.1114 20.1405C17.5817 20.4378 18.1659 20.5885 18.8477 20.5885C19.5314 20.5885 20.1167 20.4412 20.5874 20.1507C20.589 20.1496 20.5905 20.1485 20.5924 20.1475C21.8026 19.3959 21.9398 17.9146 21.9551 17.625C21.9563 17.5756 21.9697 17.5272 21.9941 17.4842C22.0186 17.4413 22.0533 17.405 22.0952 17.3788Z" fill="#3F5078"/>
<path d="M26.6721 19.6683C25.6184 19.6683 24.5883 19.9808 23.7121 20.5662C22.836 21.1516 22.1531 21.9837 21.7498 22.9572C21.3466 23.9307 21.241 25.002 21.4466 26.0355C21.6522 27.069 22.1596 28.0183 22.9047 28.7635C23.6498 29.5086 24.5991 30.016 25.6326 30.2216C26.6661 30.4272 27.7374 30.3217 28.7109 29.9184C29.6844 29.5152 30.5165 28.8323 31.102 27.9562C31.6874 27.08 31.9999 26.0499 31.9999 24.9962C31.9983 23.5837 31.4365 22.2294 30.4377 21.2306C29.4389 20.2318 28.0847 19.6699 26.6721 19.6683ZM29.6828 25.7895C29.6827 25.8952 29.6407 25.9966 29.5659 26.0713C29.4912 26.146 29.3899 26.1881 29.2842 26.1882H27.6896V27.8326C27.6895 27.9383 27.6474 28.0396 27.5727 28.1143C27.498 28.1891 27.3967 28.2311 27.291 28.2312H25.8957C25.79 28.2311 25.6887 28.1891 25.614 28.1143C25.5392 28.0396 25.4972 27.9383 25.4971 27.8326V26.1882H23.8527C23.747 26.1881 23.6457 26.146 23.5709 26.0713C23.4962 25.9966 23.4542 25.8952 23.454 25.7895V24.3943C23.4542 24.2886 23.4962 24.1873 23.5709 24.1125C23.6457 24.0378 23.747 23.9958 23.8527 23.9957H25.4971V22.4011C25.4972 22.2954 25.5392 22.1941 25.614 22.1193C25.6887 22.0446 25.79 22.0026 25.8957 22.0024H27.291C27.3967 22.0026 27.498 22.0446 27.5727 22.1193C27.6474 22.1941 27.6895 22.2954 27.6896 22.4011V23.9957H29.2842C29.3899 23.9958 29.4912 24.0378 29.5659 24.1125C29.6407 24.1873 29.6827 24.2886 29.6828 24.3943V25.7895Z" fill="#3F5078"/>
<path d="M27.0916 24.195V22.6004H26.095V24.195C26.0949 24.3007 26.0529 24.402 25.9781 24.4767C25.9034 24.5515 25.8021 24.5935 25.6964 24.5936H24.052V25.5902H25.6964C25.8021 25.5903 25.9034 25.6324 25.9781 25.7071C26.0529 25.7818 26.0949 25.8832 26.095 25.9888V27.6332H27.0916V25.9888C27.0918 25.8832 27.1338 25.7818 27.2085 25.7071C27.2833 25.6324 27.3846 25.5903 27.4903 25.5902H29.0848V24.5936H27.4903C27.3846 24.5935 27.2833 24.5515 27.2085 24.4767C27.1338 24.402 27.0918 24.3007 27.0916 24.195Z" fill="#3F5078"/>
</svg>
