<svg width="40" height="40" viewBox="0 0 40 40" fill="none" xmlns="http://www.w3.org/2000/svg">
<circle cx="20" cy="20" r="20" fill="#A9E3E4"/>
<path d="M13.3572 17.5531H11.5274C11.2361 17.5531 11 17.7892 11 18.0804V29.0005H13.3572V17.5531Z" fill="#3F5078"/>
<path d="M28.4724 17.5531H26.6426V29.0005H28.9998V18.0804C28.9998 17.7892 28.7637 17.5531 28.4724 17.5531Z" fill="#3F5078"/>
<path d="M20.9167 25.4767V29.0005H19.0827V25.4767H20.9167Z" fill="#3F5078"/>
<path d="M25.0616 13.166H23.4013V11.5274C23.4013 11.2361 23.1652 11 22.874 11H17.202C16.9108 11 16.6746 11.2361 16.6746 11.5274V13.166H14.9397C14.6485 13.166 14.4124 13.4021 14.4124 13.6934V29.0005H18.0289V24.9494C18.0289 24.6581 18.265 24.422 18.5563 24.422H21.4451C21.7363 24.422 21.9724 24.6581 21.9724 24.9494V29.0005H25.589V13.6934C25.589 13.4021 25.3528 13.166 25.0616 13.166V13.166ZM17.6127 22.5996H17.0447C16.7535 22.5996 16.5174 22.3635 16.5174 22.0722C16.5174 21.781 16.7535 21.5449 17.0447 21.5449H17.6127C17.9039 21.5449 18.14 21.781 18.14 22.0722C18.14 22.3635 17.9039 22.5996 17.6127 22.5996ZM17.6127 20.4902H17.0447C16.7535 20.4902 16.5174 20.254 16.5174 19.9628C16.5174 19.6716 16.7535 19.4354 17.0447 19.4354H17.6127C17.9039 19.4354 18.14 19.6716 18.14 19.9628C18.14 20.254 17.9039 20.4902 17.6127 20.4902ZM17.6127 18.3807H17.0447C16.7535 18.3807 16.5174 18.1446 16.5174 17.8534C16.5174 17.5621 16.7535 17.326 17.0447 17.326H17.6127C17.9039 17.326 18.14 17.5621 18.14 17.8534C18.14 18.1446 17.9039 18.3807 17.6127 18.3807ZM20.2846 22.5996H19.7167C19.4255 22.5996 19.1893 22.3635 19.1893 22.0722C19.1893 21.781 19.4255 21.5449 19.7167 21.5449H20.2846C20.5759 21.5449 20.812 21.781 20.812 22.0722C20.812 22.3635 20.5759 22.5996 20.2846 22.5996ZM20.2846 20.4902H19.7167C19.4255 20.4902 19.1893 20.254 19.1893 19.9628C19.1893 19.6716 19.4255 19.4354 19.7167 19.4354H20.2846C20.5759 19.4354 20.812 19.6716 20.812 19.9628C20.812 20.254 20.5759 20.4902 20.2846 20.4902ZM20.2846 18.3807H19.7167C19.4255 18.3807 19.1893 18.1446 19.1893 17.8534C19.1893 17.5621 19.4255 17.326 19.7167 17.326H20.2846C20.5759 17.326 20.812 17.5621 20.812 17.8534C20.812 18.1446 20.5759 18.3807 20.2846 18.3807ZM21.0635 15.227H20.528V15.7625C20.528 16.0537 20.2919 16.2898 20.0007 16.2898C19.7094 16.2898 19.4733 16.0537 19.4733 15.7625V15.227H18.9378C18.6466 15.227 18.4105 14.9909 18.4105 14.6996C18.4105 14.4084 18.6466 14.1723 18.9378 14.1723H19.4733V13.6368C19.4733 13.3455 19.7094 13.1094 20.0007 13.1094C20.2919 13.1094 20.528 13.3455 20.528 13.6368V14.1723H21.0635C21.3547 14.1723 21.5909 14.4084 21.5909 14.6996C21.5909 14.9909 21.3547 15.227 21.0635 15.227V15.227ZM22.9566 22.5996H22.3886C22.0974 22.5996 21.8613 22.3635 21.8613 22.0722C21.8613 21.781 22.0974 21.5449 22.3886 21.5449H22.9566C23.2478 21.5449 23.4839 21.781 23.4839 22.0722C23.4839 22.3635 23.2478 22.5996 22.9566 22.5996ZM22.9566 20.4902H22.3886C22.0974 20.4902 21.8613 20.254 21.8613 19.9628C21.8613 19.6716 22.0974 19.4354 22.3886 19.4354H22.9566C23.2478 19.4354 23.4839 19.6716 23.4839 19.9628C23.4839 20.254 23.2478 20.4902 22.9566 20.4902ZM22.9566 18.3807H22.3886C22.0974 18.3807 21.8613 18.1446 21.8613 17.8534C21.8613 17.5621 22.0974 17.326 22.3886 17.326H22.9566C23.2478 17.326 23.4839 17.5621 23.4839 17.8534C23.4839 18.1446 23.2478 18.3807 22.9566 18.3807Z" fill="#3F5078"/>
</svg>
