<svg width="40" height="40" viewBox="0 0 40 40" fill="none" xmlns="http://www.w3.org/2000/svg">
<circle cx="20" cy="20" r="20" fill="#A9E3E4"/>
<path d="M20 11C19.0506 11 18.1226 11.2815 17.3332 11.8089C16.5439 12.3364 15.9286 13.086 15.5653 13.9631C15.202 14.8402 15.107 15.8053 15.2922 16.7364C15.4774 17.6675 15.9345 18.5228 16.6058 19.1941C17.2771 19.8654 18.1324 20.3226 19.0635 20.5078C19.9946 20.693 20.9597 20.5979 21.8368 20.2346C22.7139 19.8713 23.4636 19.2561 23.991 18.4667C24.5184 17.6774 24.8 16.7494 24.8 15.8C24.7986 14.5274 24.2925 13.3072 23.3926 12.4073C22.4927 11.5075 21.2726 11.0013 20 11V11Z" fill="#3F5078"/>
<path d="M25.972 23.736C25.3341 23.0809 24.5714 22.5603 23.7289 22.205C22.8865 21.8496 21.9813 21.6667 21.067 21.667H18.933C18.0187 21.6667 17.1135 21.8496 16.2711 22.205C15.4286 22.5603 14.6659 23.0809 14.028 23.736C12.728 25.0478 11.999 26.8202 12 28.667C12 28.8084 12.0562 28.9439 12.1561 29.0439C12.2561 29.1438 12.3916 29.2 12.533 29.2H27.467C27.537 29.2 27.6063 29.1862 27.671 29.1594C27.7356 29.1326 27.7944 29.0934 27.8439 29.0439C27.8934 28.9944 27.9326 28.9356 27.9594 28.871C27.9862 28.8063 28 28.737 28 28.667C28.001 26.8202 27.272 25.0478 25.972 23.736Z" fill="#3F5078"/>
</svg>
