<svg width="40" height="40" viewBox="0 0 40 40" fill="none" xmlns="http://www.w3.org/2000/svg">
<circle cx="20" cy="20" r="20" fill="#A9E3E4"/>
<path d="M29.6667 25.7428C29.6561 26.0578 29.6115 26.3707 29.5337 26.6761C29.4686 26.9864 29.3757 27.2902 29.256 27.5838C28.8734 28.2053 28.3089 28.6941 27.639 28.9838C26.8878 29.4162 26.0393 29.6514 25.1727 29.6674C24.9386 29.6674 24.7047 29.6518 24.4727 29.6208C24.2147 29.5842 23.9596 29.5288 23.7097 29.4551C23.4312 29.3758 23.2236 29.312 23.0867 29.2638L22.347 28.9908C21.9939 28.8586 21.7777 28.7808 21.6983 28.7574C20.8881 28.4743 20.1105 28.1051 19.379 27.6561C18.1078 26.8372 16.9336 25.8768 15.879 24.7931C14.7953 23.7385 13.8349 22.5643 13.016 21.2931C12.5671 20.5615 12.1979 19.784 11.9147 18.9738C11.8882 18.8945 11.8104 18.6782 11.6813 18.3251C11.5522 17.972 11.4597 17.7247 11.4037 17.5831C11.3554 17.4462 11.2917 17.2386 11.2123 16.9601C11.1391 16.71 11.0837 16.4551 11.0467 16.1971C11.0153 15.9651 10.9997 15.7312 11 15.4971C11.0135 14.6303 11.2463 13.781 11.6767 13.0285C11.9663 12.3586 12.4551 11.794 13.0767 11.4115C13.3718 11.2916 13.6771 11.1986 13.989 11.1338C14.2952 11.0558 14.6089 11.0112 14.9247 11.0008C15.0181 10.9965 15.1116 11.0099 15.2 11.0405C15.3556 11.0933 15.5889 11.4293 15.9 12.0485C15.9964 12.2165 16.1287 12.4552 16.2967 12.7648C16.4647 13.0743 16.6202 13.3551 16.7633 13.6071C16.9049 13.8591 17.0418 14.0925 17.174 14.3071C17.2004 14.3429 17.2782 14.4533 17.4073 14.6385C17.5134 14.7869 17.6085 14.9429 17.692 15.1051C17.7517 15.2223 17.7837 15.3516 17.7853 15.4831C17.7425 15.7421 17.6084 15.9771 17.4073 16.1458C17.1547 16.4113 16.8799 16.6548 16.586 16.8738C16.2968 17.0884 16.0224 17.3222 15.7647 17.5738C15.5685 17.7238 15.434 17.9404 15.3867 18.1828C15.3911 18.2854 15.4132 18.3864 15.452 18.4815C15.4956 18.6012 15.5329 18.6915 15.564 18.7521C15.5951 18.8128 15.6573 18.9186 15.7507 19.0695C15.844 19.225 15.8946 19.309 15.9023 19.3215C16.5224 20.4624 17.2992 21.5109 18.21 22.4364C19.1348 23.3557 20.1841 24.1404 21.3273 24.7674L21.5793 24.9191C21.7349 25.0124 21.8407 25.0747 21.8967 25.1058C21.9849 25.1478 22.0752 25.1852 22.1673 25.2178C22.2625 25.2562 22.3635 25.2783 22.466 25.2831C22.7084 25.2358 22.925 25.1013 23.075 24.9051C23.3266 24.6474 23.5604 24.373 23.775 24.0838C23.994 23.7899 24.2375 23.5151 24.503 23.2624C24.6717 23.0614 24.9067 22.9273 25.1657 22.8844C25.2971 22.8865 25.4264 22.9184 25.5437 22.9778C25.706 23.061 25.862 23.1562 26.0103 23.2624L26.3417 23.4958C26.5626 23.628 26.7959 23.7649 27.0417 23.9064C27.2874 24.048 27.5682 24.2036 27.884 24.3731C28.1951 24.5411 28.4339 24.6733 28.6003 24.7698C29.2226 25.0809 29.5586 25.3142 29.6083 25.4698C29.6449 25.5563 29.6647 25.6489 29.6667 25.7428Z" fill="#3F5078"/>
</svg>
