<svg width="40" height="40" viewBox="0 0 40 40" fill="none" xmlns="http://www.w3.org/2000/svg">
<circle cx="20" cy="20" r="20" fill="#A9E3E4"/>
<path d="M29.9854 14.4337C29.9854 14.4109 30.0011 14.3886 30.0001 14.366L23.8967 20.2469L29.9928 25.9399C29.9963 25.8993 29.9854 25.8583 29.9854 25.8167V14.4337Z" fill="#3F5078"/>
<path d="M22.9651 21.1519L20.4735 23.5491C20.3474 23.6704 20.1846 23.7312 20.0217 23.7312C19.8621 23.7312 19.7026 23.673 19.5774 23.5563L17.0926 21.2409L10.9568 27.1551C11.106 27.2087 11.2661 27.2504 11.4338 27.2504H28.6096C28.8586 27.2504 29.0922 27.1745 29.2953 27.0614L22.9651 21.1519Z" fill="#3F5078"/>
<path d="M20.0145 22.1821L29.329 13.2095C29.1181 13.0841 28.8727 13 28.6096 13H11.4338C11.0912 13 10.7772 13.133 10.5327 13.3359L20.0145 22.1821Z" fill="#3F5078"/>
<path d="M10 14.6523V25.8165C10 25.9447 10.0295 26.0683 10.0614 26.1864L16.1211 20.351L10 14.6523Z" fill="#3F5078"/>
</svg>
