<svg width="40" height="40" viewBox="0 0 40 40" fill="none" xmlns="http://www.w3.org/2000/svg">
<circle cx="20" cy="20" r="20" fill="#A9E3E4"/>
<path d="M12.1926 29.8988C12.1926 30.2305 12.4615 30.4994 12.7932 30.4994H27.2068C27.5385 30.4994 27.8074 30.2305 27.8074 29.8988V28.0571H12.1926V29.8988Z" fill="#3F5078"/>
<path d="M20.0001 14.8046C16.6885 14.8046 13.9944 17.4987 13.9944 20.8102V26.856H26.0057V20.8102C26.0057 17.4987 23.3116 14.8046 20.0001 14.8046Z" fill="#3F5078"/>
<path d="M19.9597 13.6034C20.2914 13.6034 20.5603 13.3345 20.5603 13.0028V10.6006C20.5603 10.2689 20.2914 10 19.9597 10C19.628 10 19.3591 10.2689 19.3591 10.6006V13.0028C19.3591 13.3345 19.628 13.6034 19.9597 13.6034Z" fill="#3F5078"/>
<path d="M15.2309 14.4523C15.3973 14.7404 15.7649 14.8374 16.0513 14.6721C16.3386 14.5063 16.437 14.1389 16.2711 13.8517L15.07 11.7713C14.9041 11.484 14.5368 11.3857 14.2496 11.5515C13.9623 11.7173 13.8639 12.0846 14.0298 12.3719L15.2309 14.4523Z" fill="#3F5078"/>
<path d="M13.2012 17.5518C13.3671 17.2645 13.2687 16.8972 12.9814 16.7314L10.901 15.5303C10.6137 15.3644 10.2464 15.4628 10.0806 15.7501C9.91471 16.0373 10.0131 16.4046 10.3004 16.5704L12.3808 17.7716C12.6668 17.9367 13.0347 17.8403 13.2012 17.5518Z" fill="#3F5078"/>
<path d="M23.9486 14.6721C24.2346 14.8372 24.6024 14.7407 24.769 14.4523L25.9701 12.3719C26.136 12.0846 26.0376 11.7173 25.7503 11.5515C25.4631 11.3856 25.0957 11.484 24.9299 11.7713L23.7288 13.8517C23.5629 14.1389 23.6613 14.5062 23.9486 14.6721Z" fill="#3F5078"/>
<path d="M29.9195 15.75C29.7536 15.4628 29.3864 15.3644 29.0991 15.5302L27.0187 16.7314C26.7314 16.8972 26.633 17.2645 26.7988 17.5518C26.9652 17.8399 27.3328 17.9369 27.6192 17.7716L29.6997 16.5704C29.9869 16.4046 30.0854 16.0373 29.9195 15.75Z" fill="#3F5078"/>
</svg>
