<svg xmlns="http://www.w3.org/2000/svg" width="24" height="25.263" viewBox="0 0 24 25.263">
  <g id="Iconly_Bold_Home" data-name="Iconly/Bold/Home" transform="translate(-2.5 -2)">
    <g id="Home" transform="translate(2.5 2)">
      <path id="Home-2" data-name="Home" d="M8.381,23.714V19.851a1.792,1.792,0,0,1,1.8-1.785H13.81a1.8,1.8,0,0,1,1.272.523,1.779,1.779,0,0,1,.527,1.262v3.862a1.532,1.532,0,0,0,.45,1.095,1.555,1.555,0,0,0,1.1.454h2.477A4.371,4.371,0,0,0,22.721,24,4.307,4.307,0,0,0,24,20.94v-11a3.123,3.123,0,0,0-1.131-2.4L14.443.854a3.913,3.913,0,0,0-4.988.09L1.221,7.534A3.125,3.125,0,0,0,0,9.937V20.929a4.35,4.35,0,0,0,4.366,4.334h2.42a1.555,1.555,0,0,0,1.561-1.538Z" transform="translate(0 0)" fill="#a9e3e4"/>
    </g>
  </g>
</svg>
