<svg xmlns="http://www.w3.org/2000/svg" width="26" height="26" viewBox="0 0 26 26">
  <g id="hospital" transform="translate(0)">
    <g id="Group_17" data-name="Group 17" transform="translate(0 9.465)">
      <path id="Path_36" data-name="Path 36" d="M3.4,186.392H.762a.762.762,0,0,0-.762.762v15.773H3.4Z" transform="translate(0 -186.392)" fill="#a9e3e4"/>
      <path id="Path_37" data-name="Path 37" d="M447.6,186.392h-2.643v16.535h3.4V187.154A.762.762,0,0,0,447.6,186.392Z" transform="translate(-422.357 -186.392)" fill="#a9e3e4"/>
    </g>
    <g id="Group_18" data-name="Group 18" transform="translate(4.928)">
      <path id="Path_38" data-name="Path 38" d="M0,0H5.09V2.649H0Z" transform="translate(9.396 20.91) rotate(90)" fill="#a9e3e4"/>
      <path id="Path_39" data-name="Path 39" d="M112.43,3.129h-2.4V.762A.762.762,0,0,0,109.27,0h-8.193a.762.762,0,0,0-.762.762V3.129H97.81a.762.762,0,0,0-.762.762V26h5.224V20.149a.762.762,0,0,1,.762-.762h4.173a.762.762,0,0,1,.762.762V26h5.224V3.89a.762.762,0,0,0-.762-.762ZM101.671,16.755h-.82a.762.762,0,0,1,0-1.523h.82a.762.762,0,0,1,0,1.523Zm0-3.047h-.82a.762.762,0,0,1,0-1.523h.82a.762.762,0,0,1,0,1.523Zm0-3.047h-.82a.762.762,0,0,1,0-1.523h.82a.762.762,0,0,1,0,1.523Zm3.859,6.094h-.82a.762.762,0,0,1,0-1.523h.82a.762.762,0,1,1,0,1.523Zm0-3.047h-.82a.762.762,0,0,1,0-1.523h.82a.762.762,0,1,1,0,1.523Zm0-3.047h-.82a.762.762,0,0,1,0-1.523h.82a.762.762,0,1,1,0,1.523Zm1.125-4.555h-.773v.773a.762.762,0,0,1-1.523,0V6.105h-.773a.762.762,0,1,1,0-1.523h.773V3.809a.762.762,0,0,1,1.523,0v.773h.773a.762.762,0,0,1,0,1.523Zm2.734,10.649h-.82a.762.762,0,0,1,0-1.523h.82a.762.762,0,0,1,0,1.523Zm0-3.047h-.82a.762.762,0,0,1,0-1.523h.82a.762.762,0,0,1,0,1.523Zm0-3.047h-.82a.762.762,0,0,1,0-1.523h.82a.762.762,0,0,1,0,1.523Z" transform="translate(-97.048)" fill="#a9e3e4"/>
    </g>
  </g>
</svg>
