<svg xmlns="http://www.w3.org/2000/svg" width="30" height="30" viewBox="0 0 30 30">
  <g id="Group_17492" data-name="Group 17492" transform="translate(-48 -1257)">
    <path id="Rectangle_1798" data-name="Rectangle 1798" d="M15,0A15,15,0,1,1,0,15,15,15,0,0,1,15,0Z" transform="translate(48 1257)" fill="#a9e3e4"/>
    <g id="hospital">
      <g id="Group_17" data-name="Group 17">
        <path id="Path_36" data-name="Path 36" d="M1.833,0H.41A.409.409,0,0,0,0,.409V8.9H1.833Z" transform="translate(55.991 1270.098)" fill="#3f5078"/>
        <path id="Path_37" data-name="Path 37" d="M1.424,0H0V8.9H1.833V.411A.41.41,0,0,0,1.424,0Z" transform="translate(68.154 1270.098)" fill="#3f5078"/>
      </g>
      <g id="Group_18" data-name="Group 18">
        <path id="Path_38" data-name="Path 38" d="M0,0H2.741V1.426H0Z" transform="translate(63.702 1276.26) rotate(90)" fill="#3f5078"/>
        <path id="Path_39" data-name="Path 39" d="M8.283,1.685H6.992V.41A.409.409,0,0,0,6.581,0H2.169A.409.409,0,0,0,1.76.41V1.685H.41A.41.41,0,0,0,0,2.094V14H2.812V10.85a.41.41,0,0,1,.41-.409h2.25a.41.41,0,0,1,.41.409V14H8.694V2.1a.41.41,0,0,0-.41-.41ZM2.489,9.021H2.048a.41.41,0,1,1,0-.82h.441a.41.41,0,0,1,0,.82Zm0-1.641H2.048a.41.41,0,1,1,0-.82h.441a.41.41,0,0,1,0,.82Zm0-1.641H2.048a.41.41,0,1,1,0-.82h.441a.41.41,0,0,1,0,.82ZM4.566,9.021H4.128a.41.41,0,1,1,0-.82h.441a.41.41,0,0,1,0,.82Zm0-1.641H4.128a.41.41,0,1,1,0-.82h.441a.41.41,0,0,1,0,.82Zm0-1.641H4.128a.41.41,0,1,1,0-.82h.441a.41.41,0,0,1,0,.82Zm.6-2.452H4.749V3.7a.41.41,0,0,1-.82,0V3.288H3.512a.41.41,0,0,1,0-.82h.417V2.051a.41.41,0,1,1,.82,0v.417h.417a.41.41,0,1,1,0,.82ZM6.639,9.021H6.2a.41.41,0,1,1,0-.82h.441a.41.41,0,1,1,0,.82Zm0-1.641H6.2a.41.41,0,1,1,0-.82h.441a.41.41,0,1,1,0,.82Zm0-1.641H6.2a.41.41,0,1,1,0-.82h.441a.41.41,0,1,1,0,.82Z" transform="translate(58.644 1265.001)" fill="#3f5078"/>
      </g>
    </g>
  </g>
</svg>
