<svg xmlns="http://www.w3.org/2000/svg" width="40" height="40" viewBox="0 0 40 40">
  <g id="Group_17054" data-name="Group 17054" transform="translate(-177 -881)">
    <rect id="Rectangle_131" data-name="Rectangle 131" width="40" height="40" rx="20" transform="translate(177 881)" fill="#a9e3e4"/>
    <g id="placeholder" transform="translate(106.581 891)">
      <path id="Path_76" data-name="Path 76" d="M169.983,83.186a3.8,3.8,0,1,0-3.8,3.8A3.8,3.8,0,0,0,169.983,83.186Zm-5.923.608V82.578h1.518V81.06h1.217v1.518h1.518v1.217h-1.518v1.518h-1.217V83.795Z" transform="translate(-75.768 -76.17)" fill="#3f5078"/>
      <path id="Path_77" data-name="Path 77" d="M97.419,7a7,7,0,1,0-14,0c0,4.414,5.509,9.224,7,10.445,1.491-1.221,7-6.03,7-10.445Zm-12.013.017a5.013,5.013,0,1,1,5.013,5.013,5.019,5.019,0,0,1-5.013-5.013Z" transform="translate(0 0)" fill="#3f5078"/>
      <path id="Path_78" data-name="Path 78" d="M114.917,417.32a5.217,5.217,0,0,0-1.359-.51,13.252,13.252,0,0,0-1.632-.289c-1.16,1.1-2.044,1.771-2.1,1.812l-.368.279-.368-.279c-.054-.041-.938-.715-2.1-1.812a13.265,13.265,0,0,0-1.632.289,5.217,5.217,0,0,0-1.359.51,1.141,1.141,0,0,0,0,2.135,5.215,5.215,0,0,0,1.359.51,19.866,19.866,0,0,0,8.2,0,5.215,5.215,0,0,0,1.359-.51,1.141,1.141,0,0,0,0-2.135Z" transform="translate(-19.041 -399.625)" fill="#3f5078"/>
    </g>
  </g>
</svg>
