<svg xmlns="http://www.w3.org/2000/svg" xmlns:xlink="http://www.w3.org/1999/xlink" width="32" height="32" viewBox="0 0 32 32">
  <defs>
    <clipPath id="clip-Artboard_3">
      <rect width="32" height="32"/>
    </clipPath>
  </defs>
  <g id="Artboard_3" data-name="Artboard – 3" clip-path="url(#clip-Artboard_3)">
    <g id="Group_17563" data-name="Group 17563" transform="translate(19825 -1044.307)">
      <g id="Untitled-1" transform="translate(-19483.9 900.107)">
        <path id="Path_3319" data-name="Path 3319" d="M-313.764,173.981v5.209h.752a.519.519,0,0,1,.521.521.519.519,0,0,1-.521.521h-5.094a.519.519,0,0,1-.521-.521.486.486,0,0,1,.521-.521h.695v-5.209H-318.8a.608.608,0,0,1-.521-.289c-.058-.116-.115-.116-.231-.116h-1.216a1.33,1.33,0,0,1-.811-.232l-2.952-2.084c-1.563-1.1-3.184-2.2-4.747-3.3a1.049,1.049,0,0,1-.231-1.621c.058-.058.058-.116.174-.058a19.913,19.913,0,0,1,3.357,2.026c.289.232.521.463.81.695a2.348,2.348,0,0,1,.29.521,1.277,1.277,0,0,0,.81.637,4.391,4.391,0,0,0,1.5.058,2.5,2.5,0,0,0,.289-.058c.058,0,.116,0,.116.058.463.347.926.637,1.389.984a.383.383,0,0,0,.405.116h.868c0-.174,0-.231-.116-.347-.521-.347-1.042-.695-1.621-1.042.29-.058.637-.174.926-.231.463-.116.926-.29,1.389-.405.058,0,.174-.058.232-.058a6.013,6.013,0,0,0,2.026-.174,1.119,1.119,0,0,0,.81-.637c.058-.058.116-.116.174-.116h2.836a5.361,5.361,0,0,1,1.331.232l3.82,1.042a1.045,1.045,0,0,1,.868.926,1.082,1.082,0,0,1-1.158,1.215c-.521-.116-1.1-.289-1.62-.405-.695-.174-1.389-.405-2.084-.579h-.058c0,.174.058.347.058.521h.347a3.418,3.418,0,0,1,1.5.231c1.042.463,2.142.868,3.241,1.331a1.311,1.311,0,0,1,.81.926,1.064,1.064,0,0,1-.984,1.216,1.567,1.567,0,0,1-.868-.174c-1.042-.405-2.084-.868-3.126-1.273a2.17,2.17,0,0,0-.636-.058h-.058c-.174-.058-.289.058-.405.231a.8.8,0,0,1-.695.232A8.981,8.981,0,0,1-313.764,173.981Zm-1.621,3.357h0a.212.212,0,0,0,.058.174.176.176,0,0,0,.232,0,.286.286,0,0,0,.058-.174,1.528,1.528,0,0,0-.289-.347h0c.058.116.174.174.232.289.058.058.058.174-.058.174a.213.213,0,0,1-.174-.058C-315.385,177.454-315.385,177.4-315.385,177.338Zm1.505-1.621c-.058.058-.058.116-.116.116-.174.174-.116.289.116.405l-.174-.174c-.116-.116,0-.174.115-.174C-313.88,175.891-313.88,175.833-313.88,175.717Zm-.926.926v.174c.058.058.116.174.174.116.116,0,.174-.116.232-.116v-.058c-.116.058-.174.231-.29.116C-314.748,176.817-314.748,176.759-314.806,176.643Z" transform="translate(-4.341 -7.606)" fill="#3f5078"/>
        <path id="Path_3320" data-name="Path 3320" d="M-305.9,163.828a2.463,2.463,0,0,0-.637-.116h-3.241a1.223,1.223,0,0,0-.405-1.158,1.3,1.3,0,0,0-1.216-.232,7.644,7.644,0,0,0,.347-2.778c-.231.174-.521.347-.81.521a4.583,4.583,0,0,1-1.968.579,6.3,6.3,0,0,1-1.042.058.889.889,0,0,1-.926-.81.853.853,0,0,1,.868-.868,9.469,9.469,0,0,0,1.273-.116,2.886,2.886,0,0,0,1.968-1.215,5.81,5.81,0,0,1,.926-1.1,7.928,7.928,0,0,1,1.157-.752c.174-.058.231-.058.347.058a2.673,2.673,0,0,1,.4.405c.116-.174.29-.289.405-.463.058-.058.116-.116.232-.058a4.566,4.566,0,0,1,2.141,1.447,6.48,6.48,0,0,1,1.505,3.531c.058.579.116,1.158.116,1.736a.819.819,0,0,1-.752.81.8.8,0,0,1-.926-.695c-.058-.231,0-.463-.058-.695a8.692,8.692,0,0,0-.289-2.142c-.058-.116-.116-.289-.174-.405h-.058v.29a11.153,11.153,0,0,0,.058,1.389c.058.463.231.926.289,1.389A4.9,4.9,0,0,1-305.9,163.828Zm-1.158-.347h0q.174-.087.174-.174a.974.974,0,0,0-.174-1.216,1.032,1.032,0,0,0-1.273-.174.873.873,0,0,0-.521.81.777.777,0,0,0,.405.81,1.436,1.436,0,0,0,.984,0,.674.674,0,0,0,.289-.926.556.556,0,0,0-.521-.347.556.556,0,0,0-.521.347.424.424,0,0,0,.347.637c.115,0,.289-.116.289-.232,0-.058-.058-.116-.116-.174a.125.125,0,0,0-.116.116c0,.058-.058.116-.058.174a.213.213,0,0,1-.174-.058.272.272,0,0,1-.058-.347.385.385,0,0,1,.289-.232.488.488,0,0,1,.405.232.673.673,0,0,1-.116.579.613.613,0,0,1-.752.058.76.76,0,0,1-.058-1.216,1,1,0,0,1,.984-.058.776.776,0,0,1,.347.926A.615.615,0,0,1-307.06,163.481Z" transform="translate(-10.235 -3.184)" fill="#3f5078"/>
        <path id="Path_3321" data-name="Path 3321" d="M-336.627,171.911a2.813,2.813,0,0,1,.695.058,1.768,1.768,0,0,1,1.216.926l.174.174a.617.617,0,0,1,.232.926.654.654,0,0,1-.868.231.644.644,0,0,1-.174-.926v-.174a.834.834,0,0,0-.752-.463h-1.679a.98.98,0,0,0-.81.521.7.7,0,0,1,.174.579.564.564,0,0,1-.579.463.712.712,0,0,1-.637-.405.633.633,0,0,1,.231-.752c.116-.116.231-.174.29-.347a1.646,1.646,0,0,1,1.62-.81h.289V153.042h-2.257a.631.631,0,0,1-.637-.579h0c.116-.058.231,0,.231.116a.318.318,0,0,0,.347.231h2.315V152h.637v.868c.231,0,.463.058.695.058h.81c.058,0,.116,0,.174-.116a.223.223,0,0,1,.405,0c.058.058.116.116.174.058a.447.447,0,0,0,.463-.405h.232c0,.405-.232.579-.753.637v.174h.347a.486.486,0,0,1,.521.521v2.315a.426.426,0,0,1-.463.463h-.174v.405c0,.116-.058.289-.058.405a11.053,11.053,0,0,1-.174,1.273v.579c0,.174.058.232.232.289a27.957,27.957,0,0,1,2.894,1.563,12.621,12.621,0,0,1,1.968,1.505,4.817,4.817,0,0,1,.463.695.522.522,0,0,0,.347.347,2.93,2.93,0,0,0,.752.116,7.33,7.33,0,0,0,1.968-.174,14.24,14.24,0,0,0,3.357-1.1c.231-.116.463-.289.752-.405.058.058.058.116.174.174a5.367,5.367,0,0,1-.463.289,11.788,11.788,0,0,1-2.72.984c-.637.174-1.331.29-2.026.405a4.1,4.1,0,0,1-1.678-.058,1.054,1.054,0,0,1-.753-.637,2.57,2.57,0,0,0-.463-.637,8.026,8.026,0,0,0-1.794-1.331c-.926-.521-1.853-1.042-2.778-1.505a.72.72,0,0,1-.463-.695c0-.347.115-.752.115-1.1,0-.231.116-.463.058-.694s0-.521-.058-.753h-.29v.289h-.347v-.289h-.174c-.289-.058-.463-.174-.463-.463v-2.315a.532.532,0,0,1,.521-.579h.347v-.231h-.405c-.115,0-.289.058-.347-.116,0,.058,0,.058.058.116h-.868C-336.627,159.351-336.627,165.66-336.627,171.911Zm-.463-18c-.116.058-.058.174,0,.232s.174.116.232,0a.287.287,0,0,0,.058-.174,1.528,1.528,0,0,0-.289-.347l-.058.058c.058.116.174.174.232.289v.174l-.116.058a.124.124,0,0,1-.116-.116A.448.448,0,0,0-337.09,153.91Zm.058,17.075h0a1.257,1.257,0,0,0,.174.289.109.109,0,0,1,0,.174l-.116.058c-.058-.058-.058-.116-.116-.174v-.116a.259.259,0,0,0,0,.29.176.176,0,0,0,.231,0,.176.176,0,0,0,0-.232C-336.917,171.159-336.975,171.1-337.032,170.985Z" transform="translate(0 -1.601)" fill="#3f5078"/>
        <path id="Path_3322" data-name="Path 3322" d="M-305.216,148.2a2.075,2.075,0,0,1,2.084,2.084,2.075,2.075,0,0,1-2.084,2.084,2.075,2.075,0,0,1-2.084-2.084A2.075,2.075,0,0,1-305.216,148.2Zm-.058,3.473h0c0,.058-.058.116,0,.174s.116.116.174.116c.116,0,.174-.116.231-.116v-.058c-.115.058-.174.231-.347.116A.347.347,0,0,1-305.274,151.673Zm1.447-1.505a.8.8,0,0,1,.174.232c-.174-.116,0-.232.058-.347A.3.3,0,0,0-303.827,150.168Zm-.521.753a.2.2,0,0,1-.058-.116c-.058.058-.174.174-.116.232,0,.116.116.174.174.289l.058-.058-.115-.116c0-.058-.058-.116-.058-.174A.2.2,0,0,1-304.348,150.921Zm.347-.579c-.058.058,0,.116,0,.232.058.058.058.116.115.231a.108.108,0,0,0,0-.174C-303.943,150.515-303.943,150.457-304,150.342Zm-.695.926a.176.176,0,0,0-.232,0,.177.177,0,0,0,0,.231c0-.058,0-.174.058-.174C-304.869,151.268-304.753,151.326-304.7,151.268Z" transform="translate(-13.815 0)" fill="#3f5078"/>
        <path id="Path_3323" data-name="Path 3323" d="M-321.549,162.026a2.013,2.013,0,0,1-2.026,2.026,2.013,2.013,0,0,1-2.026-2.026A2.013,2.013,0,0,1-323.574,160,1.978,1.978,0,0,1-321.549,162.026Z" transform="translate(-6.107 -4.97)" fill="#3f5078"/>
        <path id="Path_3324" data-name="Path 3324" d="M-317.65,167.189c-.232-.116-.232-.347-.174-.579a.879.879,0,0,1,.579-.752.907.907,0,0,1,.926.174,3.94,3.94,0,0,0,2.257.926,7.952,7.952,0,0,0,2.026-.116.846.846,0,0,1,1.042.695.812.812,0,0,1-.695,1.042l-1.216.174a2.387,2.387,0,0,0,.637-.405c.174-.116.174-.232.116-.347-.116-.174-.232-.232-.405-.116a9.482,9.482,0,0,1-1.737.81h-.174a5.944,5.944,0,0,1-2.778-1.158c-.231-.058-.289-.232-.405-.347.058-.116.058-.116.347.058-.058-.058-.116-.116-.116-.174,0,0-.058-.116,0-.116s.058-.058.116,0c.058,0,.058.058.115.058a.124.124,0,0,0-.115-.116c-.174-.116-.174.174-.347.174Zm.752-.752a.8.8,0,0,1,.174-.231c-.116.058-.174.116-.289.116C-316.955,166.321-316.955,166.379-316.9,166.437Z" transform="translate(-9.369 -7.413)" fill="#3f5078"/>
        <path id="Path_3325" data-name="Path 3325" d="M-318.809,167.147h.174a7.384,7.384,0,0,0,2.373,1.1c.058,0,.174.058.232.058a.2.2,0,0,0-.116.058c-.521.116-1.042.289-1.62.405a.348.348,0,0,1-.232-.058c-.405-.232-.753-.521-1.157-.753a1.84,1.84,0,0,1-.058-3.126,1.738,1.738,0,0,1,1.563-.289c.232.116.405.289.637.405a1.452,1.452,0,0,1,.405.232,12.412,12.412,0,0,1,1.1.753.437.437,0,0,1-.232-.058c-.347-.174-.752-.289-1.1-.463a.8.8,0,0,1-.231-.174,1.616,1.616,0,0,0-1.042-.347,1.125,1.125,0,0,0-.926.463,1.364,1.364,0,0,0-.115,1.331.213.213,0,0,0,.058.174C-318.983,167.089-318.925,167.147-318.809,167.147Zm-.463.289c0,.116.058.116.116.116a.439.439,0,0,0,.231-.116v-.058c-.116.058-.231.174-.347.058-.058-.058-.058-.116.058-.174v.058a.057.057,0,0,0,.058.058h.058a.213.213,0,0,0-.058-.174h-.058c-.058.058-.058.116-.116.116C-319.388,167.378-319.33,167.378-319.272,167.436Z" transform="translate(-8.441 -6.85)" fill="#3f5078"/>
        <path id="Path_3326" data-name="Path 3326" d="M-328.2,165.568a1.276,1.276,0,0,0,.463.058.212.212,0,0,0,.173-.058.62.62,0,0,1,.811-.058c.521.347,1.1.695,1.62,1.042a.717.717,0,0,1,.232.868c0,.058-.058.058-.058.116.868.579,1.736,1.216,2.6,1.852a3.752,3.752,0,0,1-1.158-.116.522.522,0,0,1-.347-.347,1.891,1.891,0,0,0-.637-.868,12.363,12.363,0,0,0-2.257-1.621,11.939,11.939,0,0,0-1.447-.868Z" transform="translate(-5.012 -7.239)" fill="#3f5078"/>
        <path id="Path_3327" data-name="Path 3327" d="M-317.5,167.97v-.116c.116,0,.116-.289.347-.174a.124.124,0,0,1,.116.116c-.058,0-.058-.058-.116-.058h-.116v.116c.058.058.116.116.116.174-.289-.174-.289-.174-.347-.058Z" transform="translate(-9.519 -8.193)" fill="#3f5078"/>
        <path id="Path_3328" data-name="Path 3328" d="M-318.026,168.932c-.116,0-.174-.116-.174-.231h0c.058,0,.116,0,.232.116A.2.2,0,0,1-318.026,168.932Z" transform="translate(-9.224 -8.634)" fill="#3f5078"/>
        <path id="Path_3329" data-name="Path 3329" d="M-304.919,185.189c0,.058,0,.116.058.116a.213.213,0,0,0,.174.058c.058-.058.116-.116.058-.174-.058-.116-.174-.174-.232-.289h0a1.528,1.528,0,0,1,.289.347c0,.058,0,.174-.058.174a.177.177,0,0,1-.232,0,.438.438,0,0,1-.058-.232Z" transform="translate(-14.807 -15.458)" fill="#3f5078"/>
        <path id="Path_3330" data-name="Path 3330" d="M-302.428,182.6v.232c-.174,0-.231.058-.115.174l.174.174c-.232-.116-.29-.232-.116-.405C-302.486,182.716-302.428,182.658-302.428,182.6Z" transform="translate(-15.793 -14.489)" fill="#3f5078"/>
        <path id="Path_3331" data-name="Path 3331" d="M-303.9,184.2c.058.116.058.174.116.231.116.116.174-.058.289-.116v.058a.438.438,0,0,1-.231.116c-.058,0-.116-.058-.174-.116Z" transform="translate(-15.247 -15.163)" fill="#3f5078"/>
        <path id="Path_3332" data-name="Path 3332" d="M-301.964,167.9a1.075,1.075,0,0,0,.116-.405.855.855,0,0,0-.347-.926.88.88,0,0,0-.984.058.76.76,0,0,0,.058,1.216.607.607,0,0,0,.753-.058.713.713,0,0,0,.116-.579.388.388,0,0,0-.405-.232.3.3,0,0,0-.289.232.272.272,0,0,0,.058.347.213.213,0,0,0,.174.058c.058,0,.058-.116.058-.174s0-.116.116-.116c.058,0,.115.116.115.174,0,.116-.174.232-.289.232a.424.424,0,0,1-.347-.637.556.556,0,0,1,.521-.347.556.556,0,0,1,.521.347.659.659,0,0,1-.29.926,1.434,1.434,0,0,1-.984,0,.876.876,0,0,1-.405-.81.874.874,0,0,1,.521-.81,1.032,1.032,0,0,1,1.273.174.973.973,0,0,1,.174,1.216c-.058,0-.115.058-.231.116Z" transform="translate(-15.331 -7.607)" fill="#3f5078"/>
        <path id="Path_3333" data-name="Path 3333" d="M-334.928,155.047v.116c.058.058.058.116.116.116,0,0,.116,0,.116-.058v-.174c-.058-.116-.174-.174-.232-.289l.058-.058a1.523,1.523,0,0,1,.289.347c0,.058,0,.174-.058.174a.176.176,0,0,1-.232,0C-334.986,155.163-334.986,155.105-334.928,155.047Z" transform="translate(-2.162 -2.738)" fill="#3f5078"/>
        <path id="Path_3334" data-name="Path 3334" d="M-334.863,184.8c.058.116.174.174.231.289.058.058.116.174,0,.231a.176.176,0,0,1-.231,0c-.116-.058-.116-.174,0-.289v.116c.058.058.058.116.116.174,0,0,.115,0,.115-.058v-.174a.385.385,0,0,1-.231-.289Z" transform="translate(-2.169 -15.415)" fill="#3f5078"/>
        <path id="Path_3335" data-name="Path 3335" d="M-316.284,166.731l-.116-.116c.116-.058.173-.116.289-.116A.794.794,0,0,0-316.284,166.731Z" transform="translate(-9.982 -7.708)" fill="#3f5078"/>
        <path id="Path_3336" data-name="Path 3336" d="M-318.785,169.432c-.058-.058-.115-.058-.115-.116a.124.124,0,0,1,.115-.116h.058c0,.058.058.116.058.174h-.058a.057.057,0,0,0-.058-.058v-.058a.109.109,0,0,0,0,.174Z" transform="translate(-8.929 -8.845)" fill="#3f5078"/>
        <path id="Path_3337" data-name="Path 3337" d="M-318.7,169.516c.116.116.231,0,.289-.116v.058a.438.438,0,0,1-.231.116c0,.058-.058.058-.058-.058Z" transform="translate(-9.013 -8.929)" fill="#3f5078"/>
        <rect id="Rectangle_1811" data-name="Rectangle 1811" width="0.463" height="0.926" transform="translate(-337.206 151.904)" fill="#3f5078"/>
        <rect id="Rectangle_1812" data-name="Rectangle 1812" width="0.521" height="0.984" transform="translate(-337.206 169.153)" fill="#3f5078"/>
        <rect id="Rectangle_1813" data-name="Rectangle 1813" width="2.663" height="3.647" transform="translate(-320.884 167.243)" fill="#3f5078"/>
        <rect id="Rectangle_1814" data-name="Rectangle 1814" width="2.547" height="2.315" transform="translate(-319.378 158.156)" fill="#3f5078"/>
        <circle id="Ellipse_128" data-name="Ellipse 128" cx="1.505" cy="1.505" r="1.505" transform="translate(-320.189 149.01)" fill="#3f5078"/>
        <path id="Path_3338" data-name="Path 3338" d="M-318.7,168.3a1.433,1.433,0,0,0,.463.521c.231.174-.347.347-.347.347l-.521-.463Z" transform="translate(-8.845 -8.466)" fill="#3f5078"/>
        <path id="Path_3339" data-name="Path 3339" d="M-317.9,167.7a1.216,1.216,0,0,0,.695.81C-316.569,168.8-317.9,167.7-317.9,167.7Z" transform="translate(-9.35 -8.213)" fill="#3f5078"/>
      </g>
    </g>
  </g>
</svg>
