<svg xmlns="http://www.w3.org/2000/svg" width="28" height="27.771" viewBox="0 0 28 27.771">
  <path id="syringe" d="M4.395,28.936a.466.466,0,1,1-.66.66L.136,26a.467.467,0,1,1,.66-.66l.495.495,2.7-2.7a.467.467,0,0,1,.66,0l2.174,2.174a.467.467,0,0,1,0,.66l-2.7,2.7ZM27.86,2.1a.467.467,0,0,0-.66,0L19.763,9.535l-.17-.17a1.562,1.562,0,0,0-2.209,0l-.08.08a.466.466,0,0,0,0,.66c.618.615,1.933,1.931,2.548,2.548a.466.466,0,0,0,.66,0l.081-.081a1.561,1.561,0,0,0,0-2.208l-.17-.17L27.86,2.757a.467.467,0,0,0,0-.66ZM19.412,13.532,16.4,10.525a1.4,1.4,0,0,0-1.98,0L4.552,20.4l-.57-.57a.466.466,0,1,0-.66.66L9.47,26.635a.466.466,0,1,0,.66-.66l-.57-.57,2.567-2.567a.467.467,0,0,0,0-.66l-1.064-1.064a.467.467,0,0,1,.66-.66l1.064,1.064a.467.467,0,0,0,.66,0l2.536-2.536a.467.467,0,0,0,0-.66l-1.647-1.647a.467.467,0,0,1,.01-.67.48.48,0,0,1,.663.024l1.633,1.633a.467.467,0,0,0,.66,0l2.13-2.13a1.4,1.4,0,0,0-.021-2ZM27.492,10.6,26.1,8.879a.467.467,0,0,0-.726,0l-1.4,1.725a2.262,2.262,0,1,0,3.517,0Z" transform="translate(28 29.732) rotate(180)" fill="#3f5078"/>
</svg>
