<svg xmlns="http://www.w3.org/2000/svg" xmlns:xlink="http://www.w3.org/1999/xlink" width="754" height="700.981" viewBox="0 0 754 700.981">
  <defs>
    <linearGradient id="linear-gradient" x1="1" y1="0.5" x2="0" y2="0.5" gradientUnits="objectBoundingBox">
      <stop offset="0" stop-color="#fff"/>
      <stop offset="1" stop-color="#cbdceb"/>
    </linearGradient>
    <linearGradient id="linear-gradient-2" x1="0.593" y1="0.058" x2="0.25" y2="1.689" xlink:href="#linear-gradient"/>
  </defs>
  <g id="Group_17502" data-name="Group 17502" transform="translate(-945 -3341)">
    <circle id="Ellipse_120" data-name="Ellipse 120" cx="27.5" cy="27.5" r="27.5" transform="translate(1000 3451)" fill="#a9e3e4"/>
    <path id="Polygon_4" data-name="Polygon 4" d="M22.3,2.768a2,2,0,0,1,3.407,0L46.124,35.952A2,2,0,0,1,44.421,39H3.579a2,2,0,0,1-1.7-3.048Z" transform="translate(1699 3694.448) rotate(98)" fill="#a9e3e4"/>
    <g id="Ellipse_121" data-name="Ellipse 121" transform="translate(945 3758)" fill="none" stroke="#3f5078" stroke-width="3">
      <circle cx="15" cy="15" r="15" stroke="none"/>
      <circle cx="15" cy="15" r="13.5" fill="none"/>
    </g>
    <g id="Ellipse_123" data-name="Ellipse 123" transform="translate(1648 3889)" fill="none" stroke="#3f5078" stroke-width="3">
      <circle cx="15" cy="15" r="15" stroke="none"/>
      <circle cx="15" cy="15" r="13.5" fill="none"/>
    </g>
    <path id="Polygon_5" data-name="Polygon 5" d="M22.3,2.768a2,2,0,0,1,3.407,0L46.124,35.952A2,2,0,0,1,44.421,39H3.579a2,2,0,0,1-1.7-3.048Z" transform="translate(1289.65 3994.448) rotate(98)" fill="#a9e3e4"/>
    <g id="OBJECTS" transform="translate(990 3341)">
      <g id="Group_17252" data-name="Group 17252">
        <g id="Group_17136" data-name="Group 17136" transform="translate(410.928 392.728)">
          <path id="Path_2899" data-name="Path 2899" d="M164.067,329.521s84.8-37.885,154.892-32.348c63.53,4.954,73.585,14.134,104.913,10.054-8.014,20.108-42.4,86.7-112.927,111.032-70.67,24.188-139.155,12.094-165.383-8.014C119.042,390.138,147.893,337.681,164.067,329.521Z" transform="translate(-134.8 -296.621)" fill="#a9e3e4"/>
          <path id="Path_2900" data-name="Path 2900" d="M383.133,313S262.047,365.893,153.2,355.4" transform="translate(-120.873 -289.133)" fill="none" stroke="#fff" stroke-miterlimit="10" stroke-width="1.226"/>
          <line id="Line_7" data-name="Line 7" x1="43.422" y1="17.485" transform="translate(189.988 48.783)" fill="none" stroke="#fff" stroke-miterlimit="10" stroke-width="1.226"/>
          <path id="Path_2901" data-name="Path 2901" d="M243.065,314.3c0,1.166-21.565,33.659-21.565,33.659" transform="translate(-80.326 -288.539)" fill="none" stroke="#fff" stroke-miterlimit="10" stroke-width="1.226"/>
        </g>
        <g id="Group_17137" data-name="Group 17137" transform="translate(148.125 277.732)">
          <path id="Path_2902" data-name="Path 2902" d="M557.612,371.28s-25.937-66.882-67.465-102c-37.594-31.765-48.085-32.348-63.093-51.582-6.557,15.445-23.9,70.67,1.6,122.4,25.645,51.728,69.8,82.327,95.3,85.533C549.306,428.982,562.129,384.54,557.612,371.28Z" transform="translate(-415.187 -217.7)" fill="#a9e3e4"/>
          <path id="Path_2903" data-name="Path 2903" d="M429.4,232.7s37.594,95,103.31,148.48" transform="translate(-410.102 -210.843)" fill="none" stroke="#fff" stroke-miterlimit="10" stroke-width="0.948"/>
          <line id="Line_8" data-name="Line 8" x2="33.368" y2="14.134" transform="translate(12.158 60.762)" fill="none" stroke="#fff" stroke-miterlimit="10" stroke-width="0.948"/>
          <path id="Path_2904" data-name="Path 2904" d="M469.911,270.6c-.583.583-6.411,30.162-6.411,30.162" transform="translate(-396.991 -193.518)" fill="none" stroke="#fff" stroke-miterlimit="10" stroke-width="0.948"/>
        </g>
        <g id="Group_17138" data-name="Group 17138" transform="translate(395.171 211.87)">
          <path id="Path_2905" data-name="Path 2905" d="M170.759,408.553s20.108-108.993,90.779-159.409S380.585,198.728,422.987,172.5c0,0,4.08,42.4-24.188,106.953s-62.51,117.007-127.061,145.275C207.188,452.85,170.759,408.553,170.759,408.553Z" transform="translate(-170.759 -172.5)" fill="#3f5078"/>
          <path id="Path_2906" data-name="Path 2906" d="M373.017,189.1S256.01,328.255,183.3,390.911" transform="translate(-138.858 -164.912)" fill="none" stroke="#fff" stroke-miterlimit="10" stroke-width="1.226"/>
          <line id="Line_9" data-name="Line 9" x1="49.396" y2="6.12" transform="translate(169.609 93.693)" fill="none" stroke="#fff" stroke-miterlimit="10" stroke-width="1.226"/>
          <line id="Line_10" data-name="Line 10" x2="13.114" y2="55.516" transform="translate(121.087 80.579)" fill="none" stroke="#fff" stroke-miterlimit="10" stroke-width="1.226"/>
          <line id="Line_11" data-name="Line 11" x1="61.49" y1="3.06" transform="translate(86.844 186.511)" fill="none" stroke="#fff" stroke-miterlimit="10" stroke-width="1.226"/>
        </g>
        <g id="Group_17139" data-name="Group 17139" transform="translate(0 354.959)">
          <path id="Path_2907" data-name="Path 2907" d="M694.739,387.707s-43.131-78.393-110.158-99.23C517.553,267.786,480.4,280.026,441.2,270.7c0,0,7.723,33.514,45.754,75.916s77.664,73.876,134.492,79.122S694.739,387.707,694.739,387.707Z" transform="translate(-441.2 -270.7)" fill="#3f5078"/>
          <path id="Path_2908" data-name="Path 2908" d="M466.3,280.3s125.167,77.082,196.711,106.515" transform="translate(-446.046 -266.312)" fill="none" stroke="#fff" stroke-miterlimit="10" stroke-width="0.991"/>
          <line id="Line_12" data-name="Line 12" y1="7.868" x2="39.488" transform="translate(49.542 55.662)" fill="none" stroke="#fff" stroke-miterlimit="10" stroke-width="0.991"/>
          <line id="Line_13" data-name="Line 13" x2="4.08" y2="45.899" transform="translate(121.232 28.56)" fill="none" stroke="#fff" stroke-miterlimit="10" stroke-width="0.991"/>
          <line id="Line_14" data-name="Line 14" y1="17.923" x2="46.336" transform="translate(128.081 101.124)" fill="none" stroke="#fff" stroke-miterlimit="10" stroke-width="0.991"/>
        </g>
        <g id="Group_17251" data-name="Group 17251" transform="translate(113.072)">
          <g id="Group_17144" data-name="Group 17144" transform="translate(24.716 339.841)">
            <g id="Group_17140" data-name="Group 17140" transform="translate(38.723 133.691)">
              <path id="Path_2909" data-name="Path 2909" d="M301.266,418.119c-20.983,12.094-21.128,31.765-.291,44L399.038,519.1c20.837,12.094,54.933,12.094,75.916,0L573.6,462.124c20.982-12.094,21.128-31.765.291-44l-98.064-56.973c-20.837-12.094-54.933-12.094-75.916,0Z" transform="translate(-285.437 -352.075)" fill="url(#linear-gradient)"/>
            </g>
            <g id="Group_17143" data-name="Group 17143">
              <g id="Group_17141" data-name="Group 17141" transform="translate(38.723 107.317)">
                <path id="Path_2910" data-name="Path 2910" d="M301.266,400.019c-20.983,12.094-21.128,31.765-.291,44.005L399.038,501c20.837,12.094,54.933,12.094,75.916,0L573.6,444.024c20.982-12.094,21.128-31.765.291-44.005l-98.064-56.973c-20.837-12.094-54.933-12.094-75.916,0Z" transform="translate(-285.437 -333.975)" fill="none" stroke="#a9e3e4" stroke-miterlimit="10" stroke-width="0.926"/>
              </g>
              <g id="Group_17142" data-name="Group 17142">
                <path id="Path_2911" data-name="Path 2911" d="M278.424,363.931,401.4,435.476c26.228,15.3,68.776,15.3,95.15,0L620.41,363.931c13.26-7.723,19.963-17.777,19.817-27.831v14.28c0,10.054-6.557,20.108-19.817,27.831L496.554,449.755c-26.374,15.3-69.067,15.3-95.15,0L278.424,378.211c-12.968-7.577-19.525-17.485-19.525-27.394v-14.28C258.9,346.446,265.455,356.354,278.424,363.931Z" transform="translate(-258.843 -225.687)" fill="#3f5078"/>
                <path id="Path_2912" data-name="Path 2912" d="M278.734,343.344c-26.374,15.3-26.52,39.925-.291,55.225l122.981,71.545c26.228,15.3,68.776,15.3,95.15,0l123.855-71.545c26.374-15.3,26.52-39.925.291-55.225L497.739,271.8c-26.228-15.3-68.776-15.3-95.15,0Z" transform="translate(-258.862 -260.325)" fill="url(#linear-gradient-2)"/>
              </g>
            </g>
          </g>
          <g id="Group_17149" data-name="Group 17149" transform="translate(0)">
            <g id="Group_17146" data-name="Group 17146">
              <path id="Path_2913" data-name="Path 2913" d="M432.174,108.992,569,30.016c5.974-3.351,11.22-3.789,15.154-1.457l11.365,6.557c-3.934-2.186-9.18-1.894-15.154,1.457L443.539,115.549c-11.8,6.848-21.274,23.168-21.274,36.719l.146,47.211c0,6.7,2.331,11.366,6.266,13.7l-11.366-6.557c-3.788-2.186-6.12-6.994-6.266-13.7l-.146-47.211C410.9,132.305,420.371,115.84,432.174,108.992Z" transform="translate(-410.9 -27.097)" fill="#3f5078"/>
              <g id="Group_17145" data-name="Group 17145" transform="translate(11.22 6.6)">
                <path id="Path_2914" data-name="Path 2914" d="M427.874,113.478c-11.8,6.848-21.274,23.168-21.274,36.719l.146,47.211c0,13.551,9.617,18.943,21.42,12.24l136.823-78.976c11.8-6.848,21.274-23.168,21.274-36.719l-.146-47.211c0-13.551-9.617-18.943-21.42-12.24Z" transform="translate(-406.6 -31.626)" fill="#a9e3e4"/>
              </g>
            </g>
            <g id="Group_17148" data-name="Group 17148" transform="translate(0 125.458)">
              <path id="Path_2915" data-name="Path 2915" d="M432.174,195.092,569,116.116c5.974-3.351,11.22-3.789,15.154-1.457l11.365,6.557c-3.934-2.186-9.18-1.894-15.154,1.457L443.539,201.649c-11.8,6.848-21.274,23.168-21.274,36.719l.146,47.211c0,6.7,2.331,11.366,6.266,13.7l-11.366-6.557c-3.788-2.186-6.12-6.994-6.266-13.7l-.146-47.211C410.9,218.405,420.371,201.94,432.174,195.092Z" transform="translate(-410.9 -113.197)" fill="#3f5078"/>
              <g id="Group_17147" data-name="Group 17147" transform="translate(11.22 6.6)">
                <path id="Path_2916" data-name="Path 2916" d="M427.874,199.578c-11.8,6.848-21.274,23.168-21.274,36.719l.146,47.211c0,13.551,9.617,18.943,21.42,12.24l136.823-78.976c11.8-6.848,21.274-23.168,21.274-36.719l-.146-47.211c0-13.551-9.617-18.943-21.42-12.24Z" transform="translate(-406.6 -117.726)" fill="#a9e3e4"/>
              </g>
            </g>
          </g>
          <g id="Group_17194" data-name="Group 17194" transform="translate(30.015 93.374)">
            <g id="Group_17150" data-name="Group 17150" transform="translate(6.558 69.1)">
              <path id="Path_2917" data-name="Path 2917" d="M512.3,138.6a.508.508,0,0,0,.291.146C512.446,138.746,512.446,138.6,512.3,138.6Z" transform="translate(-512.3 -138.6)" fill="#a6d0f4"/>
            </g>
            <g id="Group_17151" data-name="Group 17151" transform="translate(35.992 62.105)">
              <path id="Path_2918" data-name="Path 2918" d="M492.1,134.091l.291-.291C492.391,133.946,492.246,133.946,492.1,134.091Z" transform="translate(-492.1 -133.8)" fill="#a6d0f4"/>
            </g>
            <g id="Group_17152" data-name="Group 17152" transform="translate(26.084 69.391)">
              <path id="Path_2919" data-name="Path 2919" d="M499.1,138.8Z" transform="translate(-499.1 -138.8)" fill="#a6d0f4"/>
            </g>
            <g id="Group_17153" data-name="Group 17153" transform="translate(25.209 69.537)">
              <path id="Path_2920" data-name="Path 2920" d="M499.4,139.046c.146,0,.291-.146.437-.146A.535.535,0,0,1,499.4,139.046Z" transform="translate(-499.4 -138.9)" fill="#a6d0f4"/>
            </g>
            <g id="Group_17154" data-name="Group 17154" transform="translate(8.453 70.265)">
              <path id="Path_2921" data-name="Path 2921" d="M511,139.4c.146,0,.146.146.291.146C511.146,139.546,511,139.546,511,139.4Z" transform="translate(-511 -139.4)" fill="#a6d0f4"/>
            </g>
            <g id="Group_17181" data-name="Group 17181">
              <g id="Group_17155" data-name="Group 17155" transform="translate(46.046 50.011)">
                <path id="Path_2922" data-name="Path 2922" d="M485.2,125.937c.146-.146.146-.291.291-.437C485.346,125.646,485.346,125.791,485.2,125.937Z" transform="translate(-485.2 -125.5)" fill="#a6d0f4"/>
              </g>
              <g id="Group_17156" data-name="Group 17156" transform="translate(48.523 44.037)">
                <path id="Path_2923" data-name="Path 2923" d="M482.9,123.731a17.384,17.384,0,0,0,1.166-2.331C483.774,122.129,483.337,122.857,482.9,123.731Z" transform="translate(-482.9 -121.4)" fill="#a6d0f4"/>
              </g>
              <g id="Group_17157" data-name="Group 17157" transform="translate(44.298 50.886)">
                <path id="Path_2924" data-name="Path 2924" d="M485.6,128.286a18.987,18.987,0,0,0,1.457-2.186C486.62,126.829,486.037,127.557,485.6,128.286Z" transform="translate(-485.6 -126.1)" fill="#a6d0f4"/>
              </g>
              <g id="Group_17158" data-name="Group 17158" transform="translate(44.006 53.071)">
                <path id="Path_2925" data-name="Path 2925" d="M486.6,128.037c.146-.146.146-.291.291-.437C486.746,127.746,486.6,127.891,486.6,128.037Z" transform="translate(-486.6 -127.6)" fill="#a6d0f4"/>
              </g>
              <g id="Group_17159" data-name="Group 17159" transform="translate(41.966 55.403)">
                <path id="Path_2926" data-name="Path 2926" d="M487.9,129.783c.146-.146.291-.437.437-.583h0A2.012,2.012,0,0,1,487.9,129.783Z" transform="translate(-487.9 -129.2)" fill="#a6d0f4"/>
              </g>
              <g id="Group_17160" data-name="Group 17160" transform="translate(6.268 42.434)">
                <path id="Path_2927" data-name="Path 2927" d="M504.118,146.383h0c.291-.146.437-.291.583-.291.146-.146.291-.146.437-.291a.143.143,0,0,0,.146-.146c.146,0,.146-.146.292-.146a.143.143,0,0,0,.146-.146c.146,0,.146-.146.291-.146a.143.143,0,0,0,.146-.146c.146,0,.146-.146.291-.146a.143.143,0,0,0,.146-.146c.146,0,.146-.146.291-.146a.143.143,0,0,0,.146-.146c.146,0,.146-.146.291-.146a.143.143,0,0,0,.146-.146c.146,0,.146-.146.291-.146.291-.146.291-.291.437-.291.146-.146.291-.146.437-.291a.143.143,0,0,0,.146-.146c.146,0,.146-.146.291-.146a.143.143,0,0,0,.146-.146c.146,0,.146-.146.291-.146a.143.143,0,0,0,.146-.146c.146,0,.146-.146.292-.146a.143.143,0,0,0,.146-.146c.146,0,.146-.146.291-.146a.143.143,0,0,0,.146-.146c.146,0,.146-.146.291-.146a.143.143,0,0,0,.146-.146l.291-.291c.146-.146.291-.291.437-.291.146-.146.291-.146.291-.291l.292-.291a.143.143,0,0,0,.146-.146c.146,0,.146-.146.291-.146l.146-.146c.146,0,.146-.146.291-.291a.143.143,0,0,0,.146-.146l.291-.291.437-.437.729-.729.291-.291.291-.291.291-.291c.146-.146.291-.291.291-.437.146-.146.291-.291.291-.437.437-.437.729-.874,1.02-1.166.146-.146.291-.291.291-.437.146-.146.291-.291.291-.437.146-.146.291-.291.291-.437.146-.146.291-.291.291-.437.146-.146.291-.291.291-.437a15.489,15.489,0,0,1,1.311-1.6c.146-.146.146-.291.291-.437s.291-.291.291-.437c.146-.146.291-.291.291-.437a18.98,18.98,0,0,0,1.457-2.186c.146-.146.146-.291.291-.437s.146-.291.291-.437a27.07,27.07,0,0,0,1.6-2.769c.146-.146.146-.291.292-.437s.146-.291.291-.437c.437-.874.874-1.6,1.311-2.331-4.663-.874-13.988-1.02-14.425-1.02a7.568,7.568,0,0,1-.437.729c-1.02,1.457-3.643,5.1-7.286,7.14a9.347,9.347,0,0,1-7.431,1.166c-.146,0-.291-.146-.437-.146-.437.583-8.888,10.491-13.7,16.757l.437.437c.146.146.146.146.291.146.146.146.146.146.291.146.146.146.146.146.292.146.146.146.146.146.291.146l.874.437c.146,0,.146.146.291.146s.146.146.291.146.146.146.291.146l.874.437c.146,0,.146.146.291.146s.146.146.291.146a.509.509,0,0,1,.291.146,9.286,9.286,0,0,0,1.02.291h1.166a1.314,1.314,0,0,1,.729.146h3.5a1.314,1.314,0,0,0,.729-.146h1.6a1.848,1.848,0,0,1,.874-.146c.146,0,.291-.146.437-.146H498c.146,0,.146,0,.291-.146h.146c.146,0,.146,0,.291-.146h.146c.146,0,.146,0,.291-.146h.146c.146,0,.146-.146.292-.146s.291-.146.437-.146.291-.146.437-.146h.146c.146,0,.146,0,.291-.146h.146c.146,0,.146,0,.291-.146h.146c.146,0,.146,0,.291-.146h.146c.146,0,.146-.146.291-.146a1.12,1.12,0,0,0,.437-.291.535.535,0,0,1,.437-.146h.146c.146,0,.146-.146.291-.146a.143.143,0,0,0,.146-.146c.146,0,.146-.146.291-.146a.143.143,0,0,0,.146-.146c.146,0,.146-.146.291-.146a.143.143,0,0,0,.146-.146C503.827,146.528,503.973,146.528,504.118,146.383Z" transform="translate(-482.7 -120.3)" fill="#a9e3e4"/>
              </g>
              <g id="Group_17161" data-name="Group 17161" transform="translate(42.404 54.383)">
                <path id="Path_2928" data-name="Path 2928" d="M487.3,129.52h0c.291-.291.583-.729.874-1.02h0C487.883,128.791,487.591,129.229,487.3,129.52Z" transform="translate(-487.3 -128.5)" fill="#a6d0f4"/>
              </g>
              <g id="Group_17162" data-name="Group 17162" transform="translate(43.278 54.383)">
                <path id="Path_2929" data-name="Path 2929" d="M487.3,128.5Z" transform="translate(-487.3 -128.5)" fill="#a6d0f4"/>
              </g>
              <g id="Group_17163" data-name="Group 17163" transform="translate(41.092 56.86)">
                <path id="Path_2930" data-name="Path 2930" d="M488.6,130.491l.291-.291Z" transform="translate(-488.6 -130.2)" fill="#a6d0f4"/>
              </g>
              <g id="Group_17164" data-name="Group 17164" transform="translate(40.364 57.588)">
                <path id="Path_2931" data-name="Path 2931" d="M489.1,131.137c.146-.146.146-.291.291-.437C489.246,130.846,489.1,130.991,489.1,131.137Z" transform="translate(-489.1 -130.7)" fill="#a6d0f4"/>
              </g>
              <g id="Group_17165" data-name="Group 17165" transform="translate(39.344 58.025)">
                <path id="Path_2932" data-name="Path 2932" d="M489.3,132.166c.291-.437.729-.729,1.02-1.166A7.3,7.3,0,0,0,489.3,132.166Z" transform="translate(-489.3 -131)" fill="#a6d0f4"/>
              </g>
              <g id="Group_17166" data-name="Group 17166" transform="translate(38.324 59.92)">
                <path id="Path_2933" data-name="Path 2933" d="M490.5,132.591l.291-.291Z" transform="translate(-490.5 -132.3)" fill="#a6d0f4"/>
              </g>
              <g id="Group_17167" data-name="Group 17167" transform="translate(37.449 60.794)">
                <path id="Path_2934" data-name="Path 2934" d="M491.1,133.191l.291-.291Z" transform="translate(-491.1 -132.9)" fill="#a6d0f4"/>
              </g>
              <g id="Group_17168" data-name="Group 17168" transform="translate(36.721 60.94)">
                <path id="Path_2935" data-name="Path 2935" d="M491.3,133.729l.729-.729A1.756,1.756,0,0,1,491.3,133.729Z" transform="translate(-491.3 -133)" fill="#a6d0f4"/>
              </g>
              <g id="Group_17169" data-name="Group 17169" transform="translate(35.264 62.834)">
                <path id="Path_2936" data-name="Path 2936" d="M492.6,134.446c.146,0,.146-.146.291-.146A.509.509,0,0,1,492.6,134.446Z" transform="translate(-492.6 -134.3)" fill="#a6d0f4"/>
              </g>
              <g id="Group_17170" data-name="Group 17170" transform="translate(33.807 64.145)">
                <path id="Path_2937" data-name="Path 2937" d="M493.6,135.491l.291-.291A.313.313,0,0,0,493.6,135.491Z" transform="translate(-493.6 -135.2)" fill="#a6d0f4"/>
              </g>
              <g id="Group_17171" data-name="Group 17171" transform="translate(10.784 71.285)">
                <path id="Path_2938" data-name="Path 2938" d="M509.4,140.1c.146,0,.146,0,.291.146C509.546,140.246,509.4,140.246,509.4,140.1Z" transform="translate(-509.4 -140.1)" fill="#a6d0f4"/>
              </g>
              <g id="Group_17172" data-name="Group 17172" transform="translate(36.429 21.16)">
                <path id="Path_2939" data-name="Path 2939" d="M490.393,108.614l-.291,3.643c0,.437-.146.874-.146,1.457.146,0,.146,0,.291-.146a.143.143,0,0,0,.146-.146c2.186-1.749,3.351-7.577,1.894-7.723a1.314,1.314,0,0,0-.729.146c-.146.146-.437.291-.583.437-.291,1.311-.583,2.331-.583,2.477Z" transform="translate(-489.956 -105.7)" fill="#cbdceb"/>
              </g>
              <g id="Group_17173" data-name="Group 17173" transform="translate(7.578 69.828)">
                <path id="Path_2940" data-name="Path 2940" d="M511.3,139.1a3.184,3.184,0,0,1,.729.437A3.185,3.185,0,0,0,511.3,139.1Z" transform="translate(-511.3 -139.1)" fill="#a6d0f4"/>
              </g>
              <g id="Group_17174" data-name="Group 17174" transform="translate(20.255 38.354)">
                <path id="Path_2941" data-name="Path 2941" d="M494.166,129.157A14.576,14.576,0,0,1,493,131.2a9.976,9.976,0,0,0,7.431-1.166,25.913,25.913,0,0,0,7.286-7.14,5.175,5.175,0,0,1-1.311-.583,17.676,17.676,0,0,1-1.02-4.808l-3.06,4.371a4.273,4.273,0,0,1-1.894,1.749,2.431,2.431,0,0,1-1.894.437l-3.06-.874h-.146C495.04,124.348,494.749,127.117,494.166,129.157Z" transform="translate(-493 -117.5)" fill="#cbdceb"/>
              </g>
              <g id="Group_17175" data-name="Group 17175" transform="translate(7.141 69.391)">
                <path id="Path_2942" data-name="Path 2942" d="M512,138.8l.146.146A.143.143,0,0,1,512,138.8Z" transform="translate(-512 -138.8)" fill="#a6d0f4"/>
              </g>
              <g id="Group_17176" data-name="Group 17176" transform="translate(6.85 69.245)">
                <path id="Path_2943" data-name="Path 2943" d="M512.2,138.7l.146.146A.143.143,0,0,1,512.2,138.7Z" transform="translate(-512.2 -138.7)" fill="#a6d0f4"/>
              </g>
              <g id="Group_17177" data-name="Group 17177" transform="translate(18.507 15.801)">
                <path id="Path_2944" data-name="Path 2944" d="M493.84,116.415a6.259,6.259,0,0,1-1.311.583l-.729,5.537.146,1.894c0,.437.146.729.146,1.02a5.646,5.646,0,0,0,3.643,4.663h.146l3.06.874a2.43,2.43,0,0,0,1.894-.437,7.131,7.131,0,0,0,1.894-1.749l3.06-4.371v-.146a22.5,22.5,0,0,0,3.789-8.888,4.489,4.489,0,0,0,.146-1.457l.291-3.643-2.477-8.014s-.437-.583-1.311,0a5.925,5.925,0,0,0-2.04,2.186c-2.477,3.5-2.769,6.557-6.849,9.617C495.588,115.25,494.568,115.978,493.84,116.415Z" transform="translate(-491.8 -102.022)" fill="#cbdceb"/>
              </g>
              <g id="Group_17178" data-name="Group 17178" transform="translate(15.529 33.254)">
                <path id="Path_2945" data-name="Path 2945" d="M504.847,114.874c-1.457,1.749-.291,6.266,1.894,5.391a.143.143,0,0,0,.146-.146l.437-.437c0-.291-.146-.729-.146-1.02l-.146-1.894v.437a19.49,19.49,0,0,1-1.02-3.206.535.535,0,0,0-.437.146C505.284,114.437,505.138,114.729,504.847,114.874Z" transform="translate(-504.2 -114)" fill="#cbdceb"/>
              </g>
              <g id="Group_17179" data-name="Group 17179" transform="translate(16.74 7.406)">
                <path id="Path_2946" data-name="Path 2946" d="M498.66,100.544a23.407,23.407,0,0,0-7.628,14.28,23.919,23.919,0,0,0,.587,7.431,19.388,19.388,0,0,0,1.027,3.206v-.437l.734-5.537a3.723,3.723,0,0,0,1.32-.583c.734-.437,1.907-1.166,3.521-2.331,4.254-3.06,4.547-6.12,6.894-9.617a10.252,10.252,0,0,1,2.054-2.186c.88-.583,1.32,0,1.32,0l2.494,8.014v.146s.293-1.02.587-2.477.733-3.351.88-4.517c.44-2.477-.733-7.286-2.494-8.888-1.467-1.311-5.134-1.02-8.8,1.166A13.082,13.082,0,0,1,498.66,100.544Z" transform="translate(-490.937 -96.261)" fill="#3f5078"/>
              </g>
              <g id="Group_17180" data-name="Group 17180">
                <path id="Path_2947" data-name="Path 2947" d="M513.427,134.778a7.571,7.571,0,0,0,.437-.729c.437,0,9.908.146,14.425,1.02,3.934-7.868,6.266-16.32,6.266-24.042,0-17.777-12.677-24.917-28.122-16.028s-27.977,30.6-27.831,48.376c0,7.723,2.477,13.551,6.557,16.757l-.437-.437c4.808-6.266,13.26-16.32,13.7-16.757.146,0,.291.146.437.146a9.288,9.288,0,0,0,1.166-2.04,34.94,34.94,0,0,0,1.02-6.266c-1.894-.583-3.206-2.186-3.643-4.663l-.437.437c-2.331.874-3.5-3.643-2.04-5.391a2.557,2.557,0,0,1,.729-.583.535.535,0,0,1,.437-.146A17.8,17.8,0,0,1,495.5,117a23.846,23.846,0,0,1,7.577-14.28,19.9,19.9,0,0,1,3.06-2.186c3.643-2.186,7.286-2.477,8.743-1.166,1.749,1.6,2.914,6.411,2.477,8.888-.146,1.311-.583,3.06-.874,4.517a2.011,2.011,0,0,1,.583-.437,1.092,1.092,0,0,1,.729-.146c1.457,0,.291,5.974-1.894,7.723-.291.146-.291.146-.437.146a22.5,22.5,0,0,1-3.789,8.888,17.591,17.591,0,0,0,1.02,4.954C512.552,134.486,512.989,134.632,513.427,134.778Z" transform="translate(-478.6 -91.178)" fill="#25437f"/>
              </g>
            </g>
            <g id="Group_17182" data-name="Group 17182" transform="translate(37.886 60.357)">
              <path id="Path_2948" data-name="Path 2948" d="M490.8,132.891l.291-.291Z" transform="translate(-490.8 -132.6)" fill="#a6d0f4"/>
            </g>
            <g id="Group_17183" data-name="Group 17183" transform="translate(34.535 63.417)">
              <path id="Path_2949" data-name="Path 2949" d="M493.1,134.991l.291-.291C493.246,134.846,493.246,134.991,493.1,134.991Z" transform="translate(-493.1 -134.7)" fill="#a6d0f4"/>
            </g>
            <g id="Group_17184" data-name="Group 17184" transform="translate(32.058 65.602)">
              <path id="Path_2950" data-name="Path 2950" d="M494.925,136.2Z" transform="translate(-494.925 -136.2)" fill="#a6d0f4"/>
            </g>
            <g id="Group_17185" data-name="Group 17185" transform="translate(22.295 70.848)">
              <path id="Path_2951" data-name="Path 2951" d="M501.625,139.8Z" transform="translate(-501.625 -139.8)" fill="#a6d0f4"/>
            </g>
            <g id="Group_17186" data-name="Group 17186" transform="translate(21.712 70.994)">
              <path id="Path_2952" data-name="Path 2952" d="M501.9,140.046c.146,0,.146,0,.291-.146C502.046,139.9,502.046,140.046,501.9,140.046Z" transform="translate(-501.9 -139.9)" fill="#a6d0f4"/>
            </g>
            <g id="Group_17187" data-name="Group 17187" transform="translate(21.567 71.139)">
              <path id="Path_2953" data-name="Path 2953" d="M502.156,140Z" transform="translate(-502.156 -140)" fill="#a6d0f4"/>
            </g>
            <g id="Group_17188" data-name="Group 17188" transform="translate(21.275 71.139)">
              <path id="Path_2954" data-name="Path 2954" d="M502.2,140.146c.146,0,.146,0,.292-.146A.452.452,0,0,0,502.2,140.146Z" transform="translate(-502.2 -140)" fill="#a6d0f4"/>
            </g>
            <g id="Group_17189" data-name="Group 17189" transform="translate(16.758 72.014)">
              <path id="Path_2955" data-name="Path 2955" d="M505.3,140.6h0Z" transform="translate(-505.3 -140.6)" fill="#a6d0f4"/>
            </g>
            <g id="Group_17190" data-name="Group 17190" transform="translate(15.01 72.014)">
              <path id="Path_2956" data-name="Path 2956" d="M506.5,140.6h.291C506.646,140.746,506.646,140.746,506.5,140.6Z" transform="translate(-506.5 -140.6)" fill="#a6d0f4"/>
            </g>
            <g id="Group_17191" data-name="Group 17191" transform="translate(14.573 72.014)">
              <path id="Path_2957" data-name="Path 2957" d="M506.956,140.6Z" transform="translate(-506.956 -140.6)" fill="#a6d0f4"/>
            </g>
            <g id="Group_17192" data-name="Group 17192" transform="translate(13.99 72.014)">
              <path id="Path_2958" data-name="Path 2958" d="M507.2,140.6h0Z" transform="translate(-507.2 -140.6)" fill="#a6d0f4"/>
            </g>
            <g id="Group_17193" data-name="Group 17193" transform="translate(10.201 71.139)">
              <path id="Path_2959" data-name="Path 2959" d="M509.8,140c.146,0,.146,0,.292.146A.452.452,0,0,0,509.8,140Z" transform="translate(-509.8 -140)" fill="#a6d0f4"/>
            </g>
          </g>
          <g id="Group_17204" data-name="Group 17204" transform="translate(30.161 211.164)">
            <g id="Group_17203" data-name="Group 17203" transform="translate(0 0)">
              <g id="Group_17195" data-name="Group 17195" transform="translate(23.461 49.956)">
                <path id="Path_2960" data-name="Path 2960" d="M500.846,206.3c0,.146-.146.437-.146.583h.146Z" transform="translate(-500.7 -206.3)" fill="#25437f"/>
              </g>
              <g id="Group_17196" data-name="Group 17196" transform="translate(37.158 20.231)">
                <path id="Path_2961" data-name="Path 2961" d="M491.249,186.191a12.829,12.829,0,0,1-1.02,3.934l-.291-.291-.292,2.623c0,.437-.146.874-.146,1.311.146,0,.146,0,.291-.146h0c1.457-1.166,2.477-4.371,2.477-6.266,0-.874-.146-1.457-.729-1.457C491.686,186.046,491.54,186.046,491.249,186.191Z" transform="translate(-489.5 -185.9)" fill="#cbdceb"/>
              </g>
              <g id="Group_17197" data-name="Group 17197" transform="translate(23.606 39.028)">
                <path id="Path_2962" data-name="Path 2962" d="M495.02,203.026a26.7,26.7,0,0,1-1.02,6.557v.729a5.732,5.732,0,0,0,4.663-.437c.146,0,.146-.146.291-.146a.143.143,0,0,0,.146-.146,14.656,14.656,0,0,0,4.663-5.1h0A14.159,14.159,0,0,1,502.6,198.8l-1.749,2.477a4.273,4.273,0,0,1-1.894,1.749,2.43,2.43,0,0,1-1.894.437Z" transform="translate(-494 -198.8)" fill="#cbdceb"/>
              </g>
              <path id="Path_2963" data-name="Path 2963" d="M487.86,220.321c.874-1.02,1.894-2.331,3.06-3.643a8.844,8.844,0,0,0,.729,2.623c2.186,5.1,6.266,4.809,6.557,4.809a27.579,27.579,0,0,1-.874-6.266,16.14,16.14,0,0,1,.291-2.769c.146-.874.437-1.749.583-2.769a30.668,30.668,0,0,0,.291-3.643,5.731,5.731,0,0,0,4.663-.437c.146,0,.146-.146.291-.146a.143.143,0,0,0,.146-.146,14.655,14.655,0,0,0,4.663-5.1h0c.291,0,7.14-.729,10.346-.291,1.166.146,2.186,2.186,2.914,4.663-4.954,8.014-11.511,14.863-18.651,19.088-6.848,3.934-13.114,4.809-18.068,2.769C485.528,225.275,486.694,221.778,487.86,220.321Z" transform="translate(-474.744 -158.125)" fill="#a9e3e4"/>
              <path id="Path_2964" data-name="Path 2964" d="M503.643,204.234a24.533,24.533,0,0,0,1.311-3.934,5.178,5.178,0,0,0,2.331,1.6c.146,0,.146,0,.292.146l1.166.291a26.7,26.7,0,0,1-1.02,6.557c0,.146-.146.437-.146.583h.146a30.655,30.655,0,0,1-.292,3.643,18.74,18.74,0,0,1-.583,2.769,17.856,17.856,0,0,0-.291,2.769,27.578,27.578,0,0,0,.874,6.266c-.146,0-4.226.291-6.557-4.808a8.846,8.846,0,0,1-.729-2.623c0-.437-.146-1.02-.146-1.457C500.146,212.1,502.04,208.023,503.643,204.234Z" transform="translate(-484.116 -159.087)" fill="#3f5078"/>
              <path id="Path_2965" data-name="Path 2965" d="M491.291,203.728l1.166-5.391A35.447,35.447,0,0,0,506.591,182.6v1.457a13.132,13.132,0,0,0,1.894,6.7,3.181,3.181,0,0,0,.583.729l-.291,2.623c0,.437-.146.874-.146,1.311a22.5,22.5,0,0,1-3.789,8.888l-1.311,1.894h0l-1.749,2.477a4.273,4.273,0,0,1-1.894,1.749,2.43,2.43,0,0,1-1.894.437l-1.894-.583-1.166-.291c-.146,0-.146,0-.291-.146a5.177,5.177,0,0,1-2.331-1.6A7.7,7.7,0,0,1,491,205.331,3.9,3.9,0,0,0,491.291,203.728Z" transform="translate(-471.328 -167.178)" fill="#cbdceb"/>
              <g id="Group_17198" data-name="Group 17198" transform="translate(19.672 38.299)">
                <path id="Path_2966" data-name="Path 2966" d="M503.4,198.3Z" transform="translate(-503.4 -198.3)" fill="#25437f"/>
              </g>
              <g id="Group_17199" data-name="Group 17199" transform="translate(19.527 38.299)">
                <path id="Path_2967" data-name="Path 2967" d="M503.546,198.3l-.146.146h0Z" transform="translate(-503.4 -198.3)" fill="#25437f"/>
              </g>
              <g id="Group_17200" data-name="Group 17200" transform="translate(19.527 36.551)">
                <path id="Path_2968" data-name="Path 2968" d="M503.637,197.1l-.437,1.749A3.107,3.107,0,0,0,503.637,197.1Z" transform="translate(-503.2 -197.1)" fill="#ff8d68"/>
              </g>
              <g id="Group_17201" data-name="Group 17201" transform="translate(16.574 32.616)">
                <path id="Path_2969" data-name="Path 2969" d="M504.5,194.546c-.146.146-.437.291-.583.583a2.788,2.788,0,0,0-.583,2.186c0,1.894,1.02,3.789,2.623,3.206h.146a.143.143,0,0,0,.146-.146l.291-.291a49.89,49.89,0,0,1-1.6-5.683c-.291.146-.291.146-.437.146Z" transform="translate(-503.3 -194.4)" fill="#cbdceb"/>
              </g>
              <g id="Group_17202" data-name="Group 17202">
                <path id="Path_2970" data-name="Path 2970" d="M506.629,175.927c-15.445,8.888-27.977,30.6-27.831,48.376,0,9.908,3.934,16.465,10.054,18.8.874-3.789,1.894-7.286,3.06-8.888.874-1.02,1.894-2.331,3.06-3.643,0-.437-.146-1.02-.146-1.457,0-3.934,1.894-8.16,3.5-11.948a24.538,24.538,0,0,0,1.311-3.934,7.7,7.7,0,0,1-1.311-2.914c-.146.146-.291.291-.291.437-1.749.729-2.769-1.311-2.769-3.06a3.512,3.512,0,0,1,.583-2.186l.583-.583c-.146-1.894-.437-3.934-.437-5.828v-1.457c.583-4.954,3.934-11.22,10.2-15.883.146-.146.292-.146.292-.291l1.311-.874c4.954-2.769,8.306-1.02,9.18,2.186a1.848,1.848,0,0,1,.146.874,34.625,34.625,0,0,1,.437,5.683,24.7,24.7,0,0,1-.146,3.351.876.876,0,0,1,.583-.146c.437,0,.729.583.729,1.457,0,1.894-1.02,4.954-2.477,6.266-.291.146-.291.146-.437.146a22.5,22.5,0,0,1-3.789,8.888l-1.311,1.894c.146,1.311.291,4.08,1.166,5.683.291,0,7.14-.729,10.346-.291,1.166.146,2.186,2.186,2.914,4.663,5.683-9.18,9.18-19.817,9.18-29.288C534.605,174.033,522.074,166.893,506.629,175.927Z" transform="translate(-478.797 -172.016)" fill="#25437f"/>
              </g>
            </g>
            <path id="Path_2971" data-name="Path 2971" d="M490.391,195.279c.583-4.954,3.934-11.22,10.2-15.883.146-.146.291-.146.291-.291a12.823,12.823,0,0,1,1.457-.874h.146c4.808-2.769,8.014-1.02,9.034,2.331a1.848,1.848,0,0,1,.146.874,34.618,34.618,0,0,1,.437,5.683,24.7,24.7,0,0,1-.146,3.351h0a12.829,12.829,0,0,1-1.02,3.934l-.292-.291c-.146-.146-.291-.437-.583-.729a12.665,12.665,0,0,1-1.894-6.7v-1.457c-.146.437-3.5,9.326-14.134,15.737l-1.166,5.391-.437,1.749v.146a49.9,49.9,0,0,1-1.6-5.683,26.421,26.421,0,0,1-.729-5.683C490.246,196.3,490.246,195.716,490.391,195.279Z" transform="translate(-473.05 -169.802)" fill="#3f5078"/>
          </g>
          <g id="Group_17207" data-name="Group 17207" transform="translate(95.15 49.293)">
            <g id="Group_17205" data-name="Group 17205">
              <path id="Path_2972" data-name="Path 2972" d="M418.094,106.35A4.2,4.2,0,0,0,416.2,109.7c0,1.166.874,1.749,1.894,1.02L496.05,65.7a4.2,4.2,0,0,0,1.894-3.351c0-1.311-.874-1.749-1.894-1.166Z" transform="translate(-416.2 -60.926)" fill="#25437f"/>
            </g>
            <g id="Group_17206" data-name="Group 17206" transform="translate(22.44 11.297)">
              <path id="Path_2973" data-name="Path 2973" d="M418.094,101.057a4.155,4.155,0,0,0-1.894,3.206c0,1.166.874,1.749,1.894,1.166l55.516-32.057a4.2,4.2,0,0,0,1.894-3.351c0-1.166-.874-1.749-1.894-1.02Z" transform="translate(-416.2 -68.679)" fill="#25437f"/>
            </g>
          </g>
          <g id="Group_17210" data-name="Group 17210" transform="translate(95.15 174.751)">
            <g id="Group_17208" data-name="Group 17208">
              <path id="Path_2974" data-name="Path 2974" d="M418.094,192.45A4.2,4.2,0,0,0,416.2,195.8c0,1.166.874,1.749,1.894,1.02L496.05,151.8a4.2,4.2,0,0,0,1.894-3.351c0-1.311-.874-1.749-1.894-1.166Z" transform="translate(-416.2 -147.026)" fill="#254da1"/>
            </g>
            <g id="Group_17209" data-name="Group 17209" transform="translate(22.44 11.297)">
              <path id="Path_2975" data-name="Path 2975" d="M418.094,187.157a4.155,4.155,0,0,0-1.894,3.206c0,1.166.874,1.749,1.894,1.166l55.516-32.057a4.2,4.2,0,0,0,1.894-3.351c0-1.166-.874-1.749-1.894-1.02Z" transform="translate(-416.2 -154.779)" fill="#254da1"/>
            </g>
          </g>
          <g id="Group_17214" data-name="Group 17214" transform="translate(88.738 242.437)">
            <g id="Group_17212" data-name="Group 17212" transform="translate(0 0)">
              <path id="Path_2976" data-name="Path 2976" d="M483.737,194.676c-3.351-1.894-7.868-1.6-12.968,1.311C460.714,201.816,452.7,215.8,452.7,227.315c0,5.683,2.04,9.763,5.246,11.657l3.934,2.331c-3.206-1.894-5.246-5.974-5.246-11.657,0-11.511,8.014-25.5,18.068-31.328,5.1-2.914,9.617-3.206,12.968-1.311Z" transform="translate(-452.7 -193.478)" fill="#86e563"/>
              <g id="Group_17211" data-name="Group 17211" transform="translate(4.08 2.328)">
                <path id="Path_2977" data-name="Path 2977" d="M467.068,197.588C457.014,203.417,449,217.405,449,228.916s8.16,16.174,18.214,10.346,18.068-19.817,18.068-31.328C485.137,196.423,476.977,191.76,467.068,197.588Z" transform="translate(-449 -195.075)" fill="#2ab774"/>
              </g>
            </g>
            <g id="Group_17213" data-name="Group 17213" transform="translate(11.657 19.995)">
              <path id="Path_2978" data-name="Path 2978" d="M457.434,207.2l-3.934,6.7,14.863,8.451,7.286-12.531-3.934-2.186-3.351,5.683Z" transform="translate(-453.5 -207.2)" fill="#fff"/>
            </g>
          </g>
          <g id="Group_17218" data-name="Group 17218" transform="translate(88.738 300.285)">
            <g id="Group_17216" data-name="Group 17216">
              <path id="Path_2979" data-name="Path 2979" d="M483.737,234.376c-3.351-1.894-7.868-1.6-12.968,1.311C460.714,241.516,452.7,255.5,452.7,267.015c0,5.683,2.04,9.763,5.246,11.657L461.88,281c-3.206-1.894-5.246-5.974-5.246-11.657,0-11.511,8.014-25.5,18.068-31.328,5.1-2.914,9.617-3.206,12.968-1.311Z" transform="translate(-452.7 -233.178)" fill="#ff7363"/>
              <g id="Group_17215" data-name="Group 17215" transform="translate(4.08 2.328)">
                <path id="Path_2980" data-name="Path 2980" d="M467.068,237.288C457.014,243.117,449,257.105,449,268.616s8.16,16.174,18.214,10.346,18.068-19.817,18.068-31.328C485.137,236.123,476.977,231.46,467.068,237.288Z" transform="translate(-449 -234.775)" fill="#ff465c"/>
              </g>
            </g>
            <g id="Group_17217" data-name="Group 17217" transform="translate(13.114 12.855)">
              <path id="Path_2981" data-name="Path 2981" d="M458.534,248.557l-3.934,6.7,5.683,3.206-5.683,9.763,3.934,2.331,5.683-9.763L469.9,264l3.789-6.848-5.537-3.206,5.537-9.763L469.754,242l-5.537,9.763Z" transform="translate(-454.6 -242)" fill="#fff"/>
            </g>
          </g>
          <g id="Group_17228" data-name="Group 17228" transform="translate(108.284 163.249)">
            <g id="Group_17223" data-name="Group 17223" transform="translate(32.182)">
              <path id="Path_2982" data-name="Path 2982" d="M377.589,155.082c1.749-6.12,7.723-11.511,16.757-11.074,8.6.437,15.008,4.226,17.194,10.637,1.311,3.789,1.02,10.491-1.311,15.3a18.961,18.961,0,0,1-5.974,6.411l2.477,8.888c-2.186,2.769-11.657,5.974-18.214,5.683,0,0-.729-3.06-1.6-6.411-4.371,1.166-7.577-2.331-9.18-7.286C376.569,173.733,376.132,159.89,377.589,155.082Z" transform="translate(-318.285 -136.915)" fill="#ff8e54"/>
              <path id="Path_2983" data-name="Path 2983" d="M377.211,155.082c1.749-6.12,7.723-11.511,16.757-11.074h.437l17.048,12.24a23.938,23.938,0,0,1-1.749,13.7,18.961,18.961,0,0,1-5.974,6.411l2.477,8.888c-2.186,2.769-11.657,5.974-18.214,5.683,0,0-.729-3.06-1.6-6.411a5.206,5.206,0,0,1-4.226-.437c1.311-.583,2.331-1.894,3.351-3.643,1.6-2.914-3.788-4.808-4.08-7.723s1.6-8.014-1.894-10.491a7.8,7.8,0,0,1-2.768-5.246A12.487,12.487,0,0,1,377.211,155.082Z" transform="translate(-317.906 -136.915)" fill="#ff5f4d"/>
              <g id="Group_17222" data-name="Group 17222" transform="translate(0 28.128)">
                <g id="Group_17221" data-name="Group 17221">
                  <path id="Path_3153" data-name="Path 3153" d="M73.73,0C33.01,0,0,21.006,0,46.919S33.01,93.838,73.73,93.838s73.73-21.006,73.73-46.919S114.45,0,73.73,0Z" transform="translate(0 209.772)" fill="#a9e3e4"/>
                  <path id="Path_2984" data-name="Path 2984" d="M435.493,174.995l-3.206-2.477-4.08-8.6s-2.186-.874-2.768-1.166a33.868,33.868,0,0,0-4.809.729,21.5,21.5,0,0,0-2.623-2.769c-.583-.437-2.768-2.769-3.789-2.186-.874.583-.729,1.457-.146,2.186s2.477,2.623,2.477,2.623l2.04,5.1-.146,1.894a1.538,1.538,0,0,0-1.457,1.166c-.437,1.166-.437,2.186.874,2.623s2.477.874,2.477.874a27.746,27.746,0,0,0,4.08,2.477,18.063,18.063,0,0,0,3.206.874l.874,2.186Z" transform="translate(-395.277 -158.436)" fill="#ff8e54"/>
                  <path id="Path_2985" data-name="Path 2985" d="M413.755,167.318h0a3.983,3.983,0,0,1,2.331.291c1.02.437,2.477,2.477,3.206,3.06.583.437,4.226,2.04,5.828.583,1.166-1.166,3.934-1.749,5.246-1.894l2.186,1.749-7.14,5.537-.874-2.186s-1.749-.437-3.206-.874a18.868,18.868,0,0,1-4.08-2.477,12.206,12.206,0,0,0-2.477-.874C413.317,169.649,413.317,168.484,413.755,167.318Z" transform="translate(-392.189 -154.402)" fill="#ff5f4d"/>
                  <g id="Group_17219" data-name="Group 17219" transform="translate(32.348 14.664)">
                    <path id="Path_2986" data-name="Path 2986" d="M422.566,171.706l-3.934-3.206s-6.7,1.457-7.431,6.994l3.206,3.5Z" transform="translate(-411.2 -168.5)" fill="#f9fbfc"/>
                    <path id="Path_2987" data-name="Path 2987" d="M428.994,189.163,407.283,169.2s-9.763.583-10.783,8.6l21.711,24.917S428.994,200.528,428.994,189.163Z" transform="translate(-396.208 -168.18)" fill="#253c72"/>
                    <path id="Path_2988" data-name="Path 2988" d="M423.511,201.617,401.8,176.7a8.887,8.887,0,0,1,2.477-5.1c7.286,10.346,20.545,21.565,20.545,21.565l1.749,7.286A27.2,27.2,0,0,1,423.511,201.617Z" transform="translate(-401.508 -167.083)" fill="#252f4c"/>
                  </g>
                  <g id="Group_17220" data-name="Group 17220" transform="translate(36.426 95.389)">
                    <path id="Path_2989" data-name="Path 2989" d="M393.065,330.171l.729,9.034a3.338,3.338,0,0,1-2.04,3.351,10.041,10.041,0,0,1-5.391.583c-5.246-.729-7.577-3.643-8.451-5.246-.729-1.6-11.22-8.743-9.908-12.385,2.04-3.643,5.537,0,9.18,0C380.679,325.508,388.256,323.759,393.065,330.171Z" transform="translate(-323.413 -178.193)" fill="#171e26"/>
                    <path id="Path_2990" data-name="Path 2990" d="M396.176,233.573s2.331,61.053,1.166,80.142c0,0,4.809,47.939,2.331,59.3,0,0-8.451,5.974-15.591,1.166-1.749-.583-1.749-3.06-1.749-3.06s-4.809-44.879-5.974-58.722c-1.166-13.7-10.783-55.079-9.034-64.113C369.22,239.548,380.585,227.016,396.176,233.573Z" transform="translate(-328.856 -220.314)" fill="#171e26"/>
                    <path id="Path_2991" data-name="Path 2991" d="M423.981,337.174s3.351,10.2.874,12.531c-2.331,2.331-5.391,3.06-7.577,2.331a36.842,36.842,0,0,1-4.226-1.749l-.729-2.04-.729,1.457a7.482,7.482,0,0,1-2.768-1.166c-1.6-.874-6.12-2.623-8.014-3.934-1.894-1.166-5.246-3.351-5.537-5.828-.146-2.623,9.034-1.749,11.511-1.6s4.08-.874,4.954-.874,10.637,1.166,10.637,1.166" transform="translate(-395.274 -172.52)" fill="#171e26"/>
                    <path id="Path_2992" data-name="Path 2992" d="M372.037,235.994s-2.477,9.18-2.477,27.54,1.6,64.7,1.6,64.7.729,47.065,1.6,59.013c0,0,5.537,7.14,15.154,1.6,4.808-5.537,3.206-9.617,3.206-9.617s6.411-28.705,3.934-55.079c0,0,8.743-53.476,10.346-59.888s29.434-9.18,18.505-40.362Z" transform="translate(-358.484 -223.9)" fill="#1f2f3f"/>
                    <path id="Path_2993" data-name="Path 2993" d="M412.323,257.68s-12.823,5.683-11.22,24.188,4.808,30.6,3.206,41.819-4.08,17.631-2.477,31.328c1.311,11.074,5.828,21.711,2.186,29.142a11.4,11.4,0,0,1-6.411-3.643c-.729-11.948-1.6-59.013-1.6-59.013s-1.6-46.336-1.6-64.7a145.094,145.094,0,0,1,1.02-18.505l19.963,8.888Z" transform="translate(-383.616 -217.317)" fill="#25437f"/>
                  </g>
                  <path id="Path_2994" data-name="Path 2994" d="M363.943,202.394a11.321,11.321,0,0,1,5.1-9.908c7.286-4.809,17.194-11.074,23.751-14.425,8.014-4.226,16.32-8.6,20.691-9.034,12.386-1.166,19.671,10.346,18.651,25.354-.729,9.18-3.206,19.38-6.411,29.871-1.457,4.517-2.331,12.385-2.769,19.671a31.652,31.652,0,0,0,1.311,9.763c2.04,4.809,3.934,23.9,3.934,23.9s-13.551,13.988-31.182,15.154-24.334-2.331-24.334-2.331l-1.166-8.014-2.331,7.14a5.879,5.879,0,0,1-3.643-4.371c-.291-2.914,2.914-27.54,3.5-32.348-1.02-9.908-3.06-24.625-3.643-31.182C364.671,215.362,364.234,208.368,363.943,202.394Z" transform="translate(-319.646 -153.633)" fill="#25437f"/>
                  <path id="Path_2995" data-name="Path 2995" d="M399.465,169s-5.828,4.954-19.525,6.994l-2.04,4.954a33.742,33.742,0,0,0,12.094.583c6.848-.729,12.385-6.12,12.968-7.431l.583-1.166Z" transform="translate(-311.31 -153.607)" fill="#f9fbfc"/>
                </g>
              </g>
              <path id="Path_2996" data-name="Path 2996" d="M415.563,156.716s0-9.18-10.054-12.094-11.22-1.6-14.134-3.643c-2.769-2.04-6.411-2.477-11.657-.874s-5.974,6.848-4.371,11.657,2.477,7.577,6.411,9.617c4.08,2.04,3.206,6.848,3.206,6.848s-.874,5.246,2.04,7.286l2.477-5.974s2.04,6.848,4.08,9.18c2.04,2.477,6.411,3.643,10.783,3.643S414.4,171.579,416,167.936s-1.6-6.848-1.6-6.848A4.19,4.19,0,0,0,415.563,156.716Z" transform="translate(-319.393 -139.132)" fill="#25437f"/>
              <path id="Path_2997" data-name="Path 2997" d="M367.731,200.831c4.08-9.617,18.505-7.286,37.739-14.425,9.326-3.5,10.491-8.888,9.326-13.405,3.643,4.663,5.391,11.511,4.809,19.525-.729,9.18-3.206,19.38-6.411,29.871-1.457,4.517-2.331,12.386-2.769,19.671a31.653,31.653,0,0,0,1.311,9.763c2.04,4.808,3.934,23.9,3.934,23.9s-13.551,13.988-31.182,15.154c-9.763.729-16.174-.146-19.963-1.02-2.769-20.108,9.617-30.017,12.677-39.2C380.553,240.9,363.651,210.448,367.731,200.831Z" transform="translate(-307.406 -123.651)" fill="#252f4c"/>
              <path id="Path_2998" data-name="Path 2998" d="M375.393,143.36c1.894-3.351,5.391-3.351,8.16-2.769h0c2.768,2.04,4.08.874,14.134,3.643a13.046,13.046,0,0,1,10.054,12.094,4.054,4.054,0,0,1-1.166,4.371s3.206,3.206,1.6,6.848a51.262,51.262,0,0,1-7.14,11.657c-6.266-1.02-8.888-6.266-7.868-9.471,1.6-4.809-3.788-.583-5.391-3.643-1.6-3.206,5.391-5.391-1.6-11.8C379.181,147.586,372.187,149.189,375.393,143.36Z" transform="translate(-311.571 -138.599)" fill="#252f4c"/>
            </g>
            <g id="Group_17227" data-name="Group 17227" transform="translate(0 67.271)">
              <g id="Group_17224" data-name="Group 17224" transform="translate(0 34.215)">
                <path id="Path_2999" data-name="Path 2999" d="M469.04,218.571l-3.351-.729s-5.683-4.517-6.411-4.663c-.729-.291-7.577-5.391-8.306-4.226s.146,2.186,1.02,2.914c1.02.583,2.914,1.6,2.914,1.6l1.749,2.477a10.844,10.844,0,0,0-1.166,2.769c0,1.02.146,2.477.146,2.477a4.212,4.212,0,0,0,.292,3.5,5.365,5.365,0,0,0,4.517,2.623c1.457-.146,4.663-.437,4.663-.437l2.186.291Z" transform="translate(-450.7 -208.781)" fill="#ff8e54"/>
                <path id="Path_3000" data-name="Path 3000" d="M451.418,221.191a3.6,3.6,0,0,1-.437-2.623c.874.874,2.04,2.04,2.914,2.186,1.6.146,3.643,1.6,4.954-.583a18.452,18.452,0,0,1,4.226-4.08l1.311-.291-1.6,7.868-2.186-.291s-3.206.291-4.663.437A5.386,5.386,0,0,1,451.418,221.191Z" transform="translate(-446.338 -205.573)" fill="#ff5f4d"/>
              </g>
              <g id="Group_17226" data-name="Group 17226" transform="translate(14.114)">
                <path id="Path_3001" data-name="Path 3001" d="M455.977,215.329l-4.226-.729a8.047,8.047,0,0,0-3.351,6.12c0,3.788,1.311,5.246,1.311,5.246l3.351.437Z" transform="translate(-448.4 -171.906)" fill="#cbdceb"/>
                <g id="Group_17225" data-name="Group 17225" transform="translate(2.371)">
                  <path id="Path_3002" data-name="Path 3002" d="M464.245,185.3s-4.371.729-7.723,8.306-14.425,33.077-17.048,35.117c-2.768,2.04-35.554-1.6-35.554-1.6s-6.557,4.226-4.954,9.617c1.6,4.809,3.643,4.371,3.643,4.371s32.2,7.431,38.759,8.16a14.14,14.14,0,0,0,10.783-3.06c1.6-1.02,14.863-26.665,17.631-30.891s9.908-19.234,4.663-24.625C469.053,185.154,464.245,185.3,464.245,185.3Z" transform="translate(-398.713 -185.3)" fill="#25437f"/>
                  <path id="Path_3003" data-name="Path 3003" d="M402.675,240.688s-2.186.437-3.643-4.371a5.979,5.979,0,0,1,0-3.206c3.788,1.166,9.034,2.623,14.425,3.934,10.2,2.331,23.168,4.663,32.348,1.6s18.505-25.5,22-37.739A29.164,29.164,0,0,0,468.1,185.9a19.65,19.65,0,0,1,6.266,4.371c5.246,5.391-1.894,20.4-4.663,24.625s-15.883,29.871-17.631,30.891a14.14,14.14,0,0,1-10.783,3.06C435.023,248.265,402.675,240.688,402.675,240.688Z" transform="translate(-398.78 -185.025)" fill="#252f4c"/>
                </g>
              </g>
            </g>
          </g>
          <g id="Group_17250" data-name="Group 17250" transform="translate(283.41 72.861)">
            <g id="Group_17234" data-name="Group 17234">
              <g id="Group_17229" data-name="Group 17229" transform="translate(17.194)">
                <path id="Path_3004" data-name="Path 3004" d="M372.669,152.87,371.941,383.1,240.8,307.325,241.529,77.1Z" transform="translate(-240.8 -77.1)" fill="#cbdceb"/>
              </g>
              <g id="Group_17233" data-name="Group 17233" transform="translate(0 6.994)">
                <g id="Group_17230" data-name="Group 17230" transform="translate(131.286 75.77)">
                  <path id="Path_3005" data-name="Path 3005" d="M250.083,136.523,254.6,133.9l-.583,230.225-4.517,2.623Z" transform="translate(-249.5 -133.9)" fill="#bdc5cb"/>
                </g>
                <g id="Group_17231" data-name="Group 17231" transform="translate(0.729)">
                  <path id="Path_3006" data-name="Path 3006" d="M249.5,84.523l4.517-2.623,131.141,75.77-4.517,2.623Z" transform="translate(-249.5 -81.9)" fill="#fff"/>
                </g>
                <g id="Group_17232" data-name="Group 17232" transform="translate(0 2.623)">
                  <path id="Path_3007" data-name="Path 3007" d="M384.469,159.47,383.886,389.7,252.6,313.925,253.329,83.7Z" transform="translate(-252.6 -83.7)" fill="#eaf1f7"/>
                </g>
              </g>
            </g>
            <g id="Group_17241" data-name="Group 17241" transform="translate(28.56 59.013)">
              <g id="Group_17235" data-name="Group 17235">
                <path id="Path_3008" data-name="Path 3008" d="M271,117.6v3.351l76.353,44.005.146-3.206Z" transform="translate(-271 -117.6)" fill="#254da1"/>
              </g>
              <g id="Group_17236" data-name="Group 17236" transform="translate(33.077 32.348)">
                <path id="Path_3009" data-name="Path 3009" d="M271.1,139.8v3.206l43.276,25.062v-3.351Z" transform="translate(-271.1 -139.8)" fill="#254da1"/>
              </g>
              <g id="Group_17237" data-name="Group 17237" transform="translate(6.12 81.453)">
                <path id="Path_3010" data-name="Path 3010" d="M271.2,173.5v3.206l70.087,40.508v-3.351Z" transform="translate(-271.2 -173.5)" fill="#254da1"/>
              </g>
              <g id="Group_17238" data-name="Group 17238" transform="translate(32.931 82.327)">
                <path id="Path_3011" data-name="Path 3011" d="M271.2,174.1v3.206l43.276,25.062v-3.351Z" transform="translate(-271.2 -174.1)" fill="#254da1"/>
              </g>
              <g id="Group_17239" data-name="Group 17239" transform="translate(21.42 62.365)">
                <path id="Path_3012" data-name="Path 3012" d="M271.1,160.4v3.351l54.788,31.619.146-3.206Z" transform="translate(-271.1 -160.4)" fill="#254da1"/>
              </g>
              <g id="Group_17240" data-name="Group 17240" transform="translate(56.536 60.47)">
                <path id="Path_3013" data-name="Path 3013" d="M271.1,159.1v3.206l19.817,11.511v-3.351Z" transform="translate(-271.1 -159.1)" fill="#254da1"/>
              </g>
            </g>
            <g id="Group_17244" data-name="Group 17244" transform="translate(53.209 189.928)">
              <g id="Group_17242" data-name="Group 17242" transform="translate(0)">
                <path id="Path_3014" data-name="Path 3014" d="M309.475,211.605c-12.24-6.994-23.751-5.246-28.414,5.828-5.974,13.843.874,37.157,15.154,53.331l3.351-7.723c-9.763-11.365-14.28-27.394-10.054-37.011,3.351-7.868,11.511-9.034,20.108-4.08a34.836,34.836,0,0,1,6.266,4.663l3.351-7.723A58.4,58.4,0,0,0,309.475,211.605Z" transform="translate(-278.9 -207.445)" fill="#3f5078"/>
              </g>
              <g id="Group_17243" data-name="Group 17243" transform="translate(17.315 11.446)">
                <path id="Path_3015" data-name="Path 3015" d="M287.681,215.3l-3.351,7.723a16.625,16.625,0,0,1,1.6,1.6c11.074,11.366,16.465,28.851,12.094,39.051a3.653,3.653,0,0,1-.583,1.02c0,.146-.146.291-.146.437-3.206,5.683-9.326,6.994-16.174,4.226a32.86,32.86,0,0,1-3.206-1.6,3.048,3.048,0,0,1-.874-.583,10.222,10.222,0,0,1-1.311-.874l-.146-.146a31.992,31.992,0,0,1-2.623-2.04l-.291-.291a6.338,6.338,0,0,0-1.02-.874c-.146-.146-.291-.146-.291-.291a9.43,9.43,0,0,0-1.311-1.166,25.332,25.332,0,0,1-1.894-2.186l-3.351,7.723a26.043,26.043,0,0,0,1.894,2.04l1.749,1.749.437.437a9.43,9.43,0,0,0,1.311,1.166l.437.437c1.166,1.02,2.477,2.04,3.643,2.914.146,0,.146.146.291.146.583.437,1.166.729,1.749,1.166l.146.146c.437.291.729.437,1.166.729a25.322,25.322,0,0,0,2.769,1.457c.729.291,1.311.583,2.04.874,10.346,4.08,19.671,1.457,23.751-8.16,6.266-14.425-1.457-39.342-17.048-55.371Z" transform="translate(-264.804 -215.3)" fill="#a9e3e4"/>
              </g>
            </g>
            <g id="Group_17249" data-name="Group 17249" transform="translate(11.22 197.584)">
              <g id="Group_17245" data-name="Group 17245" transform="translate(0.146)">
                <path id="Path_3016" data-name="Path 3016" d="M338.546,218.529v1.6a1.289,1.289,0,0,1-1.894,1.166l-7.868-4.517a1.183,1.183,0,0,1-.583-1.166v-1.6a1.289,1.289,0,0,1,1.894-1.166l7.868,4.517A1.8,1.8,0,0,1,338.546,218.529Z" transform="translate(-328.2 -212.699)" fill="#254da1"/>
              </g>
              <g id="Group_17246" data-name="Group 17246" transform="translate(0.146 8.451)">
                <path id="Path_3017" data-name="Path 3017" d="M346.408,238.609v1.6a1.289,1.289,0,0,1-1.894,1.166l-32.931-18.8a1.183,1.183,0,0,1-.583-1.166v-1.6a1.289,1.289,0,0,1,1.894-1.166l32.931,18.8A1.8,1.8,0,0,1,346.408,238.609Z" transform="translate(-311 -218.499)" fill="#254da1"/>
              </g>
              <g id="Group_17247" data-name="Group 17247" transform="translate(0 25.062)" opacity="0.53">
                <path id="Path_3018" data-name="Path 3018" d="M342.257,242.286v1.6a1.289,1.289,0,0,1-1.894,1.166l-19.38-11.074a1.183,1.183,0,0,1-.583-1.166v-1.6a1.289,1.289,0,0,1,1.894-1.166l19.38,11.074C342.111,241.266,342.257,241.7,342.257,242.286Z" transform="translate(-320.4 -229.899)" fill="#254da1"/>
              </g>
              <g id="Group_17248" data-name="Group 17248" transform="translate(0.146 16.757)">
                <path id="Path_3019" data-name="Path 3019" d="M344.808,241.394V243a1.289,1.289,0,0,1-1.894,1.166L315.083,228.28a1.183,1.183,0,0,1-.583-1.166v-1.6a1.289,1.289,0,0,1,1.894-1.166l27.685,15.883A1.486,1.486,0,0,1,344.808,241.394Z" transform="translate(-314.5 -224.199)" fill="#254da1"/>
              </g>
            </g>
          </g>
        </g>
      </g>
    </g>
  </g>
</svg>
