<svg xmlns="http://www.w3.org/2000/svg" xmlns:xlink="http://www.w3.org/1999/xlink" width="754" height="700.981" viewBox="0 0 754 700.981">
  <defs>
    <linearGradient id="linear-gradient" x1="1" y1="0.5" x2="0" y2="0.5" gradientUnits="objectBoundingBox">
      <stop offset="0" stop-color="#fff"/>
      <stop offset="1" stop-color="#cbdceb"/>
    </linearGradient>
    <linearGradient id="linear-gradient-2" x1="0.593" y1="0.058" x2="0.25" y2="1.689" xlink:href="#linear-gradient"/>
  </defs>
  <g id="Group_17571" data-name="Group 17571" transform="translate(-945 -3341)">
    <circle id="Ellipse_120" data-name="Ellipse 120" cx="27.5" cy="27.5" r="27.5" transform="translate(1000 3451)" fill="#cbdceb"/>
    <path id="Polygon_4" data-name="Polygon 4" d="M22.3,2.768a2,2,0,0,1,3.407,0L46.124,35.952A2,2,0,0,1,44.421,39H3.579a2,2,0,0,1-1.7-3.048Z" transform="translate(1699 3694.448) rotate(98)" fill="#cbdceb"/>
    <g id="Ellipse_121" data-name="Ellipse 121" transform="translate(945 3758)" fill="none" stroke="#3f5078" stroke-width="3">
      <circle cx="15" cy="15" r="15" stroke="none"/>
      <circle cx="15" cy="15" r="13.5" fill="none"/>
    </g>
    <g id="Ellipse_123" data-name="Ellipse 123" transform="translate(1648 3889)" fill="none" stroke="#3f5078" stroke-width="3">
      <circle cx="15" cy="15" r="15" stroke="none"/>
      <circle cx="15" cy="15" r="13.5" fill="none"/>
    </g>
    <path id="Polygon_5" data-name="Polygon 5" d="M22.3,2.768a2,2,0,0,1,3.407,0L46.124,35.952A2,2,0,0,1,44.421,39H3.579a2,2,0,0,1-1.7-3.048Z" transform="translate(1289.65 3994.448) rotate(98)" fill="#cbdceb"/>
    <path id="Path_2899" data-name="Path 2899" d="M164.067,329.521s84.8-37.885,154.892-32.348c63.53,4.954,73.585,14.134,104.913,10.054-8.014,20.108-42.4,86.7-112.927,111.032-70.67,24.188-139.155,12.094-165.383-8.014C119.042,390.138,147.893,337.681,164.067,329.521Z" transform="translate(1266.127 3437.108)" fill="#cbdceb"/>
    <path id="Path_2900" data-name="Path 2900" d="M383.133,313S262.047,365.893,153.2,355.4" transform="translate(1280.055 3444.595)" fill="none" stroke="#fff" stroke-miterlimit="10" stroke-width="1.226"/>
    <line id="Line_7" data-name="Line 7" x1="43.422" y1="17.485" transform="translate(1590.915 3782.512)" fill="none" stroke="#fff" stroke-miterlimit="10" stroke-width="1.226"/>
    <path id="Path_2901" data-name="Path 2901" d="M243.065,314.3c0,1.166-21.565,33.659-21.565,33.659" transform="translate(1320.602 3445.189)" fill="none" stroke="#fff" stroke-miterlimit="10" stroke-width="1.226"/>
    <path id="Path_2902" data-name="Path 2902" d="M557.612,371.28s-25.937-66.882-67.465-102c-37.594-31.765-48.085-32.348-63.093-51.582-6.557,15.445-23.9,70.67,1.6,122.4,25.645,51.728,69.8,82.327,95.3,85.533C549.306,428.982,562.129,384.54,557.612,371.28Z" transform="translate(722.938 3401.031)" fill="#cbdceb"/>
    <path id="Path_2903" data-name="Path 2903" d="M429.4,232.7s37.594,95,103.31,148.48" transform="translate(728.023 3407.888)" fill="none" stroke="#fff" stroke-miterlimit="10" stroke-width="0.948"/>
    <line id="Line_8" data-name="Line 8" x2="33.368" y2="14.134" transform="translate(1150.283 3679.493)" fill="none" stroke="#fff" stroke-miterlimit="10" stroke-width="0.948"/>
    <path id="Path_2904" data-name="Path 2904" d="M469.911,270.6c-.583.583-6.411,30.162-6.411,30.162" transform="translate(741.133 3425.213)" fill="none" stroke="#fff" stroke-miterlimit="10" stroke-width="0.948"/>
    <path id="Path_2905" data-name="Path 2905" d="M170.759,408.553s20.108-108.993,90.779-159.409S380.585,198.728,422.987,172.5c0,0,4.08,42.4-24.188,106.953s-62.51,117.007-127.061,145.275C207.188,452.85,170.759,408.553,170.759,408.553Z" transform="translate(1214.412 3380.37)" fill="#3f5078"/>
    <path id="Path_2906" data-name="Path 2906" d="M373.017,189.1S256.01,328.255,183.3,390.911" transform="translate(1246.313 3387.958)" fill="none" stroke="#fff" stroke-miterlimit="10" stroke-width="1.226"/>
    <line id="Line_9" data-name="Line 9" x1="49.396" y2="6.12" transform="translate(1554.779 3646.563)" fill="none" stroke="#fff" stroke-miterlimit="10" stroke-width="1.226"/>
    <line id="Line_10" data-name="Line 10" x2="13.114" y2="55.516" transform="translate(1506.258 3633.448)" fill="none" stroke="#fff" stroke-miterlimit="10" stroke-width="1.226"/>
    <line id="Line_11" data-name="Line 11" x1="61.49" y1="3.06" transform="translate(1472.016 3739.381)" fill="none" stroke="#fff" stroke-miterlimit="10" stroke-width="1.226"/>
    <path id="Path_2907" data-name="Path 2907" d="M694.739,387.707s-43.131-78.393-110.158-99.23C517.553,267.786,480.4,280.026,441.2,270.7c0,0,7.723,33.514,45.754,75.916s77.664,73.876,134.492,79.122S694.739,387.707,694.739,387.707Z" transform="translate(548.801 3425.259)" fill="#3f5078"/>
    <path id="Path_2908" data-name="Path 2908" d="M466.3,280.3s125.167,77.082,196.711,106.515" transform="translate(543.953 3429.647)" fill="none" stroke="#fff" stroke-miterlimit="10" stroke-width="0.991"/>
    <line id="Line_12" data-name="Line 12" y1="7.868" x2="39.488" transform="translate(1039.543 3751.621)" fill="none" stroke="#fff" stroke-miterlimit="10" stroke-width="0.991"/>
    <line id="Line_13" data-name="Line 13" x2="4.08" y2="45.899" transform="translate(1111.232 3724.518)" fill="none" stroke="#fff" stroke-miterlimit="10" stroke-width="0.991"/>
    <line id="Line_14" data-name="Line 14" y1="17.923" x2="46.336" transform="translate(1118.08 3797.083)" fill="none" stroke="#fff" stroke-miterlimit="10" stroke-width="0.991"/>
    <path id="Path_2909" data-name="Path 2909" d="M301.266,418.119c-20.983,12.094-21.128,31.765-.291,44L399.038,519.1c20.837,12.094,54.933,12.094,75.916,0L573.6,462.124c20.982-12.094,21.128-31.765.291-44l-98.064-56.973c-20.837-12.094-54.933-12.094-75.916,0Z" transform="translate(881.074 3462.457)" fill="url(#linear-gradient)"/>
    <path id="Path_2910" data-name="Path 2910" d="M301.266,400.019c-20.983,12.094-21.128,31.765-.291,44.005L399.038,501c20.837,12.094,54.933,12.094,75.916,0L573.6,444.024c20.982-12.094,21.128-31.765.291-44.005l-98.064-56.973c-20.837-12.094-54.933-12.094-75.916,0Z" transform="translate(881.074 3454.183)" fill="none" stroke="#a9e3e4" stroke-miterlimit="10" stroke-width="0.926"/>
    <path id="Path_2911" data-name="Path 2911" d="M278.424,363.931,401.4,435.476c26.228,15.3,68.776,15.3,95.15,0L620.41,363.931c13.26-7.723,19.963-17.777,19.817-27.831v14.28c0,10.054-6.557,20.108-19.817,27.831L496.554,449.755c-26.374,15.3-69.067,15.3-95.15,0L278.424,378.211c-12.968-7.577-19.525-17.485-19.525-27.394v-14.28C258.9,346.446,265.455,356.354,278.424,363.931Z" transform="translate(868.945 3455.155)" fill="#3f5078"/>
    <path id="Path_2912" data-name="Path 2912" d="M278.734,343.344c-26.374,15.3-26.52,39.925-.291,55.225l122.981,71.545c26.228,15.3,68.776,15.3,95.15,0l123.855-71.545c26.374-15.3,26.52-39.925.291-55.225L497.739,271.8c-26.228-15.3-68.776-15.3-95.15,0Z" transform="translate(868.926 3420.516)" fill="url(#linear-gradient-2)"/>
    <path id="Path_2913" data-name="Path 2913" d="M432.174,108.992,569,30.016c5.974-3.351,11.22-3.789,15.154-1.457l11.365,6.557c-3.934-2.186-9.18-1.894-15.154,1.457L443.539,115.549c-11.8,6.848-21.274,23.168-21.274,36.719l.146,47.211c0,6.7,2.331,11.366,6.266,13.7l-11.366-6.557c-3.788-2.186-6.12-6.994-6.266-13.7l-.146-47.211C410.9,132.305,420.371,115.84,432.174,108.992Z" transform="translate(692.172 3313.903)" fill="#3f5078"/>
    <path id="Path_2914" data-name="Path 2914" d="M427.874,113.478c-11.8,6.848-21.274,23.168-21.274,36.719l.146,47.211c0,13.551,9.617,18.943,21.42,12.24l136.823-78.976c11.8-6.848,21.274-23.168,21.274-36.719l-.146-47.211c0-13.551-9.617-18.943-21.42-12.24Z" transform="translate(707.693 3315.974)" fill="#d3f2f4"/>
    <path id="Path_2915" data-name="Path 2915" d="M432.174,195.092,569,116.116c5.974-3.351,11.22-3.789,15.154-1.457l11.365,6.557c-3.934-2.186-9.18-1.894-15.154,1.457L443.539,201.649c-11.8,6.848-21.274,23.168-21.274,36.719l.146,47.211c0,6.7,2.331,11.366,6.266,13.7l-11.366-6.557c-3.788-2.186-6.12-6.994-6.266-13.7l-.146-47.211C410.9,218.405,420.371,201.94,432.174,195.092Z" transform="translate(692.172 3353.261)" fill="#3f5078"/>
    <path id="Path_2916" data-name="Path 2916" d="M427.874,199.578c-11.8,6.848-21.274,23.168-21.274,36.719l.146,47.211c0,13.551,9.617,18.943,21.42,12.24l136.823-78.976c11.8-6.848,21.274-23.168,21.274-36.719l-.146-47.211c0-13.551-9.617-18.943-21.42-12.24Z" transform="translate(707.693 3355.332)" fill="#d3f2f4"/>
    <path id="Path_2917" data-name="Path 2917" d="M512.3,138.6a.508.508,0,0,0,.291.146C512.446,138.746,512.446,138.6,512.3,138.6Z" transform="translate(627.346 3364.873)" fill="#a6d0f4"/>
    <path id="Path_2918" data-name="Path 2918" d="M492.1,134.091l.291-.291C492.391,133.946,492.246,133.946,492.1,134.091Z" transform="translate(676.98 3362.679)" fill="#a6d0f4"/>
    <path id="Path_2919" data-name="Path 2919" d="M499.1,138.8Z" transform="translate(660.072 3364.965)" fill="#a6d0f4"/>
    <path id="Path_2920" data-name="Path 2920" d="M499.4,139.046c.146,0,.291-.146.437-.146A.535.535,0,0,1,499.4,139.046Z" transform="translate(658.896 3365.01)" fill="#a6d0f4"/>
    <path id="Path_2921" data-name="Path 2921" d="M511,139.4c.146,0,.146.146.291.146C511.146,139.546,511,139.546,511,139.4Z" transform="translate(630.541 3365.239)" fill="#a6d0f4"/>
    <path id="Path_2922" data-name="Path 2922" d="M485.2,125.937c.146-.146.146-.291.291-.437C485.346,125.646,485.346,125.791,485.2,125.937Z" transform="translate(693.936 3358.885)" fill="#a6d0f4"/>
    <path id="Path_2923" data-name="Path 2923" d="M482.9,123.731a17.384,17.384,0,0,0,1.166-2.331C483.774,122.129,483.337,122.857,482.9,123.731Z" transform="translate(698.711 3357.011)" fill="#a6d0f4"/>
    <path id="Path_2924" data-name="Path 2924" d="M485.6,128.286a18.987,18.987,0,0,0,1.457-2.186C486.62,126.829,486.037,127.557,485.6,128.286Z" transform="translate(691.785 3359.159)" fill="#a6d0f4"/>
    <path id="Path_2925" data-name="Path 2925" d="M486.6,128.037c.146-.146.146-.291.291-.437C486.746,127.746,486.6,127.891,486.6,128.037Z" transform="translate(690.494 3359.845)" fill="#a6d0f4"/>
    <path id="Path_2926" data-name="Path 2926" d="M487.9,129.783c.146-.146.291-.437.437-.583h0A2.012,2.012,0,0,1,487.9,129.783Z" transform="translate(687.154 3360.576)" fill="#a6d0f4"/>
    <path id="Path_2927" data-name="Path 2927" d="M504.118,146.383h0c.291-.146.437-.291.583-.291.146-.146.291-.146.437-.291a.143.143,0,0,0,.146-.146c.146,0,.146-.146.292-.146a.143.143,0,0,0,.146-.146c.146,0,.146-.146.291-.146a.143.143,0,0,0,.146-.146c.146,0,.146-.146.291-.146a.143.143,0,0,0,.146-.146c.146,0,.146-.146.291-.146a.143.143,0,0,0,.146-.146c.146,0,.146-.146.291-.146a.143.143,0,0,0,.146-.146c.146,0,.146-.146.291-.146.291-.146.291-.291.437-.291.146-.146.291-.146.437-.291a.143.143,0,0,0,.146-.146c.146,0,.146-.146.291-.146a.143.143,0,0,0,.146-.146c.146,0,.146-.146.291-.146a.143.143,0,0,0,.146-.146c.146,0,.146-.146.292-.146a.143.143,0,0,0,.146-.146c.146,0,.146-.146.291-.146a.143.143,0,0,0,.146-.146c.146,0,.146-.146.291-.146a.143.143,0,0,0,.146-.146l.291-.291c.146-.146.291-.291.437-.291.146-.146.291-.146.291-.291l.292-.291a.143.143,0,0,0,.146-.146c.146,0,.146-.146.291-.146l.146-.146c.146,0,.146-.146.291-.291a.143.143,0,0,0,.146-.146l.291-.291.437-.437.729-.729.291-.291.291-.291.291-.291c.146-.146.291-.291.291-.437.146-.146.291-.291.291-.437.437-.437.729-.874,1.02-1.166.146-.146.291-.291.291-.437.146-.146.291-.291.291-.437.146-.146.291-.291.291-.437.146-.146.291-.291.291-.437.146-.146.291-.291.291-.437a15.489,15.489,0,0,1,1.311-1.6c.146-.146.146-.291.291-.437s.291-.291.291-.437c.146-.146.291-.291.291-.437a18.98,18.98,0,0,0,1.457-2.186c.146-.146.146-.291.291-.437s.146-.291.291-.437a27.07,27.07,0,0,0,1.6-2.769c.146-.146.146-.291.292-.437s.146-.291.291-.437c.437-.874.874-1.6,1.311-2.331-4.663-.874-13.988-1.02-14.425-1.02a7.568,7.568,0,0,1-.437.729c-1.02,1.457-3.643,5.1-7.286,7.14a9.347,9.347,0,0,1-7.431,1.166c-.146,0-.291-.146-.437-.146-.437.583-8.888,10.491-13.7,16.757l.437.437c.146.146.146.146.291.146.146.146.146.146.291.146.146.146.146.146.292.146.146.146.146.146.291.146l.874.437c.146,0,.146.146.291.146s.146.146.291.146.146.146.291.146l.874.437c.146,0,.146.146.291.146s.146.146.291.146a.509.509,0,0,1,.291.146,9.286,9.286,0,0,0,1.02.291h1.166a1.314,1.314,0,0,1,.729.146h3.5a1.314,1.314,0,0,0,.729-.146h1.6a1.848,1.848,0,0,1,.874-.146c.146,0,.291-.146.437-.146H498c.146,0,.146,0,.291-.146h.146c.146,0,.146,0,.291-.146h.146c.146,0,.146,0,.291-.146h.146c.146,0,.146-.146.292-.146s.291-.146.437-.146.291-.146.437-.146h.146c.146,0,.146,0,.291-.146h.146c.146,0,.146,0,.291-.146h.146c.146,0,.146,0,.291-.146h.146c.146,0,.146-.146.291-.146a1.12,1.12,0,0,0,.437-.291.535.535,0,0,1,.437-.146h.146c.146,0,.146-.146.291-.146a.143.143,0,0,0,.146-.146c.146,0,.146-.146.291-.146a.143.143,0,0,0,.146-.146c.146,0,.146-.146.291-.146a.143.143,0,0,0,.146-.146C503.827,146.528,503.973,146.528,504.118,146.383Z" transform="translate(656.656 3356.508)" fill="#a9e3e4"/>
    <path id="Path_2928" data-name="Path 2928" d="M487.3,129.52h0c.291-.291.583-.729.874-1.02h0C487.883,128.791,487.591,129.229,487.3,129.52Z" transform="translate(688.191 3360.256)" fill="#a6d0f4"/>
    <path id="Path_2929" data-name="Path 2929" d="M487.3,128.5Z" transform="translate(689.064 3360.256)" fill="#a6d0f4"/>
    <path id="Path_2930" data-name="Path 2930" d="M488.6,130.491l.291-.291Z" transform="translate(685.58 3361.033)" fill="#a6d0f4"/>
    <path id="Path_2931" data-name="Path 2931" d="M489.1,131.137c.146-.146.146-.291.291-.437C489.246,130.846,489.1,130.991,489.1,131.137Z" transform="translate(684.352 3361.262)" fill="#a6d0f4"/>
    <path id="Path_2932" data-name="Path 2932" d="M489.3,132.166c.291-.437.729-.729,1.02-1.166A7.3,7.3,0,0,0,489.3,132.166Z" transform="translate(683.131 3361.399)" fill="#a6d0f4"/>
    <path id="Path_2933" data-name="Path 2933" d="M490.5,132.591l.291-.291Z" transform="translate(680.912 3361.993)" fill="#a6d0f4"/>
    <path id="Path_2934" data-name="Path 2934" d="M491.1,133.191l.291-.291Z" transform="translate(679.438 3362.268)" fill="#a6d0f4"/>
    <path id="Path_2935" data-name="Path 2935" d="M491.3,133.729l.729-.729A1.756,1.756,0,0,1,491.3,133.729Z" transform="translate(678.508 3362.313)" fill="#a6d0f4"/>
    <path id="Path_2936" data-name="Path 2936" d="M492.6,134.446c.146,0,.146-.146.291-.146A.509.509,0,0,1,492.6,134.446Z" transform="translate(675.752 3362.908)" fill="#a6d0f4"/>
    <path id="Path_2937" data-name="Path 2937" d="M493.6,135.491l.291-.291A.313.313,0,0,0,493.6,135.491Z" transform="translate(673.295 3363.319)" fill="#a6d0f4"/>
    <path id="Path_2938" data-name="Path 2938" d="M509.4,140.1c.146,0,.146,0,.291.146C509.546,140.246,509.4,140.246,509.4,140.1Z" transform="translate(634.471 3365.559)" fill="#a6d0f4"/>
    <path id="Path_2939" data-name="Path 2939" d="M490.393,108.614l-.291,3.643c0,.437-.146.874-.146,1.457.146,0,.146,0,.291-.146a.143.143,0,0,0,.146-.146c2.186-1.749,3.351-7.577,1.894-7.723a1.314,1.314,0,0,0-.729.146c-.146.146-.437.291-.583.437-.291,1.311-.583,2.331-.583,2.477Z" transform="translate(679.561 3349.834)" fill="#cbdceb"/>
    <path id="Path_2940" data-name="Path 2940" d="M511.3,139.1a3.184,3.184,0,0,1,.729.437A3.185,3.185,0,0,0,511.3,139.1Z" transform="translate(629.365 3365.102)" fill="#a6d0f4"/>
    <path id="Path_2941" data-name="Path 2941" d="M494.166,129.157A14.576,14.576,0,0,1,493,131.2a9.976,9.976,0,0,0,7.431-1.166,25.913,25.913,0,0,0,7.286-7.14,5.175,5.175,0,0,1-1.311-.583,17.676,17.676,0,0,1-1.02-4.808l-3.06,4.371a4.273,4.273,0,0,1-1.894,1.749,2.431,2.431,0,0,1-1.894.437l-3.06-.874h-.146C495.04,124.348,494.749,127.117,494.166,129.157Z" transform="translate(660.344 3355.228)" fill="#cbdceb"/>
    <path id="Path_2942" data-name="Path 2942" d="M512,138.8l.146.146A.143.143,0,0,1,512,138.8Z" transform="translate(628.229 3364.965)" fill="#a6d0f4"/>
    <path id="Path_2943" data-name="Path 2943" d="M512.2,138.7l.146.146A.143.143,0,0,1,512.2,138.7Z" transform="translate(627.738 3364.919)" fill="#a6d0f4"/>
    <path id="Path_2944" data-name="Path 2944" d="M493.84,116.415a6.259,6.259,0,0,1-1.311.583l-.729,5.537.146,1.894c0,.437.146.729.146,1.02a5.646,5.646,0,0,0,3.643,4.663h.146l3.06.874a2.43,2.43,0,0,0,1.894-.437,7.131,7.131,0,0,0,1.894-1.749l3.06-4.371v-.146a22.5,22.5,0,0,0,3.789-8.888,4.489,4.489,0,0,0,.146-1.457l.291-3.643-2.477-8.014s-.437-.583-1.311,0a5.925,5.925,0,0,0-2.04,2.186c-2.477,3.5-2.769,6.557-6.849,9.617C495.588,115.25,494.568,115.978,493.84,116.415Z" transform="translate(659.793 3348.153)" fill="#cbdceb"/>
    <path id="Path_2945" data-name="Path 2945" d="M504.847,114.874c-1.457,1.749-.291,6.266,1.894,5.391a.143.143,0,0,0,.146-.146l.437-.437c0-.291-.146-.729-.146-1.02l-.146-1.894v.437a19.49,19.49,0,0,1-1.02-3.206.535.535,0,0,0-.437.146C505.284,114.437,505.138,114.729,504.847,114.874Z" transform="translate(644.418 3353.628)" fill="#cbdceb"/>
    <path id="Path_2946" data-name="Path 2946" d="M498.66,100.544a23.407,23.407,0,0,0-7.628,14.28,23.919,23.919,0,0,0,.587,7.431,19.388,19.388,0,0,0,1.027,3.206v-.437l.734-5.537a3.723,3.723,0,0,0,1.32-.583c.734-.437,1.907-1.166,3.521-2.331,4.254-3.06,4.547-6.12,6.894-9.617a10.252,10.252,0,0,1,2.054-2.186c.88-.583,1.32,0,1.32,0l2.494,8.014v.146s.293-1.02.587-2.477.733-3.351.88-4.517c.44-2.477-.733-7.286-2.494-8.888-1.467-1.311-5.134-1.02-8.8,1.166A13.082,13.082,0,0,1,498.66,100.544Z" transform="translate(658.891 3345.519)" fill="#3f5078"/>
    <path id="Path_2947" data-name="Path 2947" d="M513.427,134.778a7.571,7.571,0,0,0,.437-.729c.437,0,9.908.146,14.425,1.02,3.934-7.868,6.266-16.32,6.266-24.042,0-17.777-12.677-24.917-28.122-16.028s-27.977,30.6-27.831,48.376c0,7.723,2.477,13.551,6.557,16.757l-.437-.437c4.808-6.266,13.26-16.32,13.7-16.757.146,0,.291.146.437.146a9.288,9.288,0,0,0,1.166-2.04,34.94,34.94,0,0,0,1.02-6.266c-1.894-.583-3.206-2.186-3.643-4.663l-.437.437c-2.331.874-3.5-3.643-2.04-5.391a2.557,2.557,0,0,1,.729-.583.535.535,0,0,1,.437-.146A17.8,17.8,0,0,1,495.5,117a23.846,23.846,0,0,1,7.577-14.28,19.9,19.9,0,0,1,3.06-2.186c3.643-2.186,7.286-2.477,8.743-1.166,1.749,1.6,2.914,6.411,2.477,8.888-.146,1.311-.583,3.06-.874,4.517a2.011,2.011,0,0,1,.583-.437,1.092,1.092,0,0,1,.729-.146c1.457,0,.291,5.974-1.894,7.723-.291.146-.291.146-.437.146a22.5,22.5,0,0,1-3.789,8.888,17.591,17.591,0,0,0,1.02,4.954C512.552,134.486,512.989,134.632,513.427,134.778Z" transform="translate(654.488 3343.196)" fill="#25437f"/>
    <path id="Path_2948" data-name="Path 2948" d="M490.8,132.891l.291-.291Z" transform="translate(680.174 3362.131)" fill="#a6d0f4"/>
    <path id="Path_2949" data-name="Path 2949" d="M493.1,134.991l.291-.291C493.246,134.846,493.246,134.991,493.1,134.991Z" transform="translate(674.523 3363.091)" fill="#a6d0f4"/>
    <path id="Path_2950" data-name="Path 2950" d="M494.925,136.2Z" transform="translate(670.221 3363.776)" fill="#a6d0f4"/>
    <path id="Path_2951" data-name="Path 2951" d="M501.625,139.8Z" transform="translate(653.758 3365.422)" fill="#a6d0f4"/>
    <path id="Path_2952" data-name="Path 2952" d="M501.9,140.046c.146,0,.146,0,.291-.146C502.046,139.9,502.046,140.046,501.9,140.046Z" transform="translate(652.9 3365.468)" fill="#a6d0f4"/>
    <path id="Path_2953" data-name="Path 2953" d="M502.156,140Z" transform="translate(652.498 3365.513)" fill="#a6d0f4"/>
    <path id="Path_2954" data-name="Path 2954" d="M502.2,140.146c.146,0,.146,0,.292-.146A.452.452,0,0,0,502.2,140.146Z" transform="translate(652.164 3365.513)" fill="#a6d0f4"/>
    <path id="Path_2955" data-name="Path 2955" d="M505.3,140.6h0Z" transform="translate(644.545 3365.787)" fill="#a6d0f4"/>
    <path id="Path_2956" data-name="Path 2956" d="M506.5,140.6h.291C506.646,140.746,506.646,140.746,506.5,140.6Z" transform="translate(641.598 3365.787)" fill="#a6d0f4"/>
    <path id="Path_2957" data-name="Path 2957" d="M506.956,140.6Z" transform="translate(640.705 3365.787)" fill="#a6d0f4"/>
    <path id="Path_2958" data-name="Path 2958" d="M507.2,140.6h0Z" transform="translate(639.879 3365.787)" fill="#a6d0f4"/>
    <path id="Path_2959" data-name="Path 2959" d="M509.8,140c.146,0,.146,0,.292.146A.452.452,0,0,0,509.8,140Z" transform="translate(633.488 3365.513)" fill="#a6d0f4"/>
    <path id="Path_2960" data-name="Path 2960" d="M500.846,206.3c0,.146-.146.437-.146.583h.146Z" transform="translate(655.996 3395.82)" fill="#25437f"/>
    <path id="Path_2961" data-name="Path 2961" d="M491.249,186.191a12.829,12.829,0,0,1-1.02,3.934l-.291-.291-.292,2.623c0,.437-.146.874-.146,1.311.146,0,.146,0,.291-.146h0c1.457-1.166,2.477-4.371,2.477-6.266,0-.874-.146-1.457-.729-1.457C491.686,186.046,491.54,186.046,491.249,186.191Z" transform="translate(680.893 3386.495)" fill="#cbdceb"/>
    <path id="Path_2962" data-name="Path 2962" d="M495.02,203.026a26.7,26.7,0,0,1-1.02,6.557v.729a5.732,5.732,0,0,0,4.663-.437c.146,0,.146-.146.291-.146a.143.143,0,0,0,.146-.146,14.656,14.656,0,0,0,4.663-5.1h0A14.159,14.159,0,0,1,502.6,198.8l-1.749,2.477a4.273,4.273,0,0,1-1.894,1.749,2.43,2.43,0,0,1-1.894.437Z" transform="translate(662.84 3392.392)" fill="#cbdceb"/>
    <path id="Path_2963" data-name="Path 2963" d="M487.86,220.321c.874-1.02,1.894-2.331,3.06-3.643a8.844,8.844,0,0,0,.729,2.623c2.186,5.1,6.266,4.809,6.557,4.809a27.579,27.579,0,0,1-.874-6.266,16.14,16.14,0,0,1,.291-2.769c.146-.874.437-1.749.583-2.769a30.668,30.668,0,0,0,.291-3.643,5.731,5.731,0,0,0,4.663-.437c.146,0,.146-.146.291-.146a.143.143,0,0,0,.146-.146,14.655,14.655,0,0,0,4.663-5.1h0c.291,0,7.14-.729,10.346-.291,1.166.146,2.186,2.186,2.914,4.663-4.954,8.014-11.511,14.863-18.651,19.088-6.848,3.934-13.114,4.809-18.068,2.769C485.528,225.275,486.694,221.778,487.86,220.321Z" transform="translate(658.49 3394.04)" fill="#a9e3e4"/>
    <path id="Path_2964" data-name="Path 2964" d="M503.643,204.234a24.533,24.533,0,0,0,1.311-3.934,5.178,5.178,0,0,0,2.331,1.6c.146,0,.146,0,.292.146l1.166.291a26.7,26.7,0,0,1-1.02,6.557c0,.146-.146.437-.146.583h.146a30.655,30.655,0,0,1-.292,3.643,18.74,18.74,0,0,1-.583,2.769,17.856,17.856,0,0,0-.291,2.769,27.578,27.578,0,0,0,.874,6.266c-.146,0-4.226.291-6.557-4.808a8.846,8.846,0,0,1-.729-2.623c0-.437-.146-1.02-.146-1.457C500.146,212.1,502.04,208.023,503.643,204.234Z" transform="translate(649.117 3393.078)" fill="#3f5078"/>
    <path id="Path_2965" data-name="Path 2965" d="M491.291,203.728l1.166-5.391A35.447,35.447,0,0,0,506.591,182.6v1.457a13.132,13.132,0,0,0,1.894,6.7,3.181,3.181,0,0,0,.583.729l-.291,2.623c0,.437-.146.874-.146,1.311a22.5,22.5,0,0,1-3.789,8.888l-1.311,1.894h0l-1.749,2.477a4.273,4.273,0,0,1-1.894,1.749,2.43,2.43,0,0,1-1.894.437l-1.894-.583-1.166-.291c-.146,0-.146,0-.291-.146a5.177,5.177,0,0,1-2.331-1.6A7.7,7.7,0,0,1,491,205.331,3.9,3.9,0,0,0,491.291,203.728Z" transform="translate(661.906 3384.987)" fill="#cbdceb"/>
    <path id="Path_2966" data-name="Path 2966" d="M503.4,198.3Z" transform="translate(649.506 3392.163)" fill="#25437f"/>
    <path id="Path_2967" data-name="Path 2967" d="M503.546,198.3l-.146.146h0Z" transform="translate(649.361 3392.163)" fill="#25437f"/>
    <path id="Path_2968" data-name="Path 2968" d="M503.637,197.1l-.437,1.749A3.107,3.107,0,0,0,503.637,197.1Z" transform="translate(649.563 3391.615)" fill="#ff8d68"/>
    <path id="Path_2969" data-name="Path 2969" d="M504.5,194.546c-.146.146-.437.291-.583.583a2.788,2.788,0,0,0-.583,2.186c0,1.894,1.02,3.789,2.623,3.206h.146a.143.143,0,0,0,.146-.146l.291-.291a49.89,49.89,0,0,1-1.6-5.683c-.291.146-.291.146-.437.146Z" transform="translate(646.508 3390.381)" fill="#cbdceb"/>
    <path id="Path_2970" data-name="Path 2970" d="M506.629,175.927c-15.445,8.888-27.977,30.6-27.831,48.376,0,9.908,3.934,16.465,10.054,18.8.874-3.789,1.894-7.286,3.06-8.888.874-1.02,1.894-2.331,3.06-3.643,0-.437-.146-1.02-.146-1.457,0-3.934,1.894-8.16,3.5-11.948a24.538,24.538,0,0,0,1.311-3.934,7.7,7.7,0,0,1-1.311-2.914c-.146.146-.291.291-.291.437-1.749.729-2.769-1.311-2.769-3.06a3.512,3.512,0,0,1,.583-2.186l.583-.583c-.146-1.894-.437-3.934-.437-5.828v-1.457c.583-4.954,3.934-11.22,10.2-15.883.146-.146.292-.146.292-.291l1.311-.874c4.954-2.769,8.306-1.02,9.18,2.186a1.848,1.848,0,0,1,.146.874,34.625,34.625,0,0,1,.437,5.683,24.7,24.7,0,0,1-.146,3.351.876.876,0,0,1,.583-.146c.437,0,.729.583.729,1.457,0,1.894-1.02,4.954-2.477,6.266-.291.146-.291.146-.437.146a22.5,22.5,0,0,1-3.789,8.888l-1.311,1.894c.146,1.311.291,4.08,1.166,5.683.291,0,7.14-.729,10.346-.291,1.166.146,2.186,2.186,2.914,4.663,5.683-9.18,9.18-19.817,9.18-29.288C534.605,174.033,522.074,166.893,506.629,175.927Z" transform="translate(654.438 3380.148)" fill="#25437f"/>
    <path id="Path_2971" data-name="Path 2971" d="M490.391,195.279c.583-4.954,3.934-11.22,10.2-15.883.146-.146.291-.146.291-.291a12.823,12.823,0,0,1,1.457-.874h.146c4.808-2.769,8.014-1.02,9.034,2.331a1.848,1.848,0,0,1,.146.874,34.618,34.618,0,0,1,.437,5.683,24.7,24.7,0,0,1-.146,3.351h0a12.829,12.829,0,0,1-1.02,3.934l-.292-.291c-.146-.146-.291-.437-.583-.729a12.665,12.665,0,0,1-1.894-6.7v-1.457c-.146.437-3.5,9.326-14.134,15.737l-1.166,5.391-.437,1.749v.146a49.9,49.9,0,0,1-1.6-5.683,26.421,26.421,0,0,1-.729-5.683C490.246,196.3,490.246,195.716,490.391,195.279Z" transform="translate(660.184 3382.362)" fill="#3f5078"/>
    <path id="Path_2972" data-name="Path 2972" d="M418.094,106.35A4.2,4.2,0,0,0,416.2,109.7c0,1.166.874,1.749,1.894,1.02L496.05,65.7a4.2,4.2,0,0,0,1.894-3.351c0-1.311-.874-1.749-1.894-1.166Z" transform="translate(782.023 3329.367)" fill="#25437f"/>
    <path id="Path_2973" data-name="Path 2973" d="M418.094,101.057a4.155,4.155,0,0,0-1.894,3.206c0,1.166.874,1.749,1.894,1.166l55.516-32.057a4.2,4.2,0,0,0,1.894-3.351c0-1.166-.874-1.749-1.894-1.02Z" transform="translate(804.463 3332.912)" fill="#25437f"/>
    <path id="Path_2974" data-name="Path 2974" d="M418.094,192.45A4.2,4.2,0,0,0,416.2,195.8c0,1.166.874,1.749,1.894,1.02L496.05,151.8a4.2,4.2,0,0,0,1.894-3.351c0-1.311-.874-1.749-1.894-1.166Z" transform="translate(782.023 3368.725)" fill="#254da1"/>
    <path id="Path_2975" data-name="Path 2975" d="M418.094,187.157a4.155,4.155,0,0,0-1.894,3.206c0,1.166.874,1.749,1.894,1.166l55.516-32.057a4.2,4.2,0,0,0,1.894-3.351c0-1.166-.874-1.749-1.894-1.02Z" transform="translate(804.463 3372.27)" fill="#254da1"/>
    <path id="Path_2976" data-name="Path 2976" d="M483.737,194.676c-3.351-1.894-7.868-1.6-12.968,1.311C460.714,201.816,452.7,215.8,452.7,227.315c0,5.683,2.04,9.763,5.246,11.657l3.934,2.331c-3.206-1.894-5.246-5.974-5.246-11.657,0-11.511,8.014-25.5,18.068-31.328,5.1-2.914,9.617-3.206,12.968-1.311Z" transform="translate(739.111 3389.959)" fill="#86e563"/>
    <path id="Path_2977" data-name="Path 2977" d="M467.068,197.588C457.014,203.417,449,217.405,449,228.916s8.16,16.174,18.214,10.346,18.068-19.817,18.068-31.328C485.137,196.423,476.977,191.76,467.068,197.588Z" transform="translate(746.891 3390.689)" fill="#2ab774"/>
    <path id="Path_2978" data-name="Path 2978" d="M457.434,207.2l-3.934,6.7,14.863,8.451,7.286-12.531-3.934-2.186-3.351,5.683Z" transform="translate(749.967 3396.232)" fill="#fff"/>
    <path id="Path_2979" data-name="Path 2979" d="M483.737,234.376c-3.351-1.894-7.868-1.6-12.968,1.311C460.714,241.516,452.7,255.5,452.7,267.015c0,5.683,2.04,9.763,5.246,11.657L461.88,281c-3.206-1.894-5.246-5.974-5.246-11.657,0-11.511,8.014-25.5,18.068-31.328,5.1-2.914,9.617-3.206,12.968-1.311Z" transform="translate(739.111 3408.107)" fill="#ff7363"/>
    <path id="Path_2980" data-name="Path 2980" d="M467.068,237.288C457.014,243.117,449,257.105,449,268.616s8.16,16.174,18.214,10.346,18.068-19.817,18.068-31.328C485.137,236.123,476.977,231.46,467.068,237.288Z" transform="translate(746.891 3408.837)" fill="#ff465c"/>
    <path id="Path_2981" data-name="Path 2981" d="M458.534,248.557l-3.934,6.7,5.683,3.206-5.683,9.763,3.934,2.331,5.683-9.763L469.9,264l3.789-6.848-5.537-3.206,5.537-9.763L469.754,242l-5.537,9.763Z" transform="translate(750.324 3412.139)" fill="#fff"/>
    <path id="Path_2982" data-name="Path 2982" d="M377.589,155.082c1.749-6.12,7.723-11.511,16.757-11.074,8.6.437,15.008,4.226,17.194,10.637,1.311,3.789,1.02,10.491-1.311,15.3a18.961,18.961,0,0,1-5.974,6.411l2.477,8.888c-2.186,2.769-11.657,5.974-18.214,5.683,0,0-.729-3.06-1.6-6.411-4.371,1.166-7.577-2.331-9.18-7.286C376.569,173.733,376.132,159.89,377.589,155.082Z" transform="translate(925.252 3367.334)" fill="#ff8e54"/>
    <path id="Path_2983" data-name="Path 2983" d="M377.211,155.082c1.749-6.12,7.723-11.511,16.757-11.074h.437l17.048,12.24a23.938,23.938,0,0,1-1.749,13.7,18.961,18.961,0,0,1-5.974,6.411l2.477,8.888c-2.186,2.769-11.657,5.974-18.214,5.683,0,0-.729-3.06-1.6-6.411a5.206,5.206,0,0,1-4.226-.437c1.311-.583,2.331-1.894,3.351-3.643,1.6-2.914-3.788-4.808-4.08-7.723s1.6-8.014-1.894-10.491a7.8,7.8,0,0,1-2.768-5.246A12.487,12.487,0,0,1,377.211,155.082Z" transform="translate(925.631 3367.334)" fill="#ff5f4d"/>
    <path id="Path_3153" data-name="Path 3153" d="M73.73,0C33.01,0,0,21.006,0,46.919S33.01,93.838,73.73,93.838s73.73-21.006,73.73-46.919S114.45,0,73.73,0Z" transform="translate(1243.537 3742.149)" fill="#cbdceb"/>
    <path id="Path_2984" data-name="Path 2984" d="M435.493,174.995l-3.206-2.477-4.08-8.6s-2.186-.874-2.768-1.166a33.868,33.868,0,0,0-4.809.729,21.5,21.5,0,0,0-2.623-2.769c-.583-.437-2.768-2.769-3.789-2.186-.874.583-.729,1.457-.146,2.186s2.477,2.623,2.477,2.623l2.04,5.1-.146,1.894a1.538,1.538,0,0,0-1.457,1.166c-.437,1.166-.437,2.186.874,2.623s2.477.874,2.477.874a27.746,27.746,0,0,0,4.08,2.477,18.063,18.063,0,0,0,3.206.874l.874,2.186Z" transform="translate(848.26 3373.941)" fill="#ff8e54"/>
    <path id="Path_2985" data-name="Path 2985" d="M413.755,167.318h0a3.983,3.983,0,0,1,2.331.291c1.02.437,2.477,2.477,3.206,3.06.583.437,4.226,2.04,5.828.583,1.166-1.166,3.934-1.749,5.246-1.894l2.186,1.749-7.14,5.537-.874-2.186s-1.749-.437-3.206-.874a18.868,18.868,0,0,1-4.08-2.477,12.206,12.206,0,0,0-2.477-.874C413.317,169.649,413.317,168.484,413.755,167.318Z" transform="translate(851.348 3377.975)" fill="#ff5f4d"/>
    <path id="Path_2986" data-name="Path 2986" d="M422.566,171.706l-3.934-3.206s-6.7,1.457-7.431,6.994l3.206,3.5Z" transform="translate(864.686 3378.541)" fill="#f9fbfc"/>
    <path id="Path_2987" data-name="Path 2987" d="M428.994,189.163,407.283,169.2s-9.763.583-10.783,8.6l21.711,24.917S428.994,200.528,428.994,189.163Z" transform="translate(879.676 3378.861)" fill="#253c72"/>
    <path id="Path_2988" data-name="Path 2988" d="M423.511,201.617,401.8,176.7a8.887,8.887,0,0,1,2.477-5.1c7.286,10.346,20.545,21.565,20.545,21.565l1.749,7.286A27.2,27.2,0,0,1,423.511,201.617Z" transform="translate(874.377 3379.958)" fill="#252f4c"/>
    <path id="Path_2989" data-name="Path 2989" d="M393.065,330.171l.729,9.034a3.338,3.338,0,0,1-2.04,3.351,10.041,10.041,0,0,1-5.391.583c-5.246-.729-7.577-3.643-8.451-5.246-.729-1.6-11.22-8.743-9.908-12.385,2.04-3.643,5.537,0,9.18,0C380.679,325.508,388.256,323.759,393.065,330.171Z" transform="translate(956.551 3449.572)" fill="#171e26"/>
    <path id="Path_2990" data-name="Path 2990" d="M396.176,233.573s2.331,61.053,1.166,80.142c0,0,4.809,47.939,2.331,59.3,0,0-8.451,5.974-15.591,1.166-1.749-.583-1.749-3.06-1.749-3.06s-4.809-44.879-5.974-58.722c-1.166-13.7-10.783-55.079-9.034-64.113C369.22,239.548,380.585,227.016,396.176,233.573Z" transform="translate(951.107 3407.452)" fill="#171e26"/>
    <path id="Path_2991" data-name="Path 2991" d="M423.981,337.174s3.351,10.2.874,12.531c-2.331,2.331-5.391,3.06-7.577,2.331a36.842,36.842,0,0,1-4.226-1.749l-.729-2.04-.729,1.457a7.482,7.482,0,0,1-2.768-1.166c-1.6-.874-6.12-2.623-8.014-3.934-1.894-1.166-5.246-3.351-5.537-5.828-.146-2.623,9.034-1.749,11.511-1.6s4.08-.874,4.954-.874,10.637,1.166,10.637,1.166" transform="translate(884.689 3455.246)" fill="#171e26"/>
    <path id="Path_2992" data-name="Path 2992" d="M372.037,235.994s-2.477,9.18-2.477,27.54,1.6,64.7,1.6,64.7.729,47.065,1.6,59.013c0,0,5.537,7.14,15.154,1.6,4.808-5.537,3.206-9.617,3.206-9.617s6.411-28.705,3.934-55.079c0,0,8.743-53.476,10.346-59.888s29.434-9.18,18.505-40.362Z" transform="translate(921.479 3403.865)" fill="#1f2f3f"/>
    <path id="Path_2993" data-name="Path 2993" d="M412.323,257.68s-12.823,5.683-11.22,24.188,4.808,30.6,3.206,41.819-4.08,17.631-2.477,31.328c1.311,11.074,5.828,21.711,2.186,29.142a11.4,11.4,0,0,1-6.411-3.643c-.729-11.948-1.6-59.013-1.6-59.013s-1.6-46.336-1.6-64.7a145.094,145.094,0,0,1,1.02-18.505l19.963,8.888Z" transform="translate(896.348 3410.448)" fill="#25437f"/>
    <path id="Path_2994" data-name="Path 2994" d="M363.943,202.394a11.321,11.321,0,0,1,5.1-9.908c7.286-4.809,17.194-11.074,23.751-14.425,8.014-4.226,16.32-8.6,20.691-9.034,12.386-1.166,19.671,10.346,18.651,25.354-.729,9.18-3.206,19.38-6.411,29.871-1.457,4.517-2.331,12.385-2.769,19.671a31.652,31.652,0,0,0,1.311,9.763c2.04,4.809,3.934,23.9,3.934,23.9s-13.551,13.988-31.182,15.154-24.334-2.331-24.334-2.331l-1.166-8.014-2.331,7.14a5.879,5.879,0,0,1-3.643-4.371c-.291-2.914,2.914-27.54,3.5-32.348-1.02-9.908-3.06-24.625-3.643-31.182C364.671,215.362,364.234,208.368,363.943,202.394Z" transform="translate(923.891 3378.744)" fill="#25437f"/>
    <path id="Path_2995" data-name="Path 2995" d="M399.465,169s-5.828,4.954-19.525,6.994l-2.04,4.954a33.742,33.742,0,0,0,12.094.583c6.848-.729,12.385-6.12,12.968-7.431l.583-1.166Z" transform="translate(932.227 3378.77)" fill="#f9fbfc"/>
    <path id="Path_2996" data-name="Path 2996" d="M415.563,156.716s0-9.18-10.054-12.094-11.22-1.6-14.134-3.643c-2.769-2.04-6.411-2.477-11.657-.874s-5.974,6.848-4.371,11.657,2.477,7.577,6.411,9.617c4.08,2.04,3.206,6.848,3.206,6.848s-.874,5.246,2.04,7.286l2.477-5.974s2.04,6.848,4.08,9.18c2.04,2.477,6.411,3.643,10.783,3.643S414.4,171.579,416,167.936s-1.6-6.848-1.6-6.848A4.19,4.19,0,0,0,415.563,156.716Z" transform="translate(924.145 3365.117)" fill="#25437f"/>
    <path id="Path_2997" data-name="Path 2997" d="M367.731,200.831c4.08-9.617,18.505-7.286,37.739-14.425,9.326-3.5,10.491-8.888,9.326-13.405,3.643,4.663,5.391,11.511,4.809,19.525-.729,9.18-3.206,19.38-6.411,29.871-1.457,4.517-2.331,12.386-2.769,19.671a31.653,31.653,0,0,0,1.311,9.763c2.04,4.808,3.934,23.9,3.934,23.9s-13.551,13.988-31.182,15.154c-9.763.729-16.174-.146-19.963-1.02-2.769-20.108,9.617-30.017,12.677-39.2C380.553,240.9,363.651,210.448,367.731,200.831Z" transform="translate(936.131 3380.598)" fill="#252f4c"/>
    <path id="Path_2998" data-name="Path 2998" d="M375.393,143.36c1.894-3.351,5.391-3.351,8.16-2.769h0c2.768,2.04,4.08.874,14.134,3.643a13.046,13.046,0,0,1,10.054,12.094,4.054,4.054,0,0,1-1.166,4.371s3.206,3.206,1.6,6.848a51.262,51.262,0,0,1-7.14,11.657c-6.266-1.02-8.888-6.266-7.868-9.471,1.6-4.809-3.788-.583-5.391-3.643-1.6-3.206,5.391-5.391-1.6-11.8C379.181,147.586,372.187,149.189,375.393,143.36Z" transform="translate(931.967 3365.65)" fill="#252f4c"/>
    <path id="Path_2999" data-name="Path 2999" d="M469.04,218.571l-3.351-.729s-5.683-4.517-6.411-4.663c-.729-.291-7.577-5.391-8.306-4.226s.146,2.186,1.02,2.914c1.02.583,2.914,1.6,2.914,1.6l1.749,2.477a10.844,10.844,0,0,0-1.166,2.769c0,1.02.146,2.477.146,2.477a4.212,4.212,0,0,0,.292,3.5,5.365,5.365,0,0,0,4.517,2.623c1.457-.146,4.663-.437,4.663-.437l2.186.291Z" transform="translate(760.656 3396.955)" fill="#ff8e54"/>
    <path id="Path_3000" data-name="Path 3000" d="M451.418,221.191a3.6,3.6,0,0,1-.437-2.623c.874.874,2.04,2.04,2.914,2.186,1.6.146,3.643,1.6,4.954-.583a18.452,18.452,0,0,1,4.226-4.08l1.311-.291-1.6,7.868-2.186-.291s-3.206.291-4.663.437A5.386,5.386,0,0,1,451.418,221.191Z" transform="translate(765.018 3400.163)" fill="#ff5f4d"/>
    <path id="Path_3001" data-name="Path 3001" d="M455.977,215.329l-4.226-.729a8.047,8.047,0,0,0-3.351,6.12c0,3.788,1.311,5.246,1.311,5.246l3.351.437Z" transform="translate(777.068 3399.615)" fill="#cbdceb"/>
    <path id="Path_3002" data-name="Path 3002" d="M464.245,185.3s-4.371.729-7.723,8.306-14.425,33.077-17.048,35.117c-2.768,2.04-35.554-1.6-35.554-1.6s-6.557,4.226-4.954,9.617c1.6,4.809,3.643,4.371,3.643,4.371s32.2,7.431,38.759,8.16a14.14,14.14,0,0,0,10.783-3.06c1.6-1.02,14.863-26.665,17.631-30.891s9.908-19.234,4.663-24.625C469.053,185.154,464.245,185.3,464.245,185.3Z" transform="translate(829.127 3386.221)" fill="#25437f"/>
    <path id="Path_3003" data-name="Path 3003" d="M402.675,240.688s-2.186.437-3.643-4.371a5.979,5.979,0,0,1,0-3.206c3.788,1.166,9.034,2.623,14.425,3.934,10.2,2.331,23.168,4.663,32.348,1.6s18.505-25.5,22-37.739A29.164,29.164,0,0,0,468.1,185.9a19.65,19.65,0,0,1,6.266,4.371c5.246,5.391-1.894,20.4-4.663,24.625s-15.883,29.871-17.631,30.891a14.14,14.14,0,0,1-10.783,3.06C435.023,248.265,402.675,240.688,402.675,240.688Z" transform="translate(829.061 3386.495)" fill="#252f4c"/>
    <path id="Path_3004" data-name="Path 3004" d="M372.669,152.87,371.941,383.1,240.8,307.325,241.529,77.1Z" transform="translate(1162.875 3336.76)" fill="#cbdceb"/>
    <path id="Path_3005" data-name="Path 3005" d="M250.083,136.523,254.6,133.9l-.583,230.225-4.517,2.623Z" transform="translate(1268.268 3362.725)" fill="#bdc5cb"/>
    <path id="Path_3006" data-name="Path 3006" d="M249.5,84.523l4.517-2.623,131.141,75.77-4.517,2.623Z" transform="translate(1137.711 3338.955)" fill="#fff"/>
    <path id="Path_3007" data-name="Path 3007" d="M384.469,159.47,383.886,389.7,252.6,313.925,253.329,83.7Z" transform="translate(1133.881 3339.778)" fill="#eaf1f7"/>
    <path id="Path_3008" data-name="Path 3008" d="M271,117.6v3.351l76.353,44.005.146-3.206Z" transform="translate(1144.041 3355.274)" fill="#254da1"/>
    <path id="Path_3009" data-name="Path 3009" d="M271.1,139.8v3.206l43.276,25.062v-3.351Z" transform="translate(1177.018 3365.422)" fill="#254da1"/>
    <path id="Path_3010" data-name="Path 3010" d="M271.2,173.5v3.206l70.087,40.508v-3.351Z" transform="translate(1149.961 3380.827)" fill="#254da1"/>
    <path id="Path_3011" data-name="Path 3011" d="M271.2,174.1v3.206l43.276,25.062v-3.351Z" transform="translate(1176.771 3381.101)" fill="#254da1"/>
    <path id="Path_3012" data-name="Path 3012" d="M271.1,160.4v3.351l54.788,31.619.146-3.206Z" transform="translate(1165.361 3374.839)" fill="#254da1"/>
    <path id="Path_3013" data-name="Path 3013" d="M271.1,159.1v3.206l19.817,11.511v-3.351Z" transform="translate(1200.477 3374.244)" fill="#254da1"/>
    <path id="Path_3014" data-name="Path 3014" d="M309.475,211.605c-12.24-6.994-23.751-5.246-28.414,5.828-5.974,13.843.874,37.157,15.154,53.331l3.351-7.723c-9.763-11.365-14.28-27.394-10.054-37.011,3.351-7.868,11.511-9.034,20.108-4.08a34.836,34.836,0,0,1,6.266,4.663l3.351-7.723A58.4,58.4,0,0,0,309.475,211.605Z" transform="translate(1160.791 3396.344)" fill="#3f5078"/>
    <path id="Path_3015" data-name="Path 3015" d="M287.681,215.3l-3.351,7.723a16.625,16.625,0,0,1,1.6,1.6c11.074,11.366,16.465,28.851,12.094,39.051a3.653,3.653,0,0,1-.583,1.02c0,.146-.146.291-.146.437-3.206,5.683-9.326,6.994-16.174,4.226a32.86,32.86,0,0,1-3.206-1.6,3.048,3.048,0,0,1-.874-.583,10.222,10.222,0,0,1-1.311-.874l-.146-.146a31.992,31.992,0,0,1-2.623-2.04l-.291-.291a6.338,6.338,0,0,0-1.02-.874c-.146-.146-.291-.146-.291-.291a9.43,9.43,0,0,0-1.311-1.166,25.332,25.332,0,0,1-1.894-2.186l-3.351,7.723a26.043,26.043,0,0,0,1.894,2.04l1.749,1.749.437.437a9.43,9.43,0,0,0,1.311,1.166l.437.437c1.166,1.02,2.477,2.04,3.643,2.914.146,0,.146.146.291.146.583.437,1.166.729,1.749,1.166l.146.146c.437.291.729.437,1.166.729a25.322,25.322,0,0,0,2.769,1.457c.729.291,1.311.583,2.04.874,10.346,4.08,19.671,1.457,23.751-8.16,6.266-14.425-1.457-39.342-17.048-55.371Z" transform="translate(1192.201 3399.934)" fill="#a9e3e4"/>
    <path id="Path_3016" data-name="Path 3016" d="M338.546,218.529v1.6a1.289,1.289,0,0,1-1.894,1.166l-7.868-4.517a1.183,1.183,0,0,1-.583-1.166v-1.6a1.289,1.289,0,0,1,1.894-1.166l7.868,4.517A1.8,1.8,0,0,1,338.546,218.529Z" transform="translate(1069.646 3398.746)" fill="#254da1"/>
    <path id="Path_3017" data-name="Path 3017" d="M346.408,238.609v1.6a1.289,1.289,0,0,1-1.894,1.166l-32.931-18.8a1.183,1.183,0,0,1-.583-1.166v-1.6a1.289,1.289,0,0,1,1.894-1.166l32.931,18.8A1.8,1.8,0,0,1,346.408,238.609Z" transform="translate(1086.848 3401.397)" fill="#254da1"/>
    <path id="Path_3018" data-name="Path 3018" d="M342.257,242.286v1.6a1.289,1.289,0,0,1-1.894,1.166l-19.38-11.074a1.183,1.183,0,0,1-.583-1.166v-1.6a1.289,1.289,0,0,1,1.894-1.166l19.38,11.074C342.111,241.266,342.257,241.7,342.257,242.286Z" transform="translate(1077.301 3406.608)" fill="#254da1"/>
    <path id="Path_3019" data-name="Path 3019" d="M344.808,241.394V243a1.289,1.289,0,0,1-1.894,1.166L315.083,228.28a1.183,1.183,0,0,1-.583-1.166v-1.6a1.289,1.289,0,0,1,1.894-1.166l27.685,15.883A1.486,1.486,0,0,1,344.808,241.394Z" transform="translate(1083.348 3404.002)" fill="#254da1"/>
  </g>
</svg>
