<svg xmlns="http://www.w3.org/2000/svg" xmlns:xlink="http://www.w3.org/1999/xlink" width="20" height="20" viewBox="0 0 20 20">
  <defs>
    <clipPath id="clip-Artboard_2">
      <rect width="20" height="20"/>
    </clipPath>
  </defs>
  <g id="Artboard_2" data-name="Artboard – 2" clip-path="url(#clip-Artboard_2)">
    <g id="Group_17618" data-name="Group 17618" transform="translate(-0.002 0.001)">
      <g id="Group_17617" data-name="Group 17617">
        <rect id="Rectangle_1820" data-name="Rectangle 1820" width="12" height="12" rx="4" transform="translate(7 7)" fill="#3f5078"/>
        <path id="Intersection_1" data-name="Intersection 1" d="M15744-6080a4,4,0,0,1-4-4v-4a4,4,0,0,1,4-4h4a4,4,0,0,1,4,4v2l-6,6Z" transform="translate(-15739 6093)" fill="#a9e3e4"/>
        <path id="Path_3362" data-name="Path 3362" d="M-3.272-1.656l-.52.512a2.024,2.024,0,0,0,1.536.68A1.442,1.442,0,0,0-.672-1.888.919.919,0,0,0-.68-2.04a1.358,1.358,0,0,0,.536.112,1.173,1.173,0,0,0,.488-.1V0H1.1V-4.584H2.568V0H3.32V-4.584h.936V-5.2h-4.7v.616H.344v1.872a1.412,1.412,0,0,1-.68.16,1.444,1.444,0,0,1-.7-.168,1.145,1.145,0,0,0-.456-.24v-.032A1.091,1.091,0,0,0-.92-3.976a1.232,1.232,0,0,0-1.36-1.24A1.488,1.488,0,0,0-3.5-4.664L-3-4.2a.8.8,0,0,1,.7-.36.6.6,0,0,1,.656.64.708.708,0,0,1-.792.728H-2.7v.656h.432c.552,0,.848.248.848.664a.746.746,0,0,1-.832.752A1.253,1.253,0,0,1-3.272-1.656Z" transform="translate(6.5 9.5)" fill="#fff"/>
        <path id="Path_3363" data-name="Path 3363" d="M1.448,0,1.112-1.008H-1.12L-1.456,0H-2.648l1.96-5.6H.68L2.648,0ZM-.768-2.04H.768L0-4.328Z" transform="translate(13 15)" fill="#fff"/>
      </g>
    </g>
  </g>
</svg>
