<svg xmlns="http://www.w3.org/2000/svg" width="40" height="40" viewBox="0 0 40 40">
  <g id="Group_17623" data-name="Group 17623" transform="translate(-648 -6110)">
    <g id="Group_17618" data-name="Group 17618">
      <rect id="Rectangle_1828" data-name="Rectangle 1828" width="40" height="40" rx="20" transform="translate(648 6110)" fill="#a9e3e4"/>
      <g id="Location" transform="translate(660 6121)">
        <path id="Location-2" data-name="Location" d="M8,18.823a1.278,1.278,0,0,1-.691-.233A20.247,20.247,0,0,1,2.1,13.752,9.774,9.774,0,0,1,0,7.828,7.688,7.688,0,0,1,2.356,2.291,8.029,8.029,0,0,1,7.994,0,7.928,7.928,0,0,1,16,7.828a9.779,9.779,0,0,1-2.1,5.923A20.63,20.63,0,0,1,8.686,18.59,1.242,1.242,0,0,1,8,18.823ZM7.994,5.437A2.638,2.638,0,0,0,5.359,8.072a2.552,2.552,0,0,0,.773,1.839,2.657,2.657,0,0,0,4.508-1.839A2.658,2.658,0,0,0,7.994,5.437Z" transform="translate(0 0)" fill="#3f5078"/>
      </g>
    </g>
  </g>
</svg>
