<svg xmlns="http://www.w3.org/2000/svg" width="20.298" height="23.88" viewBox="0 0 20.298 23.88">
  <g id="Iconly_Bold_Location" data-name="Iconly/Bold/Location" transform="translate(-3.5 -2)">
    <g id="Location" transform="translate(3.5 2)">
      <path id="Location-2" data-name="Location" d="M10.154,23.88a1.621,1.621,0,0,1-.876-.3,25.686,25.686,0,0,1-6.615-6.138A12.4,12.4,0,0,1,0,9.932,9.753,9.753,0,0,1,2.989,2.906,10.185,10.185,0,0,1,10.141,0,10.058,10.058,0,0,1,20.3,9.932a12.406,12.406,0,0,1-2.663,7.515,26.173,26.173,0,0,1-6.616,6.138A1.575,1.575,0,0,1,10.154,23.88ZM10.141,6.9A3.346,3.346,0,0,0,6.8,10.241a3.238,3.238,0,0,0,.981,2.334A3.371,3.371,0,0,0,13.5,10.241,3.372,3.372,0,0,0,10.141,6.9Z" transform="translate(0 0)" fill="#3f5078"/>
    </g>
  </g>
</svg>
