<svg xmlns="http://www.w3.org/2000/svg" width="157.955" height="56.341" viewBox="0 0 157.955 56.341">
  <g id="Group_17619" data-name="Group 17619" transform="translate(-275.256 -140.8)">
    <path id="Path_3364" data-name="Path 3364" d="M4.853,0,.345-16.1H3.68L6.762-4.163,10.12-16.1h2.714L16.215-4.163,19.3-16.1h3.335L18.124,0H14.513L11.477-10.626,8.464,0ZM25.346-12.88a1.746,1.746,0,0,1-1.277-.541,1.746,1.746,0,0,1-.541-1.276,1.784,1.784,0,0,1,.541-1.288,1.728,1.728,0,0,1,1.277-.552,1.754,1.754,0,0,1,1.3.552,1.784,1.784,0,0,1,.541,1.288,1.746,1.746,0,0,1-.541,1.276A1.772,1.772,0,0,1,25.346-12.88ZM23.874,0V-11.5h2.967V0ZM35.949-11.822a4.163,4.163,0,0,1,3.116,1.265,4.8,4.8,0,0,1,1.231,3.5V0H37.329V-6.693a2.356,2.356,0,0,0-.621-1.76,2.262,2.262,0,0,0-1.656-.609,2.443,2.443,0,0,0-1.84.713,2.965,2.965,0,0,0-.69,2.139V0H29.555V-11.5h2.967v1.288A3.831,3.831,0,0,1,35.949-11.822ZM51.543-16.1H54.51V0H51.543V-1.357A4.451,4.451,0,0,1,47.817.322,5.235,5.235,0,0,1,43.85-1.437,6.08,6.08,0,0,1,42.205-5.75a6.08,6.08,0,0,1,1.645-4.312,5.235,5.235,0,0,1,3.967-1.759,4.451,4.451,0,0,1,3.726,1.679ZM46.069-3.4a3.163,3.163,0,0,0,2.3.9,3.065,3.065,0,0,0,2.277-.908,3.182,3.182,0,0,0,.9-2.335,3.182,3.182,0,0,0-.9-2.335,3.065,3.065,0,0,0-2.277-.908,3.1,3.1,0,0,0-2.289.908,3.16,3.16,0,0,0-.909,2.335A3.221,3.221,0,0,0,46.069-3.4ZM58.7-12.88a1.746,1.746,0,0,1-1.276-.541,1.746,1.746,0,0,1-.541-1.276,1.784,1.784,0,0,1,.541-1.288,1.728,1.728,0,0,1,1.276-.552,1.754,1.754,0,0,1,1.3.552,1.784,1.784,0,0,1,.541,1.288A1.746,1.746,0,0,1,60-13.421,1.772,1.772,0,0,1,58.7-12.88ZM57.224,0V-11.5h2.967V0ZM71.645-11.5h2.967V0H71.645V-1.357A4.515,4.515,0,0,1,67.9.322a5.211,5.211,0,0,1-3.945-1.759A6.08,6.08,0,0,1,62.307-5.75a6.08,6.08,0,0,1,1.645-4.312A5.211,5.211,0,0,1,67.9-11.822a4.515,4.515,0,0,1,3.749,1.679ZM66.171-3.4a3.085,3.085,0,0,0,2.277.9,3.1,3.1,0,0,0,2.289-.908,3.16,3.16,0,0,0,.909-2.335,3.16,3.16,0,0,0-.909-2.335,3.1,3.1,0,0,0-2.289-.908,3.064,3.064,0,0,0-2.277.908,3.182,3.182,0,0,0-.9,2.335A3.221,3.221,0,0,0,66.171-3.4Z" transform="translate(358.599 175.723)" fill="#fff"/>
    <g id="Group_17544" data-name="Group 17544" transform="translate(275.256 140.8)">
      <g id="Group_17540" data-name="Group 17540">
        <g id="Group_17539" data-name="Group 17539">
          <path id="Path_3305" data-name="Path 3305" d="M277.218,154.883h-.473c2.209.631,5.05-.158,6.786-.947a1.233,1.233,0,0,0,1.263-.631c0-.316-.474-.473-1.1-.473h-.473a19.577,19.577,0,0,0-3.472-.631c.316,0,.473.158.789.158h-1.1l.158.158a5.03,5.03,0,0,0-3.787.631c-.947.631-.631,1.1.789,1.42Z" transform="translate(-275.255 -134.209)" fill="#f6ab78"/>
          <path id="Path_3306" data-name="Path 3306" d="M279.745,155.456l-2.367-.473-.158-.158.158.473h0a10.885,10.885,0,0,1,1.262-.473c.316,0,.474-.158.789-.158a6.825,6.825,0,0,0,.789-.158l.473-.158a.339.339,0,0,0,.316-.316c0-.158-.316-.316-.789-.316h-.631c-1.42-.158-3.472,0-4.261.789-.158.158,0,.316,0,.631s.473.473,1.1.473,1.262-.316,1.262-.631h.316c-.158,0-.158.158-.316.158.158-.316.947-.316,1.263-.473.316,0,.473-.158.789-.158l-.473-.631c-.158,0-.316,0-.316.158h.158c-.789.158-1.262.474-2.052.631l-.947.316c-.316.158-.158.316,0,.473l.473.158h-.158a19.088,19.088,0,0,0,3,.158.58.58,0,0,0,.474-.158C279.9,155.456,279.9,155.456,279.745,155.456Z" transform="translate(-275.256 -133.362)" fill="#f6ab78"/>
          <g id="Group_17538" data-name="Group 17538" transform="translate(0.228)">
            <path id="Path_3307" data-name="Path 3307" d="M276.189,154.926c-.158,0-.316-.158-.631,0H275.4c.158,0,.158,0,.316.158C276.189,155.241,276.189,155.084,276.189,154.926Z" transform="translate(-275.4 -132.673)" fill="#f6ab78"/>
            <path id="Path_3308" data-name="Path 3308" d="M275.543,155.043h0c-.158-.158-.158,0,0,0Z" transform="translate(-275.386 -132.633)" fill="#f6ab78"/>
            <path id="Path_3309" data-name="Path 3309" d="M301.844,150.156c1.42-.473,2.841-.947,4.419-1.42,1.42-.473,2.841-.947,4.261-1.578a.155.155,0,0,0,.158-.158h-.158c-1.42.631-2.841,1.1-4.261,1.578-1.42.631-3,1.1-4.419,1.578-.158-.158-.158,0,0,0Z" transform="translate(-260.18 -137.215)" fill="#f6ab78"/>
            <path id="Path_3310" data-name="Path 3310" d="M316,145.458h0a.219.219,0,0,0,.316,0V145.3C316.158,145.3,316.158,145.3,316,145.458Z" transform="translate(-251.926 -138.198)" fill="#f6ab78"/>
            <path id="Path_3311" data-name="Path 3311" d="M340.421,151.058c-.473.316-.789.473-.947.789l-.158.158a.489.489,0,0,1-.158.316c-.316.316-.631.473-.947.789s-.789.473-.947.789c-.789.473-1.421.947-2.052,1.263A15.76,15.76,0,0,1,333,156.424a7.241,7.241,0,0,1-2.209,1.1v.158c-.158.315-.631.473-.947.789l-.316.158c-.789.316-1.42.473-2.052.789-.789.316-1.42.473-2.052.789l-.947.473c-.631.316-1.1.631-1.736.947l-.947.474-.947.473c.158,0,.158,0,.158.158s-.316.316-.631.474l-.474.158,1.42-.473h.158c.631-.158.947-.473,1.578-.631a75.408,75.408,0,0,0,12.783-6.786.552.552,0,0,1,.316-.158v.158c-.631.473-1.1.947-1.736,1.42a40265.112,40265.112,0,0,0-3.472,2.525,8.938,8.938,0,0,1-2.052,1.262,117.19,117.19,0,0,1-10.889,5.524,21.939,21.939,0,0,1-3,.947,5.606,5.606,0,0,0-1.42.631l-1.42.473a21.931,21.931,0,0,1-3,.947c-.947.316-2.051.631-3,.947a107.589,107.589,0,0,1-17.2,3.63,19.158,19.158,0,0,1-2.841.158c-.947-.158-1.42-.473-1.578-.789-.158-.474.315-.947.947-1.263h-1.578a3.367,3.367,0,0,1-1.894-.473l-.631-.316a6.4,6.4,0,0,0-1.42-.789,8.745,8.745,0,0,1-1.262-.947l.158-.316h-.158c-.474-.158-.947-.473-.947-.631V168.1c.158-.316.315-.789.789-.947a.58.58,0,0,1,.158-.473c-.316-.316-.632-.631-.316-.947-.158-.158-.158-.158,0-.316h.316c-.158,0-.158-.158-.316-.158h-1.263a2.486,2.486,0,0,0-.631-.158c-.473-.474-.473-.474-.473-.789h.158c-.316,0-.473,0-.473-.158a.155.155,0,0,1-.158-.158c0-.158,0-.158-.158-.158v-.158l.158-.158.158-.158c.316,0,.316-.158.316-.158l.473.316.158-.158.158.158v-.158h.316l-.316-.158h2.367a.155.155,0,0,1,.158.158h.631c.158,0,.158,0,.316-.158h0a4.107,4.107,0,0,0,1.1-.473h.474c-.158,0,0-.158-.158-.158-.789,0-1.263-.158-2.052-.158H277.61c-.316,0-.473,0-.631-.158,0-.158.158-.158.473-.316a11.065,11.065,0,0,1,2.209-.473,10.732,10.732,0,0,1,2.367-.316c.789,0,1.578-.158,2.367-.158h2.367a12.755,12.755,0,0,0,2.367-.158h.474c-.158,0-.316-.158-.474-.158h-3a12.765,12.765,0,0,1-2.525-.158,15.543,15.543,0,0,1-2.683-.316c-.316,0-.474,0-.316-.158,0-.158.316-.158.473-.158a31.529,31.529,0,0,1,8.522-.316,2.177,2.177,0,0,1,1.421,0h0a.551.551,0,0,1-.316-.158c.473,0,.631.158.947.158,0-.158-.158-.158-.158-.316.473,0,.947-.158,1.42-.158s.947-.158,1.42-.158a17.391,17.391,0,0,1,2.841-.316h.158a10.6,10.6,0,0,1,2.367-.947c-.316,0-.631.158-.947.158a8.894,8.894,0,0,1,1.894-.631l2.841-.474a10.45,10.45,0,0,1,2.367.158c.947-.316,1.736-.631,2.841-.947.947-.316,1.736-.631,2.841-.947,1.736-.631,3.63-1.1,5.366-1.894a.3.3,0,0,1,.473,0s0,.158-.315.316l-1.894.947c-.631.316-1.262.474-1.894.789a38.079,38.079,0,0,1-3.945,1.263c.631-.158,1.1-.316,1.736-.473s1.1-.316,1.736-.473,1.1-.316,1.736-.474c.316-.158.631-.158.947-.316s.631-.158.947-.316.631-.158.947-.316.631-.158.947-.316c.789-.316,1.42-.473,2.209-.789a10.956,10.956,0,0,1,2.052-.789c.789-.316,1.42-.631,2.051-.947.789-.316,1.263-.631,2.052-.947.631-.316,1.1-.631,1.736-.947a13.879,13.879,0,0,0,1.578-.947c.947-.631,2.209-1.1,3.314-1.894l2.367-1.42c.789-.473,1.421-.947,2.21-1.42a15.763,15.763,0,0,1,2.209-1.263c.789-.316,1.42-.947,2.367-1.263a1.88,1.88,0,0,1,.947-.316c.158.158,0,.474-.474.789-6.313,4.261-12.625,8.207-20.2,10.889-.947.316-1.578.631-2.367.947h0c0,.158,0,.158-.158.316.947-.316,1.736-.631,2.841-.947a21.144,21.144,0,0,1,1.894-.947c.631-.316,1.1-.631,1.894-.947l1.894-.947,1.894-.947a9.115,9.115,0,0,1,2.683-.947c.947-.316,1.736-.631,2.683-.947l1.42-.947,1.42-.947c.947-.631,2.052-1.1,2.841-1.736a.155.155,0,0,0,.158-.158v.158c-.316.316-.631.474-.947.789s-.789.473-.947.789a14.4,14.4,0,0,1-2.052,1.263c.316,0,.473,0,.631.158a.63.63,0,0,1-.316.631l.947-.631c.158-.158.473-.158.473,0a.34.34,0,0,1-.316.316,35.393,35.393,0,0,1-4.261,2.052l-1.1.789a9.317,9.317,0,0,1-1.262.631,18.845,18.845,0,0,1-2.525,1.263,1.183,1.183,0,0,1,.789.158h0a3.451,3.451,0,0,0,.789-.473c4.735-2.683,9.311-5.208,14.046-8.049h.158a.155.155,0,0,1-.158.158c-1.42.789-2.841,1.578-4.261,2.525h0s.158,0,0,.158a.551.551,0,0,1-.316.158c-.158,0-.158,0,0-.158-2.683,1.42-5.208,3-7.891,4.577,2.525-1.1,4.892-2.525,7.417-3.63.316-.158.474-.473.789-.631a.219.219,0,0,1,.316,0v.158l-.158.158c.473-.316.947-.316.947-.158a1.856,1.856,0,0,1-.789.947c-1.262.789-2.683,1.42-3.945,2.052l-.474.316-.473.316,1.578-.789,1.578-.789,1.578-.789,1.578-.789a.3.3,0,0,1,.473,0s0,.158-.316.316a8.736,8.736,0,0,0-1.263.947l-1.262.789-1.263.789-.631.473-.789.473a57.628,57.628,0,0,1-5.366,2.841,26.223,26.223,0,0,1-3.314,2.525c.158,0,.316-.158.473-.158.947-.473,2.052-.947,2.841-1.42.947-.631,1.736-.947,2.683-1.578l5.208-3.314h.158a.155.155,0,0,1-.158.158c-1.736,1.1-3.314,2.21-5.05,3.314a15.754,15.754,0,0,1-2.209,1.262c-.789.474-1.42.947-2.052,1.263.789-.316,1.42-.789,2.209-1.1s1.42-.789,2.209-1.1c1.421-.947,2.841-1.578,4.261-2.525a.489.489,0,0,1,.316-.158v-.158c.316-.316.789-.631.947-.947-1.1,1.263-.947,1.263-.947,1.421C340.579,150.9,340.579,151.058,340.421,151.058Zm-54.6,12.625h0c.158,0,.158,0,.631.316A1.2,1.2,0,0,1,285.816,163.684Zm-4.892,1.578h0a.49.49,0,0,0-.316-.158C280.766,165.1,280.766,165.262,280.924,165.262Zm29.985-8.364a13.158,13.158,0,0,1-2.367.631c-.947.158-1.578.316-2.525.473a7.712,7.712,0,0,0,1.1-.473c.631-.158,1.1-.316,1.894-.473A3.554,3.554,0,0,0,310.909,156.9Zm-28.565,6a3.771,3.771,0,0,1,1.1.474c.316,0,.631-.158.947-.158a13.57,13.57,0,0,1,2.525-.158c-.158-.158.158-.158.158-.158h-4.735Zm-5.681.947Zm-.316.316Zm1.1,0Zm1.1,4.577.473-.947-.473.947Z" transform="translate(-275.4 -140.8)" fill="#f6ab78"/>
          </g>
        </g>
      </g>
      <g id="Group_17543" data-name="Group 17543" transform="translate(3.523 21.086)">
        <g id="Group_17542" data-name="Group 17542">
          <path id="Path_3312" data-name="Path 3312" d="M279.716,169.825h0a.691.691,0,0,1-.474.158c2.209.474,5.05-.473,6.628-1.263.789-.158,1.1-.473,1.1-.631,0-.316-.473-.473-1.1-.316H285.4a11.547,11.547,0,0,0-3.472-.473,6.835,6.835,0,0,1,.789.158h-1.1l.158.158a5.886,5.886,0,0,0-3.788.789c-.947.631-.473,1.263.947,1.42h.789Z" transform="translate(-277.488 -146.564)" fill="#429f53"/>
          <path id="Path_3313" data-name="Path 3313" d="M282.3,170.178a12.182,12.182,0,0,1-2.367-.316h-.158l.158.473h0a9.361,9.361,0,0,1,1.262-.631c.316,0,.474-.158.789-.158a6.853,6.853,0,0,0,.789-.158l.316-.158c.158-.158.316-.158.316-.316s-.316-.316-.789-.316h-.631c-1.421,0-3.472.158-4.261.947-.158.158,0,.316,0,.631s.631.473,1.1.473c.789,0,1.263-.316,1.263-.631h.316c-.158,0-.158.158-.316.158.158-.316.789-.473,1.1-.631.316,0,.474-.158.789-.158l-.473-.631a.551.551,0,0,0-.316.158h.158c-.789.316-1.262.473-2.051.789l-.947.316c-.316.158-.158.316.158.473l.473.158h2.841a.58.58,0,0,0,.473-.158C282.618,170.336,282.46,170.178,282.3,170.178Z" transform="translate(-277.391 -145.812)" fill="#429f53"/>
          <g id="Group_17541" data-name="Group 17541" transform="translate(0.65)">
            <path id="Path_3314" data-name="Path 3314" d="M278.689,170h-.474C278.689,170.158,278.847,170,278.689,170Z" transform="translate(-277.9 -145.003)" fill="#429f53"/>
            <path id="Path_3315" data-name="Path 3315" d="M278.043,170Z" transform="translate(-277.886 -145.003)" fill="#429f53"/>
            <path id="Path_3316" data-name="Path 3316" d="M304.043,164.072c1.42-.473,2.841-.947,4.261-1.578s2.841-1.1,4.261-1.736a.155.155,0,0,0,.158-.158h-.158c-1.42.631-2.841,1.263-4.261,1.736s-2.841,1.1-4.261,1.736c-.158-.158-.158,0,0,0Z" transform="translate(-262.853 -150.438)" fill="#429f53"/>
            <path id="Path_3317" data-name="Path 3317" d="M318,158.558h.316V158.4C318.158,158.4,318.158,158.558,318,158.558Z" transform="translate(-254.715 -151.71)" fill="#429f53"/>
            <path id="Path_3318" data-name="Path 3318" d="M342.289,164.007c-.316.316-.789.631-.947.947h-.158a.489.489,0,0,1-.158.316,4.182,4.182,0,0,1-.947.789c-.316.316-.631.474-.947.789-.789.473-1.262.947-2.051,1.42a46238.435,46238.435,0,0,0-4.419,2.525v.158a2.319,2.319,0,0,1-.947.789l-.316.158c-.789.316-1.262.631-2.051.947a10.954,10.954,0,0,1-2.052.789c-.316.158-.631.473-.947.631-.631.316-1.1.789-1.578.947l-.947.473-.947.473c.158,0,.158,0,.158.158s-.158.316-.631.473l-.473.158,1.42-.474h.158a7.369,7.369,0,0,0,1.578-.789c4.735-2.052,8.522-4.735,12.468-7.26a.552.552,0,0,1,.316-.158v.158a14.225,14.225,0,0,0-1.578,1.42c-.631.473-.947.947-1.578,1.42s-1.1.947-1.736,1.42a23.08,23.08,0,0,1-2.052,1.42,97.045,97.045,0,0,1-10.574,6,23.014,23.014,0,0,1-3,1.1c-.473.158-.947.473-1.42.631l-1.42.631a21.1,21.1,0,0,1-2.841,1.1,23.022,23.022,0,0,1-3,1.1A108.283,108.283,0,0,1,291.63,189.1a9.737,9.737,0,0,1-2.841.316c-.947-.158-1.42-.316-1.578-.789-.316-.473.158-.947.947-1.42H286.58a5.887,5.887,0,0,1-1.894-.316l-.631-.316c-.473-.316-.947-.473-1.42-.789a4.373,4.373,0,0,1-1.263-.789l.158-.316h-.158c-.473-.158-.947-.316-.947-.631v-.158a1.3,1.3,0,0,1,.631-.947.58.58,0,0,1,.158-.473c-.316-.316-.631-.631-.316-.947-.158,0-.158-.158,0-.316.158,0,.158,0,.316-.158h0c-.158,0-.158-.158-.316-.158h-1.263a1.632,1.632,0,0,1-.631-.158c-.473-.473-.473-.473-.473-.789l.158-.158h-.631c0-.158,0-.158-.158-.158v-.158l.158-.158.158-.158a.551.551,0,0,0,.316-.158l.473.316.158-.158.158.158-.158-.158h.316l-.316-.158h2.367a.155.155,0,0,1,.158.158A.55.55,0,0,1,282,179h.315c.158,0,.158,0,.316-.158h0a2.442,2.442,0,0,0,.947-.473h.473c-.158,0,0-.158-.158-.158h-4.1c-.315,0-.473,0-.631-.158,0-.158.158-.158.473-.316a11.624,11.624,0,0,1,2.209-.631c.789-.158,1.421-.316,2.367-.473a11.935,11.935,0,0,1,2.367-.158c.789,0,1.578-.158,2.367-.158a14,14,0,0,0,2.367-.316h.474c-.158,0-.316-.158-.474-.158H291a15.31,15.31,0,0,1-2.683.158h-2.525c-.947,0-1.736-.158-2.683-.158-.316,0-.473,0-.473-.158s.158-.158.473-.158a26.879,26.879,0,0,1,8.522-.631,4.865,4.865,0,0,1,1.42-.158h0a.551.551,0,0,1-.316-.158h.947l-.158-.158c.473,0,.947-.158,1.42-.158.473-.158.947-.158,1.42-.316l2.841-.473h.158a10.6,10.6,0,0,1,2.367-.947c-.316,0-.631.158-.947.158a9.653,9.653,0,0,1,1.894-.789,18.357,18.357,0,0,1,2.841-.631,5.6,5.6,0,0,1,2.367.158c.947-.316,1.736-.631,2.683-.947s1.736-.631,2.683-.947c1.736-.789,3.472-1.263,5.208-2.209a.3.3,0,0,1,.474,0s0,.158-.316.316a21.149,21.149,0,0,1-1.894.947l-1.894.947c-1.263.631-2.525.947-3.788,1.578.631-.158,1.1-.316,1.578-.473a37766.141,37766.141,0,0,0,3.156-1.263c.316-.158.631-.158.947-.316s.631-.158.947-.316l.947-.473c.316-.158.631-.158.947-.316.789-.316,1.421-.631,2.052-.947.789-.316,1.262-.631,2.052-.947s1.263-.631,2.051-.947a11.906,11.906,0,0,1,2.052-.947c.631-.316,1.1-.631,1.736-.947s.947-.631,1.578-.947a35.743,35.743,0,0,0,3.156-2.052c.789-.474,1.42-.947,2.21-1.42s1.42-.947,2.209-1.42,1.42-.947,2.209-1.42,1.42-.947,2.209-1.42c.473-.316.947-.473.947-.316.158.158,0,.473-.473.789a94.815,94.815,0,0,1-19.727,11.836,14.812,14.812,0,0,1-2.367.947h0c0,.158,0,.158-.158.316a15,15,0,0,1,2.841-.947c.631-.316,1.1-.631,1.736-.947a9.42,9.42,0,0,1,1.736-.947,21.131,21.131,0,0,1,1.894-.947l1.894-.947a19.26,19.26,0,0,1,2.683-1.1,26.182,26.182,0,0,1,2.525-.947l1.42-.947,1.42-.947,2.841-1.894.158-.158v.158a4.19,4.19,0,0,1-.947.789c-.316.316-.631.473-.947.789-.789.473-1.262.947-2.052,1.42.316,0,.474,0,.631.158a.63.63,0,0,1-.315.631l.947-.631c.158-.158.473-.158.473,0a.34.34,0,0,1-.316.316c-1.263.789-2.841,1.42-4.1,2.209l-1.1.789c-.473.316-.947.474-1.1.789a18.844,18.844,0,0,1-2.525,1.263,1.183,1.183,0,0,1,.789.158h0a3.451,3.451,0,0,0,.789-.473c4.577-2.841,9-5.681,13.73-8.522.158,0,.158-.158.158,0a.155.155,0,0,1-.158.158c-1.421.947-2.841,1.736-4.261,2.683h0s.158,0,0,.158a.551.551,0,0,1-.316.158c-.158,0-.158,0,0-.158-2.683,1.578-5.05,3.156-7.733,4.734,2.525-1.262,4.734-2.683,7.259-4.1.316-.158.473-.473.789-.631a.219.219,0,0,1,.316,0v.158l-.158.158c.473-.316.947-.316.947-.158.158.158-.158.631-.789.947l-3.788,2.367-.473.316-.473.316,1.42-.789,1.42-.947a6.4,6.4,0,0,1,1.42-.789l1.42-.947a.58.58,0,0,1,.474-.158s0,.158-.316.316a3.417,3.417,0,0,0-1.1.947l-1.263.947-1.262.947-.631.473-.631.474c-1.736.947-3.472,2.209-5.208,3-.947.947-2.052,1.736-3.156,2.683.158,0,.316-.158.473-.158a25.546,25.546,0,0,0,2.841-1.578c.947-.631,1.736-1.1,2.683-1.736,1.578-1.1,3.314-2.367,5.05-3.472.158,0,.158-.158.158,0a.155.155,0,0,1-.158.158c-1.736,1.1-3.156,2.367-4.892,3.472-.789.473-1.42.947-2.21,1.42s-1.262.947-2.052,1.42a14.431,14.431,0,0,1,2.21-1.1c.789-.474,1.42-.947,2.052-1.263,1.263-.947,2.841-1.736,4.1-2.683a.489.489,0,0,1,.316-.158v-.158l.947-.947c.316.158.473.158.473.316Zm-53.974,15.15h0c.158,0,.158,0,.631.316A1.2,1.2,0,0,1,288.316,179.158Zm-4.734,1.894h0a.489.489,0,0,0-.316-.158C283.424,180.894,283.424,180.894,283.581,181.052Zm29.512-9.943a13.872,13.872,0,0,1-2.367.789,13.135,13.135,0,0,1-2.367.631,7.678,7.678,0,0,0,1.1-.473c.631-.158,1.1-.316,1.736-.473A16.386,16.386,0,0,0,313.093,171.109Zm-28.407,7.417a3.77,3.77,0,0,1,1.1.473c.316,0,.631-.158.947-.158.947-.158,1.578-.158,2.367-.316-.158-.158,0-.158.158-.158s.158,0,.316-.158c-.947,0-1.736.158-2.525.158A10.447,10.447,0,0,1,284.686,178.527Zm-5.681,1.1Zm-.158.316Zm1.1,0Zm1.262,4.577.316-.947-.316.947Z" transform="translate(-277.9 -154.161)" fill="#429f53"/>
          </g>
        </g>
      </g>
    </g>
  </g>
</svg>
