<svg xmlns="http://www.w3.org/2000/svg" width="30" height="30" viewBox="0 0 30 30">
  <g id="medical_2_" data-name="medical(2)" transform="translate(-35 -31.996)">
    <path id="Path_3254" data-name="Path 3254" d="M164.477,290.621l-.5-1.4a5.588,5.588,0,0,1-2.362.475,5.466,5.466,0,0,1-2.385-.5l-.689,1.4a.406.406,0,0,1-.24.206q-.194.062-.4.124a3.506,3.506,0,0,0,.911,1.649,3.913,3.913,0,0,0,5.761-.135,7.86,7.86,0,0,1,.612-1.422c-.161-.05-.312-.1-.453-.146A.4.4,0,0,1,164.477,290.621Z" transform="translate(-114.548 -239.976)" fill="#3f5078"/>
    <path id="Path_3255" data-name="Path 3255" d="M49.654,322a7.892,7.892,0,0,1,.068-1.03,4.642,4.642,0,0,1-2.657.79,4.575,4.575,0,0,1-3.4-1.454,4.375,4.375,0,0,1-1.1-1.971l-.462.128c-3.165.874-7.1,1.962-7.1,5.32v4.2c0,.491.23,1.177.605,1.177H54.2A7.963,7.963,0,0,1,49.654,322Z" transform="translate(0 -267.165)" fill="#3f5078"/>
    <path id="Path_3256" data-name="Path 3256" d="M132.839,37.733c.151.01.3.023.444.036,1.243.109,2.065.182,2.851-1.523a.41.41,0,0,1,.736-.013l.039.078A5.914,5.914,0,0,1,138,38.824c.036-.455.058-.837.058-.987s0-.312.006-.477a4.5,4.5,0,0,0-1.124-3.68A5.94,5.94,0,0,0,132.589,32a5.868,5.868,0,0,0-4.209,1.88l-.115.127a4.886,4.886,0,0,0-1.414,4.067,8.486,8.486,0,0,0,.21,1.087,4.345,4.345,0,0,1,.959-2.257,2.165,2.165,0,0,1,1.633-.693c.608,0,.815.592,1.016,1.164.306.873.648,1.844,2.08,1.93-.738-.814-.609-1.108-.548-1.248A.585.585,0,0,1,132.839,37.733Z" transform="translate(-85.607 0)" fill="#3f5078"/>
    <path id="Path_3257" data-name="Path 3257" d="M128.48,114.505a.4.4,0,0,1,.224-.061h.012c.673,0,1.456-.994,1.752-2.226a.76.76,0,0,0-.238-.871.41.41,0,0,0-.463.143.407.407,0,0,1-.345.255l-.035,0a.405.405,0,0,1-.406-.367,12.985,12.985,0,0,0-1.047-4.286c-.976,1.591-2.177,1.485-3.344,1.382h-.018a8.162,8.162,0,0,0,.767.793.4.4,0,0,1,.113.415.406.406,0,0,1-.332.279c-2.852.4-3.472-1.364-3.843-2.418a2.662,2.662,0,0,0-.27-.623,1.352,1.352,0,0,0-1.012.437,3.909,3.909,0,0,0-.8,2.219,9.143,9.143,0,0,0-.045,1.486.4.4,0,0,1-.061.24.4.4,0,0,1-.271.345.411.411,0,0,1-.43-.1c-.179-.186-.372-.245-.527-.163a.73.73,0,0,0-.223.839c.3,1.232,1.079,2.226,1.752,2.226h.02a.4.4,0,0,1,.408.387,4.477,4.477,0,0,0,1.87,3.385,4.414,4.414,0,0,0,2.368.6,4.507,4.507,0,0,0,2.372-.588l.007,0a4.355,4.355,0,0,0,1.858-3.39.4.4,0,0,1,.191-.331Z" transform="translate(-76.987 -69.905)" fill="#3f5078"/>
    <path id="Path_3258" data-name="Path 3258" d="M269.925,266.158a7.161,7.161,0,1,0,7.265,7.16A7.213,7.213,0,0,0,269.925,266.158Zm4.105,8.226a.54.54,0,0,1-.544.536h-2.174v2.21a.54.54,0,0,1-.544.536h-1.9a.54.54,0,0,1-.544-.536v-2.21h-2.242a.54.54,0,0,1-.544-.536v-1.875a.54.54,0,0,1,.544-.536h2.242V269.83a.54.54,0,0,1,.544-.536h1.9a.54.54,0,0,1,.544.536v2.143h2.174a.54.54,0,0,1,.544.536Z" transform="translate(-212.19 -218.482)" fill="#3f5078"/>
    <path id="Path_3259" data-name="Path 3259" d="M321.145,327.143V325h-1.359v2.143a.54.54,0,0,1-.544.536H317v1.339h2.242a.54.54,0,0,1,.544.536v2.21h1.359v-2.21a.54.54,0,0,1,.544-.536h2.174v-1.339h-2.174A.54.54,0,0,1,321.145,327.143Z" transform="translate(-262.838 -273.383)" fill="#3f5078"/>
  </g>
</svg>
