<svg xmlns="http://www.w3.org/2000/svg" width="117.042" height="35.8" viewBox="0 0 117.042 35.8">
  <g id="Group_3439" data-name="Group 3439" transform="translate(11959.045 -2658.8)">
    <g id="Group_3438" data-name="Group 3438" transform="translate(-12028 2547)">
      <text id="Windia" transform="translate(125.997 133.615)" fill="#fff" font-size="18" font-family="Gilroy-Bold" font-weight="700"><tspan x="0" y="0">Windia</tspan></text>
      <g id="Group_3437" data-name="Group 3437">
        <g id="Group_3433" data-name="Group 3433">
          <g id="Group_3432" data-name="Group 3432">
            <path id="Path_2967" data-name="Path 2967" d="M70.3,125H70a6.905,6.905,0,0,0,4.3-.6.781.781,0,0,0,.8-.4c0-.2-.3-.3-.7-.3h-.3a12.4,12.4,0,0,0-2.2-.4c.2,0,.3.1.5.1h-.7l.1.1a3.187,3.187,0,0,0-2.4.4c-.6.4-.4.7.5.9Z" fill="#f6ab78"/>
            <path id="Path_2968" data-name="Path 2968" d="M71.8,125.8l-1.5-.3-.1-.1.1.3h0a6.891,6.891,0,0,1,.8-.3c.2,0,.3-.1.5-.1a4.331,4.331,0,0,0,.5-.1l.3-.1a.215.215,0,0,0,.2-.2c0-.1-.2-.2-.5-.2h-.4a3.9,3.9,0,0,0-2.7.5c-.1.1,0,.2,0,.4s.3.3.7.3c.5,0,.8-.2.8-.4h.2c-.1,0-.1.1-.2.1.1-.2.6-.2.8-.3.2,0,.3-.1.5-.1l-.3-.4c-.1,0-.2,0-.2.1h.1c-.5.1-.8.3-1.3.4l-.6.2c-.2.1-.1.2,0,.3l.3.1h-.1a12.1,12.1,0,0,0,1.9.1.367.367,0,0,0,.3-.1A.1.1,0,0,0,71.8,125.8Z" fill="#f6ab78"/>
            <g id="Group_3431" data-name="Group 3431">
              <path id="Path_2969" data-name="Path 2969" d="M69.6,126c-.1,0-.2-.1-.4,0h-.1c.1,0,.1,0,.2.1C69.6,126.2,69.6,126.1,69.6,126Z" fill="#f6ab78"/>
              <path id="Path_2970" data-name="Path 2970" d="M69.2,126.1Z" fill="#f6ab78"/>
              <path id="Path_2971" data-name="Path 2971" d="M95.6,120.1c.9-.3,1.8-.6,2.8-.9.9-.3,1.8-.6,2.7-1a.1.1,0,0,0,.1-.1H101c-.9.4-1.8.7-2.7,1s-1.8.6-2.7,1c-.1-.1-.1,0,0,0Z" fill="#f6ab78"/>
              <path id="Path_2972" data-name="Path 2972" d="M109.8,116.5h0a.139.139,0,0,0,.2,0v-.1C109.9,116.4,109.9,116.4,109.8,116.5Z" fill="#f6ab78"/>
              <path id="Path_2973" data-name="Path 2973" d="M110.3,118.3c-.3.2-.5.3-.6.5l-.1.1a.31.31,0,0,1-.1.2c-.2.2-.4.3-.6.5s-.5.3-.6.5c-.5.3-.9.6-1.3.8a9.993,9.993,0,0,1-1.4.8,4.59,4.59,0,0,1-1.4.7v.1c-.1.2-.4.3-.6.5l-.2.1c-.5.2-.9.3-1.3.5-.5.2-.9.3-1.3.5l-.6.3c-.4.2-.7.4-1.1.6l-.6.3-.6.3c.1,0,.1,0,.1.1s-.2.2-.4.3l-.3.1.9-.3h.1c.4-.1.6-.3,1-.4a47.785,47.785,0,0,0,8.1-4.3.349.349,0,0,1,.2-.1v.1c-.4.3-.7.6-1.1.9a7.632,7.632,0,0,1-1.1.8,7.632,7.632,0,0,1-1.1.8,5.67,5.67,0,0,1-1.3.8,74.263,74.263,0,0,1-6.9,3.5,13.9,13.9,0,0,1-1.9.6,3.552,3.552,0,0,0-.9.4l-.9.3a13.9,13.9,0,0,1-1.9.6c-.6.2-1.3.4-1.9.6a68.182,68.182,0,0,1-10.9,2.3,12.133,12.133,0,0,1-1.8.1c-.6-.1-.9-.3-1-.5-.1-.3.2-.6.6-.8h-1a2.133,2.133,0,0,1-1.2-.3l-.4-.2a4.054,4.054,0,0,0-.9-.5,5.546,5.546,0,0,1-.8-.6l.1-.2h-.1c-.3-.1-.6-.3-.6-.4v-.2c.1-.2.2-.5.5-.6a.367.367,0,0,1,.1-.3c-.2-.2-.4-.4-.2-.6-.1-.1-.1-.1,0-.2h.2c-.1,0-.1-.1-.2-.1h-.8a1.577,1.577,0,0,0-.4-.1c-.3-.3-.3-.3-.3-.5h.1c-.2,0-.3,0-.3-.1a.1.1,0,0,1-.1-.1c0-.1,0-.1-.1-.1v-.1l.1-.1.1-.1c.2,0,.2-.1.2-.1l.3.2.1-.1.1.1v-.1h.2L70,126h1.5a.1.1,0,0,1,.1.1H72c.1,0,.1,0,.2-.1h0a2.6,2.6,0,0,0,.7-.3H73c-.1,0,0-.1-.1-.1-.5,0-.8-.1-1.3-.1H70.3c-.2,0-.3,0-.4-.1,0-.1.1-.1.3-.2a7.006,7.006,0,0,1,1.4-.3,6.8,6.8,0,0,1,1.5-.2c.5,0,1-.1,1.5-.1h1.5a8.084,8.084,0,0,0,1.5-.1h.3c-.1,0-.2-.1-.3-.1H75.7a8.083,8.083,0,0,1-1.6-.1,9.852,9.852,0,0,1-1.7-.2c-.2,0-.3,0-.2-.1,0-.1.2-.1.3-.1a19.976,19.976,0,0,1,5.4-.2,1.379,1.379,0,0,1,.9,0h0a.349.349,0,0,1-.2-.1c.3,0,.4.1.6.1,0-.1-.1-.1-.1-.2.3,0,.6-.1.9-.1s.6-.1.9-.1a11.019,11.019,0,0,1,1.8-.2H83a6.713,6.713,0,0,1,1.5-.6c-.2,0-.4.1-.6.1a5.638,5.638,0,0,1,1.2-.4l1.8-.3a6.622,6.622,0,0,1,1.5.1c.6-.2,1.1-.4,1.8-.6.6-.2,1.1-.4,1.8-.6,1.1-.4,2.3-.7,3.4-1.2a.188.188,0,0,1,.3,0s0,.1-.2.2l-1.2.6c-.4.2-.8.3-1.2.5a24.13,24.13,0,0,1-2.5.8c.4-.1.7-.2,1.1-.3s.7-.2,1.1-.3.7-.2,1.1-.3c.2-.1.4-.1.6-.2s.4-.1.6-.2.4-.1.6-.2.4-.1.6-.2c.5-.2.9-.3,1.4-.5A6.944,6.944,0,0,1,99,119c.5-.2.9-.4,1.3-.6.5-.2.8-.4,1.3-.6.4-.2.7-.4,1.1-.6a8.794,8.794,0,0,0,1-.6c.6-.4,1.4-.7,2.1-1.2l1.5-.9c.5-.3.9-.6,1.4-.9a9.993,9.993,0,0,1,1.4-.8,7.143,7.143,0,0,1,1.5-.8,1.191,1.191,0,0,1,.6-.2c.1.1,0,.3-.3.5a56.174,56.174,0,0,1-12.8,6.9c-.6.2-1,.4-1.5.6h0c0,.1,0,.1-.1.2.6-.2,1.1-.4,1.8-.6a13.391,13.391,0,0,1,1.2-.6,13.391,13.391,0,0,1,1.2-.6l1.2-.6,1.2-.6a5.775,5.775,0,0,1,1.7-.6,11.5,11.5,0,0,0,1.7-.6l.9-.6.9-.6c.6-.4,1.3-.7,1.8-1.1a.1.1,0,0,0,.1-.1v.1c-.2.2-.4.3-.6.5s-.5.3-.6.5a9.13,9.13,0,0,1-1.3.8c.2,0,.3,0,.4.1a.4.4,0,0,1-.2.4l.6-.4c.1-.1.3-.1.3,0a.215.215,0,0,1-.2.2,22.448,22.448,0,0,1-2.7,1.3l-.7.5a5.9,5.9,0,0,1-.8.4,11.938,11.938,0,0,1-1.6.8.749.749,0,0,1,.5.1h0a2.186,2.186,0,0,0,.5-.3c3-1.7,5.9-3.3,8.9-5.1h.1a.1.1,0,0,1-.1.1c-.9.5-1.8,1-2.7,1.6h0s.1,0,0,.1a.349.349,0,0,1-.2.1c-.1,0-.1,0,0-.1-1.7.9-3.3,1.9-5,2.9,1.6-.7,3.1-1.6,4.7-2.3.2-.1.3-.3.5-.4a.139.139,0,0,1,.2,0v.1l-.1.1c.3-.2.6-.2.6-.1.1.1-.2.4-.5.6-.8.5-1.7.9-2.5,1.3l-.3.2-.3.2,1-.5,1-.5,1-.5,1-.5a.188.188,0,0,1,.3,0s0,.1-.2.2a5.547,5.547,0,0,0-.8.6l-.8.5-.8.5-.4.3-.5.3a36.52,36.52,0,0,1-3.4,1.8,16.6,16.6,0,0,1-2.1,1.6c.1,0,.2-.1.3-.1.6-.3,1.3-.6,1.8-.9.6-.4,1.1-.6,1.7-1l3.3-2.1h.1a.1.1,0,0,1-.1.1c-1.1.7-2.1,1.4-3.2,2.1a9.993,9.993,0,0,1-1.4.8c-.5.3-.9.6-1.3.8.5-.2.9-.5,1.4-.7a9.143,9.143,0,0,1,1.4-.7c.9-.6,1.8-1,2.7-1.6a.31.31,0,0,1,.2-.1V118c.2-.2.5-.4.6-.6-.7.8-.6.8-.6.9C110.4,118.2,110.4,118.3,110.3,118.3Zm-34.6,8.1h0c.1,0,.1,0,.4.2C76.1,126.5,75.9,126.4,75.7,126.4Zm-3,1h0a.31.31,0,0,0-.2-.1C72.6,127.3,72.6,127.4,72.7,127.4Zm19-5.4a8.331,8.331,0,0,1-1.5.4c-.6.1-1,.2-1.6.3a4.874,4.874,0,0,0,.7-.3c.4-.1.7-.2,1.2-.3A2.462,2.462,0,0,0,91.7,122Zm-18.2,3.9a2.389,2.389,0,0,1,.7.3c.2,0,.4-.1.6-.1a8.6,8.6,0,0,1,1.6-.1c-.1-.1.1-.1.1-.1h-3Zm-3.6.5Zm-.2.2Zm.7,0Zm.7,3,.3-.6-.3.6Z" fill="#f6ab78"/>
            </g>
          </g>
        </g>
        <g id="Group_3436" data-name="Group 3436">
          <g id="Group_3435" data-name="Group 3435">
            <path id="Path_2974" data-name="Path 2974" d="M72.7,139.9h0a.438.438,0,0,1-.3.1,7.228,7.228,0,0,0,4.2-.8c.5-.1.7-.3.7-.4,0-.2-.3-.3-.7-.2h-.3a7.316,7.316,0,0,0-2.2-.3,4.331,4.331,0,0,1,.5.1h-.7l.1.1a3.729,3.729,0,0,0-2.4.5c-.6.4-.3.8.6.9Z" fill="#429f53"/>
            <path id="Path_2975" data-name="Path 2975" d="M74.3,140.7a7.72,7.72,0,0,1-1.5-.2h-.1l.1.3h0a5.936,5.936,0,0,1,.8-.4c.2,0,.3-.1.5-.1a4.331,4.331,0,0,0,.5-.1l.2-.1c.1-.1.2-.1.2-.2s-.2-.2-.5-.2h-.4a4.519,4.519,0,0,0-2.7.6c-.1.1,0,.2,0,.4s.4.3.7.3c.5,0,.8-.2.8-.4h.2c-.1,0-.1.1-.2.1.1-.2.5-.3.7-.4.2,0,.3-.1.5-.1l-.3-.4a.349.349,0,0,0-.2.1h.1c-.5.2-.8.3-1.3.5l-.6.2c-.2.1-.1.2.1.3l.3.1H74a.367.367,0,0,0,.3-.1C74.5,140.8,74.4,140.7,74.3,140.7Z" fill="#429f53"/>
            <g id="Group_3434" data-name="Group 3434">
              <path id="Path_2976" data-name="Path 2976" d="M72.1,141h-.3C72.1,141.1,72.2,141,72.1,141Z" fill="#429f53"/>
              <path id="Path_2977" data-name="Path 2977" d="M71.7,141Z" fill="#429f53"/>
              <path id="Path_2978" data-name="Path 2978" d="M97.8,133.8c.9-.3,1.8-.6,2.7-1s1.8-.7,2.7-1.1a.1.1,0,0,0,.1-.1h-.1c-.9.4-1.8.8-2.7,1.1-1,.4-1.8.8-2.7,1.1-.1-.1-.1,0,0,0Z" fill="#429f53"/>
              <path id="Path_2979" data-name="Path 2979" d="M111.8,129.6h.2v-.1C111.9,129.5,111.9,129.6,111.8,129.6Z" fill="#429f53"/>
              <path id="Path_2980" data-name="Path 2980" d="M112.4,131.4c-.2.2-.5.4-.6.6l-.1.1a.31.31,0,0,1-.1.2,2.652,2.652,0,0,1-.6.5c-.2.2-.4.3-.6.5-.5.3-.8.6-1.3.9a9.992,9.992,0,0,1-1.4.8c-.5.2-.9.6-1.4.8v.1a1.47,1.47,0,0,1-.6.5l-.2.1c-.5.2-.8.4-1.3.6a6.944,6.944,0,0,1-1.3.5c-.2.1-.4.3-.6.4-.4.2-.7.5-1,.6l-.6.3-.6.3c.1,0,.1,0,.1.1s-.1.2-.4.3l-.3.1.9-.3h.1a4.672,4.672,0,0,0,1-.5,54.6,54.6,0,0,0,7.9-4.6.349.349,0,0,1,.2-.1v.1a9.018,9.018,0,0,0-1,.9c-.4.3-.6.6-1,.9s-.7.6-1.1.9a14.626,14.626,0,0,1-1.3.9,61.47,61.47,0,0,1-6.7,3.8,14.579,14.579,0,0,1-1.9.7c-.3.1-.6.3-.9.4l-.9.4a13.354,13.354,0,0,1-1.8.7,14.579,14.579,0,0,1-1.9.7,68.6,68.6,0,0,1-10.8,2.8,6.17,6.17,0,0,1-1.8.2c-.6-.1-.9-.2-1-.5-.2-.3.1-.6.6-.9h-1a3.73,3.73,0,0,1-1.2-.2l-.4-.2c-.3-.2-.6-.3-.9-.5a2.769,2.769,0,0,1-.8-.5l.1-.2h-.1c-.3-.1-.6-.2-.6-.4V144a.822.822,0,0,1,.4-.6.367.367,0,0,1,.1-.3c-.2-.2-.4-.4-.2-.6-.1,0-.1-.1,0-.2.1,0,.1,0,.2-.1h0c-.1,0-.1-.1-.2-.1h-.8a.584.584,0,0,1-.4-.1c-.3-.3-.3-.3-.3-.5l.1-.1h-.4c0-.1,0-.1-.1-.1v-.1l.1-.1.1-.1a.349.349,0,0,0,.2-.1l.3.2.1-.1.1.1-.1-.1h.2l-.2-.1h1.5a.1.1,0,0,1,.1.1.349.349,0,0,1,.2-.1h.2c.1,0,.1,0,.2-.1h0a1.546,1.546,0,0,0,.6-.3h.3c-.1,0,0-.1-.1-.1H72.8c-.2,0-.3,0-.4-.1,0-.1.1-.1.3-.2a7.366,7.366,0,0,1,1.4-.4c.5-.1.9-.2,1.5-.3a7.568,7.568,0,0,1,1.5-.1c.5,0,1-.1,1.5-.1a8.875,8.875,0,0,0,1.5-.2h.3c-.1,0-.2-.1-.3-.1h-.2a9.7,9.7,0,0,1-1.7.1H76.6c-.6,0-1.1-.1-1.7-.1-.2,0-.3,0-.3-.1s.1-.1.3-.1a17.032,17.032,0,0,1,5.4-.4,3.085,3.085,0,0,1,.9-.1h0a.349.349,0,0,1-.2-.1h.6l-.1-.1c.3,0,.6-.1.9-.1.3-.1.6-.1.9-.2l1.8-.3h.1a6.713,6.713,0,0,1,1.5-.6c-.2,0-.4.1-.6.1a6.118,6.118,0,0,1,1.2-.5,11.626,11.626,0,0,1,1.8-.4,3.549,3.549,0,0,1,1.5.1c.6-.2,1.1-.4,1.7-.6s1.1-.4,1.7-.6c1.1-.5,2.2-.8,3.3-1.4a.187.187,0,0,1,.3,0s0,.1-.2.2a13.4,13.4,0,0,1-1.2.6l-1.2.6c-.8.4-1.6.6-2.4,1,.4-.1.7-.2,1-.3a3,3,0,0,0,1-.4,3,3,0,0,0,1-.4c.2-.1.4-.1.6-.2s.4-.1.6-.2l.6-.3c.2-.1.4-.1.6-.2.5-.2.9-.4,1.3-.6.5-.2.8-.4,1.3-.6s.8-.4,1.3-.6a7.54,7.54,0,0,1,1.3-.6c.4-.2.7-.4,1.1-.6s.6-.4,1-.6a22.629,22.629,0,0,0,2-1.3c.5-.3.9-.6,1.4-.9s.9-.6,1.4-.9.9-.6,1.4-.9.9-.6,1.4-.9c.3-.2.6-.3.6-.2.1.1,0,.3-.3.5a60.073,60.073,0,0,1-12.5,7.5,9.386,9.386,0,0,1-1.5.6h0c0,.1,0,.1-.1.2a9.505,9.505,0,0,1,1.8-.6c.4-.2.7-.4,1.1-.6a5.973,5.973,0,0,1,1.1-.6,13.348,13.348,0,0,0,1.2-.6l1.2-.6a12.2,12.2,0,0,1,1.7-.7,16.593,16.593,0,0,1,1.6-.6l.9-.6.9-.6,1.8-1.2.1-.1v.1a2.651,2.651,0,0,1-.6.5c-.2.2-.4.3-.6.5-.5.3-.8.6-1.3.9.2,0,.3,0,.4.1a.4.4,0,0,1-.2.4l.6-.4c.1-.1.3-.1.3,0a.215.215,0,0,1-.2.2c-.8.5-1.8.9-2.6,1.4l-.7.5c-.3.2-.6.3-.7.5a11.938,11.938,0,0,1-1.6.8.749.749,0,0,1,.5.1h0a2.186,2.186,0,0,0,.5-.3c2.9-1.8,5.7-3.6,8.7-5.4.1,0,.1-.1.1,0a.1.1,0,0,1-.1.1c-.9.6-1.8,1.1-2.7,1.7h0s.1,0,0,.1a.349.349,0,0,1-.2.1c-.1,0-.1,0,0-.1-1.7,1-3.2,2-4.9,3,1.6-.8,3-1.7,4.6-2.6.2-.1.3-.3.5-.4a.138.138,0,0,1,.2,0v.1l-.1.1c.3-.2.6-.2.6-.1.1.1-.1.4-.5.6l-2.4,1.5-.3.2-.3.2.9-.5.9-.6a4.054,4.054,0,0,1,.9-.5l.9-.6a.367.367,0,0,1,.3-.1s0,.1-.2.2a2.169,2.169,0,0,0-.7.6l-.8.6-.8.6-.4.3-.4.3c-1.1.6-2.2,1.4-3.3,1.9-.6.6-1.3,1.1-2,1.7.1,0,.2-.1.3-.1a16.181,16.181,0,0,0,1.8-1c.6-.4,1.1-.7,1.7-1.1,1-.7,2.1-1.5,3.2-2.2.1,0,.1-.1.1,0a.1.1,0,0,1-.1.1c-1.1.7-2,1.5-3.1,2.2-.5.3-.9.6-1.4.9s-.8.6-1.3.9a9.143,9.143,0,0,1,1.4-.7c.5-.3.9-.6,1.3-.8.8-.6,1.8-1.1,2.6-1.7a.31.31,0,0,1,.2-.1v-.1l.6-.6c.2.1.3.1.3.2ZM78.2,141h0c.1,0,.1,0,.4.2Zm-3,1.2h0a.31.31,0,0,0-.2-.1C75.2,142.1,75.2,142.1,75.2,142.2ZM94,136a8.8,8.8,0,0,1-1.5.5,8.33,8.33,0,0,1-1.5.4,4.875,4.875,0,0,0,.7-.3c.4-.1.7-.2,1.1-.3A2.663,2.663,0,0,1,94,136Zm-18,4.7a2.389,2.389,0,0,1,.7.3c.2,0,.4-.1.6-.1.6-.1,1-.1,1.5-.2-.1-.1,0-.1.1-.1s.1,0,.2-.1c-.6,0-1.1.1-1.6.1A7.568,7.568,0,0,1,76,140.7Zm-3.6.7Zm-.2.2Zm.7,0Zm.9,2.8.2-.6-.2.6Z" fill="#429f53"/>
            </g>
          </g>
        </g>
      </g>
    </g>
  </g>
</svg>
