<svg xmlns="http://www.w3.org/2000/svg" width="12.02" height="14.011" viewBox="0 0 12.02 14.011">
  <g id="notifications" transform="translate(-4.488 -2.25)">
    <path id="Path_3249" data-name="Path 3249" d="M16.255,11.924l-.153-.185C15.414,10.906,15,10.4,15,8.048a4.779,4.779,0,0,0-.867-2.971A4.077,4.077,0,0,0,12.378,3.79a.094.094,0,0,1-.026-.021A2,2,0,0,0,10.5,2.25,2,2,0,0,0,8.644,3.769a.1.1,0,0,1-.025.02A4.131,4.131,0,0,0,6,8.047c0,2.357-.415,2.859-1.1,3.691l-.153.185A1.1,1.1,0,0,0,4.6,13.1a1.169,1.169,0,0,0,1.074.659H15.33A1.167,1.167,0,0,0,16.4,13.1a1.1,1.1,0,0,0-.144-1.178Z" transform="translate(0 0)" fill="#3f5078"/>
    <path id="Path_3250" data-name="Path 3250" d="M15.232,31.876a2.5,2.5,0,0,0,2.2-1.317.125.125,0,0,0-.111-.184H13.14a.125.125,0,0,0-.111.184A2.5,2.5,0,0,0,15.232,31.876Z" transform="translate(-4.734 -15.615)" fill="#3f5078"/>
  </g>
</svg>
