<svg xmlns="http://www.w3.org/2000/svg" width="22" height="22.895" viewBox="0 0 22 22.895">
  <g id="oxygen-tank" transform="translate(-10.003 -0.001)">
    <path id="Path_8" data-name="Path 8" d="M11.379,322.6a4.7,4.7,0,1,0,6.641,6.641l.474-.474-6.641-6.641Z" transform="translate(0 -307.723)" fill="#3f5078"/>
    <path id="Path_9" data-name="Path 9" d="M223.08,123.911a4.7,4.7,0,1,0-6.641-6.641l-.474.474,6.641,6.641Z" transform="translate(-196.752 -110.71)" fill="#3f5078"/>
    <path id="Path_10" data-name="Path 10" d="M78.039,178.51l-5.464,5.474,6.641,6.641,5.465-5.473Z" transform="translate(-59.774 -170.526)" fill="#3f5078"/>
    <path id="Path_11" data-name="Path 11" d="M319.891,5.354a2.012,2.012,0,0,0-2.673-2.7l-1.03-1.03.474-.474A.671.671,0,0,0,315.713.2l-1.9,1.9a.671.671,0,1,0,.949.949l.474-.474.949.949-.912.912a6.07,6.07,0,0,1,2.843,2.849l.889-.889a6.046,6.046,0,0,1-.448,8.037l-2.453,2.453h0a2.011,2.011,0,1,0,.949.948l2.453-2.452a7.389,7.389,0,0,0,.383-10.022Z" transform="translate(-289.663 0)" fill="#3f5078"/>
  </g>
</svg>
