<svg xmlns="http://www.w3.org/2000/svg" width="30" height="30" viewBox="0 0 30 30">
  <g id="platelet" transform="translate(-3 -3)">
    <path id="Path_52" data-name="Path 52" d="M11.621,53H9.552v2.069H8V56.1h5.172V55.069H11.621Z" transform="translate(-2.414 -24.138)" fill="#3f5078"/>
    <path id="Path_53" data-name="Path 53" d="M19.552,15.724V14.69A1.554,1.554,0,0,1,21.1,13.138h1.552V9H3V28.138a2.589,2.589,0,0,0,2.586,2.586H20.069a2.586,2.586,0,0,0,1.034-.218V17.276A1.554,1.554,0,0,1,19.552,15.724Zm.517-5.172a1.034,1.034,0,1,1-1.034,1.034A1.034,1.034,0,0,1,20.069,10.552ZM6.1,12.1a1.034,1.034,0,1,1-1.034,1.034A1.034,1.034,0,0,1,6.1,12.1ZM4.552,19.345a1.034,1.034,0,1,1,1.034,1.034A1.034,1.034,0,0,1,4.552,19.345ZM8.69,29.172a3.1,3.1,0,1,1,3.1-3.1A3.1,3.1,0,0,1,8.69,29.172Zm6.207,0a1.034,1.034,0,1,1,1.034-1.034A1.034,1.034,0,0,1,14.9,29.172ZM16.966,20.9H8.69V10.552h8.276Zm1.552,3.621a1.034,1.034,0,1,1,1.034-1.034A1.034,1.034,0,0,1,18.517,24.517Z" transform="translate(0 -2.897)" fill="#3f5078"/>
    <path id="Path_54" data-name="Path 54" d="M24,53h1.034v1.034H24Z" transform="translate(-10.138 -24.138)" fill="#3f5078"/>
    <path id="Path_55" data-name="Path 55" d="M28,53h1.034v1.034H28Z" transform="translate(-12.069 -24.138)" fill="#3f5078"/>
    <path id="Path_56" data-name="Path 56" d="M24,58.552c0,.129.55.517,1.552.517s1.552-.388,1.552-.517V57H24Z" transform="translate(-10.138 -26.069)" fill="#3f5078"/>
    <path id="Path_57" data-name="Path 57" d="M20.118,3H5.635A2.591,2.591,0,0,0,3.1,5.069H22.652A2.591,2.591,0,0,0,20.118,3Z" transform="translate(-0.049)" fill="#3f5078"/>
    <path id="Path_58" data-name="Path 58" d="M40,43.414h9.311V31H40Zm1.819-5.759,2.105-4.632a.8.8,0,0,1,1.463,0l2.105,4.632a2.976,2.976,0,0,1-2.709,4.208h-.255a2.976,2.976,0,0,1-2.709-4.208Z" transform="translate(-17.862 -13.517)" fill="#3f5078"/>
    <path id="Path_59" data-name="Path 59" d="M40,57v1.034c.078.279,1.629,1.034,4.655,1.034s4.577-.755,4.656-1.042V57Z" transform="translate(-17.862 -26.069)" fill="#3f5078"/>
    <path id="Path_60" data-name="Path 60" d="M40,25h9.31v2.069H40Z" transform="translate(-17.862 -10.621)" fill="#3f5078"/>
    <path id="Path_61" data-name="Path 61" d="M48.9,19H37.517a.518.518,0,0,0-.517.517v1.034a.518.518,0,0,0,.517.517H48.9a.518.518,0,0,0,.517-.517V19.517A.518.518,0,0,0,48.9,19Z" transform="translate(-16.414 -7.724)" fill="#3f5078"/>
    <path id="Path_62" data-name="Path 62" d="M17,15h5.172v1.034H17Z" transform="translate(-6.759 -5.793)" fill="#3f5078"/>
    <path id="Path_63" data-name="Path 63" d="M17,19h5.172v1.034H17Z" transform="translate(-6.759 -7.724)" fill="#3f5078"/>
    <path id="Path_64" data-name="Path 64" d="M21.069,23H20.034v1.034H19v1.034h1.034V26.1h1.034V25.069H22.1V24.034H21.069Z" transform="translate(-7.724 -9.655)" fill="#3f5078"/>
    <circle id="Ellipse_2" data-name="Ellipse 2" cx="1.034" cy="1.034" r="1.034" transform="translate(7.655 22.138)" fill="#3f5078"/>
  </g>
</svg>
