<svg xmlns="http://www.w3.org/2000/svg" width="9.999" height="10" viewBox="0 0 9.999 10">
  <g id="arrow-down-short" transform="translate(9.999) rotate(90)">
    <path id="Path_2856" data-name="Path 2856" d="M10.333,22.378a.714.714,0,0,0,1.011,0L15.123,18.6,18.9,22.378a.715.715,0,1,0,1.011-1.011l-4.285-4.285a.714.714,0,0,0-1.011,0l-4.285,4.285a.714.714,0,0,0,0,1.011Z" transform="translate(-10.123 -16.872)" fill-rule="evenodd"/>
    <path id="Path_2857" data-name="Path 2857" d="M17.589,18.695a.714.714,0,0,0,.714-.714V10.839a.714.714,0,0,0-1.428,0V17.98A.714.714,0,0,0,17.589,18.695Z" transform="translate(-12.589 -8.696)" fill-rule="evenodd"/>
  </g>
</svg>
