<svg id="logo-instagram-outline" xmlns="http://www.w3.org/2000/svg" width="13.5" height="13.5" viewBox="0 0 13.5 13.5">
  <path id="Path_3260" data-name="Path 3260" d="M11.812,3.375a2.821,2.821,0,0,1,2.813,2.813v5.625a2.821,2.821,0,0,1-2.813,2.813H6.188a2.821,2.821,0,0,1-2.813-2.813V6.188A2.821,2.821,0,0,1,6.188,3.375h5.625m0-1.125H6.188A3.949,3.949,0,0,0,2.25,6.188v5.625A3.949,3.949,0,0,0,6.188,15.75h5.625a3.949,3.949,0,0,0,3.937-3.938V6.188A3.949,3.949,0,0,0,11.812,2.25Z" transform="translate(-2.25 -2.25)" fill="#3f5078"/>
  <path id="Path_3261" data-name="Path 3261" d="M25.406,9.188a.842.842,0,1,1,.6-.247A.844.844,0,0,1,25.406,9.188Z" transform="translate(-15 -5.25)" fill="#3f5078"/>
  <path id="Path_3262" data-name="Path 3262" d="M13.5,11.25a2.25,2.25,0,1,1-2.25,2.25,2.25,2.25,0,0,1,2.25-2.25m0-1.125A3.375,3.375,0,1,0,16.875,13.5,3.375,3.375,0,0,0,13.5,10.125Z" transform="translate(-6.75 -6.75)" fill="#3f5078"/>
</svg>
