<svg xmlns="http://www.w3.org/2000/svg" width="14.063" height="11.25" viewBox="0 0 14.063 11.25">
  <path id="logo-twitter-outline" d="M15.188,5.833a5.912,5.912,0,0,1-1.657.448,2.857,2.857,0,0,0,1.27-1.57,5.793,5.793,0,0,1-1.833.688,2.9,2.9,0,0,0-2.107-.9A2.862,2.862,0,0,0,7.976,7.339a2.731,2.731,0,0,0,.075.647A8.224,8.224,0,0,1,2.1,5.018,2.8,2.8,0,0,0,3,8.81a2.856,2.856,0,0,1-1.312-.355V8.49A2.853,2.853,0,0,0,4,11.273a2.952,2.952,0,0,1-.76.1A2.765,2.765,0,0,1,2.7,11.32a2.884,2.884,0,0,0,2.7,1.972,5.847,5.847,0,0,1-3.584,1.216,5.947,5.947,0,0,1-.688-.041A8.165,8.165,0,0,0,5.541,15.75a8.087,8.087,0,0,0,8.216-8.08c0-.123,0-.246-.009-.366a5.815,5.815,0,0,0,1.44-1.471Z" transform="translate(-1.125 -4.5)" fill="#fff"/>
</svg>
