<svg xmlns="http://www.w3.org/2000/svg" xmlns:xlink="http://www.w3.org/1999/xlink" width="32" height="32" viewBox="0 0 32 32">
  <defs>
    <clipPath id="clip-Artboard_6">
      <rect width="32" height="32"/>
    </clipPath>
  </defs>
  <g id="Artboard_6" data-name="Artboard – 6" clip-path="url(#clip-Artboard_6)">
    <path id="twitter" d="M12.424,30.4c11.32,0,17.514-9.389,17.514-17.515,0-.264,0-.528-.012-.792A12.54,12.54,0,0,0,33,8.892a12.476,12.476,0,0,1-3.54.974,6.193,6.193,0,0,0,2.712-3.41,12.245,12.245,0,0,1-3.915,1.49,6.155,6.155,0,0,0-10.646,4.213,6.8,6.8,0,0,0,.156,1.4A17.481,17.481,0,0,1,5.077,7.128a6.173,6.173,0,0,0,1.909,8.223A6.226,6.226,0,0,1,4.2,14.583v.084a6.17,6.17,0,0,0,4.935,6.039,6,6,0,0,1-1.62.216,6.073,6.073,0,0,1-1.155-.108,6.156,6.156,0,0,0,5.751,4.275,12.346,12.346,0,0,1-7.647,2.64A11.842,11.842,0,0,1,3,27.645a17.511,17.511,0,0,0,9.425,2.749" transform="translate(-2 -2)" fill="#3fa2eb"/>
  </g>
</svg>
