<svg xmlns="http://www.w3.org/2000/svg" width="18" height="11.793" viewBox="0 0 18 11.793">
  <g id="united-states_1_" data-name="united-states(1)" transform="translate(0 -88.276)">
    <path id="Path_2858" data-name="Path 2858" d="M17.69,100.069H.31a.31.31,0,0,1-.31-.31V88.586a.31.31,0,0,1,.31-.31H17.69a.31.31,0,0,1,.31.31V99.759A.31.31,0,0,1,17.69,100.069Z" transform="translate(0 0)" fill="#f5f5f5"/>
    <g id="Group_17052" data-name="Group 17052" transform="translate(0 88.276)">
      <path id="Path_2859" data-name="Path 2859" d="M18,89.183H0v-.6a.31.31,0,0,1,.31-.31H17.69a.31.31,0,0,1,.31.31v.6Z" transform="translate(0 -88.276)" fill="#ff4b55"/>
      <rect id="Rectangle_1711" data-name="Rectangle 1711" width="18" height="0.907" transform="translate(0 3.629)" fill="#ff4b55"/>
      <rect id="Rectangle_1712" data-name="Rectangle 1712" width="18" height="0.907" transform="translate(0 1.814)" fill="#ff4b55"/>
      <path id="Path_2860" data-name="Path 2860" d="M18,244.005H.31a.31.31,0,0,1-.31-.31v-.6H18Z" transform="translate(0 -237.655)" fill="#ff4b55"/>
      <rect id="Rectangle_1713" data-name="Rectangle 1713" width="18" height="0.907" transform="translate(0 9.072)" fill="#ff4b55"/>
      <path id="Path_2861" data-name="Path 2861" d="M17.69,398.828H.31a.31.31,0,0,1-.31-.31v-.6H18v.6A.31.31,0,0,1,17.69,398.828Z" transform="translate(0 -387.035)" fill="#ff4b55"/>
      <rect id="Rectangle_1714" data-name="Rectangle 1714" width="18" height="0.907" transform="translate(0 7.257)" fill="#ff4b55"/>
    </g>
    <path id="Path_2862" data-name="Path 2862" d="M8.069,88.277H.31a.31.31,0,0,0-.31.31v5.729a.31.31,0,0,0,.31.31H8.069a.31.31,0,0,0,.31-.31V88.587A.31.31,0,0,0,8.069,88.277Z" transform="translate(0 -0.001)" fill="#41479b"/>
    <g id="Group_17053" data-name="Group 17053" transform="translate(0.501 88.968)">
      <path id="Path_2863" data-name="Path 2863" d="M14.623,107.989l.069.206.217,0a.029.029,0,0,1,.017.053l-.175.129.066.207a.029.029,0,0,1-.045.033l-.177-.126-.177.126a.029.029,0,0,1-.045-.033l.066-.207-.175-.129a.029.029,0,0,1,.017-.053l.217,0,.069-.206A.029.029,0,0,1,14.623,107.989Z" transform="translate(-14.253 -107.969)" fill="#f5f5f5"/>
      <path id="Path_2864" data-name="Path 2864" d="M14.623,138.644l.069.206.217,0a.029.029,0,0,1,.017.053l-.175.129.066.207a.029.029,0,0,1-.045.033l-.177-.126-.177.126a.029.029,0,0,1-.045-.033l.066-.207-.175-.129a.029.029,0,0,1,.017-.053l.217,0,.069-.206A.029.029,0,0,1,14.623,138.644Z" transform="translate(-14.253 -137.546)" fill="#f5f5f5"/>
      <path id="Path_2865" data-name="Path 2865" d="M14.623,169.3l.069.206.217,0a.029.029,0,0,1,.017.053l-.175.129.066.207a.029.029,0,0,1-.045.033L14.6,169.8l-.177.126a.029.029,0,0,1-.045-.033l.066-.207-.175-.129a.029.029,0,0,1,.017-.053l.217,0,.069-.206A.029.029,0,0,1,14.623,169.3Z" transform="translate(-14.253 -167.122)" fill="#f5f5f5"/>
      <path id="Path_2866" data-name="Path 2866" d="M14.623,199.952l.069.206.217,0a.029.029,0,0,1,.017.053l-.175.129.066.207a.029.029,0,0,1-.045.033l-.177-.126-.177.126a.029.029,0,0,1-.045-.033l.066-.207-.175-.129a.029.029,0,0,1,.017-.053l.217,0,.069-.206A.029.029,0,0,1,14.623,199.952Z" transform="translate(-14.253 -196.699)" fill="#f5f5f5"/>
      <path id="Path_2867" data-name="Path 2867" d="M14.623,230.605l.069.206.217,0a.029.029,0,0,1,.017.053l-.175.129.066.207a.029.029,0,0,1-.045.033l-.177-.126-.177.126a.029.029,0,0,1-.045-.033l.066-.207-.175-.129a.029.029,0,0,1,.017-.053l.217,0,.069-.206A.029.029,0,0,1,14.623,230.605Z" transform="translate(-14.253 -226.274)" fill="#f5f5f5"/>
      <path id="Path_2868" data-name="Path 2868" d="M38.416,123.018l.069.206.217,0a.029.029,0,0,1,.017.053l-.175.129.066.207a.029.029,0,0,1-.045.033l-.177-.126-.177.126a.029.029,0,0,1-.045-.033l.066-.207-.175-.129a.029.029,0,0,1,.017-.053l.217,0,.069-.206A.029.029,0,0,1,38.416,123.018Z" transform="translate(-37.209 -122.47)" fill="#f5f5f5"/>
      <path id="Path_2869" data-name="Path 2869" d="M38.416,153.673l.069.206.217,0a.029.029,0,0,1,.017.053l-.175.129.066.207a.029.029,0,0,1-.045.033l-.177-.126-.177.126a.029.029,0,0,1-.045-.033l.066-.207-.175-.129a.029.029,0,0,1,.017-.053l.217,0,.069-.206A.029.029,0,0,1,38.416,153.673Z" transform="translate(-37.209 -152.047)" fill="#f5f5f5"/>
      <path id="Path_2870" data-name="Path 2870" d="M38.416,184.327l.069.206.217,0a.029.029,0,0,1,.017.053l-.175.129.066.207a.029.029,0,0,1-.045.033l-.177-.126-.177.126a.029.029,0,0,1-.045-.033l.066-.207-.175-.129a.029.029,0,0,1,.017-.053l.217,0,.069-.206A.029.029,0,0,1,38.416,184.327Z" transform="translate(-37.209 -181.623)" fill="#f5f5f5"/>
      <path id="Path_2871" data-name="Path 2871" d="M38.416,214.981l.069.206.217,0a.029.029,0,0,1,.017.053l-.175.129.066.207a.029.029,0,0,1-.045.033l-.177-.126-.177.126a.029.029,0,0,1-.045-.033l.066-.207-.175-.129a.029.029,0,0,1,.017-.053l.217,0,.069-.206A.029.029,0,0,1,38.416,214.981Z" transform="translate(-37.209 -211.2)" fill="#f5f5f5"/>
      <path id="Path_2872" data-name="Path 2872" d="M62.209,107.989l.069.206.217,0a.029.029,0,0,1,.017.053l-.175.129.066.207a.029.029,0,0,1-.045.033l-.177-.126-.177.126a.029.029,0,0,1-.045-.033l.066-.207-.175-.129a.029.029,0,0,1,.017-.053l.217,0,.069-.206A.029.029,0,0,1,62.209,107.989Z" transform="translate(-60.166 -107.969)" fill="#f5f5f5"/>
      <path id="Path_2873" data-name="Path 2873" d="M62.209,138.643l.069.206.217,0a.029.029,0,0,1,.017.053l-.175.129.066.207a.029.029,0,0,1-.045.033l-.177-.126-.177.126a.029.029,0,0,1-.045-.033l.066-.207-.175-.129a.029.029,0,0,1,.017-.053l.217,0,.069-.206A.029.029,0,0,1,62.209,138.643Z" transform="translate(-60.166 -137.546)" fill="#f5f5f5"/>
      <path id="Path_2874" data-name="Path 2874" d="M62.209,169.3l.069.206.217,0a.029.029,0,0,1,.017.053l-.175.129.066.207a.029.029,0,0,1-.045.033l-.177-.126-.177.126a.029.029,0,0,1-.045-.033l.066-.207-.175-.129a.029.029,0,0,1,.017-.053l.217,0,.069-.206A.029.029,0,0,1,62.209,169.3Z" transform="translate(-60.166 -167.122)" fill="#f5f5f5"/>
      <path id="Path_2875" data-name="Path 2875" d="M62.209,199.952l.069.206.217,0a.029.029,0,0,1,.017.053l-.175.129.066.207a.029.029,0,0,1-.045.033l-.177-.126-.177.126a.029.029,0,0,1-.045-.033l.066-.207-.175-.129a.029.029,0,0,1,.017-.053l.217,0,.069-.206A.029.029,0,0,1,62.209,199.952Z" transform="translate(-60.166 -196.699)" fill="#f5f5f5"/>
      <path id="Path_2876" data-name="Path 2876" d="M62.209,230.605l.069.206.217,0a.029.029,0,0,1,.017.053l-.175.129.066.207a.029.029,0,0,1-.045.033l-.177-.126-.177.126a.029.029,0,0,1-.045-.033l.066-.207-.175-.129a.029.029,0,0,1,.017-.053l.217,0,.069-.206A.029.029,0,0,1,62.209,230.605Z" transform="translate(-60.166 -226.274)" fill="#f5f5f5"/>
      <path id="Path_2877" data-name="Path 2877" d="M86,123.018l.069.206.217,0a.029.029,0,0,1,.017.053l-.175.129.066.207a.029.029,0,0,1-.045.033l-.177-.126-.177.126a.029.029,0,0,1-.045-.033l.066-.207-.175-.129a.029.029,0,0,1,.017-.053l.217,0,.069-.206A.029.029,0,0,1,86,123.018Z" transform="translate(-83.123 -122.47)" fill="#f5f5f5"/>
      <path id="Path_2878" data-name="Path 2878" d="M86,153.673l.069.206.217,0a.029.029,0,0,1,.017.053l-.175.129.066.207a.029.029,0,0,1-.045.033l-.177-.126-.177.126a.029.029,0,0,1-.045-.033l.066-.207-.175-.129a.029.029,0,0,1,.017-.053l.217,0,.069-.206A.029.029,0,0,1,86,153.673Z" transform="translate(-83.123 -152.047)" fill="#f5f5f5"/>
      <path id="Path_2879" data-name="Path 2879" d="M86,184.327l.069.206.217,0a.029.029,0,0,1,.017.053l-.175.129.066.207a.029.029,0,0,1-.045.033l-.177-.126-.177.126a.029.029,0,0,1-.045-.033l.066-.207-.175-.129a.029.029,0,0,1,.017-.053l.217,0,.069-.206A.029.029,0,0,1,86,184.327Z" transform="translate(-83.123 -181.623)" fill="#f5f5f5"/>
      <path id="Path_2880" data-name="Path 2880" d="M86,214.981l.069.206.217,0a.029.029,0,0,1,.017.053l-.175.129.066.207a.029.029,0,0,1-.045.033l-.177-.126-.177.126a.029.029,0,0,1-.045-.033l.066-.207-.175-.129a.029.029,0,0,1,.017-.053l.217,0,.069-.206A.029.029,0,0,1,86,214.981Z" transform="translate(-83.123 -211.2)" fill="#f5f5f5"/>
      <path id="Path_2881" data-name="Path 2881" d="M109.8,107.989l.069.206.217,0a.029.029,0,0,1,.017.053l-.175.129.066.207a.029.029,0,0,1-.045.033l-.177-.126-.177.126a.029.029,0,0,1-.045-.033l.066-.207-.175-.129a.029.029,0,0,1,.017-.053l.217,0,.069-.206A.029.029,0,0,1,109.8,107.989Z" transform="translate(-106.079 -107.969)" fill="#f5f5f5"/>
      <path id="Path_2882" data-name="Path 2882" d="M109.8,138.643l.069.206.217,0a.029.029,0,0,1,.017.053l-.175.129.066.207a.029.029,0,0,1-.045.033l-.177-.126-.177.126a.029.029,0,0,1-.045-.033l.066-.207-.175-.129a.029.029,0,0,1,.017-.053l.217,0,.069-.206A.029.029,0,0,1,109.8,138.643Z" transform="translate(-106.079 -137.546)" fill="#f5f5f5"/>
      <path id="Path_2883" data-name="Path 2883" d="M109.8,169.3l.069.206.217,0a.029.029,0,0,1,.017.053l-.175.129.066.207a.029.029,0,0,1-.045.033l-.177-.126-.177.126a.029.029,0,0,1-.045-.033l.066-.207-.175-.129a.029.029,0,0,1,.017-.053l.217,0,.069-.206A.029.029,0,0,1,109.8,169.3Z" transform="translate(-106.079 -167.122)" fill="#f5f5f5"/>
      <path id="Path_2884" data-name="Path 2884" d="M109.8,199.952l.069.206.217,0a.029.029,0,0,1,.017.053l-.175.129.066.207a.029.029,0,0,1-.045.033l-.177-.126-.177.126a.029.029,0,0,1-.045-.033l.066-.207-.175-.129a.029.029,0,0,1,.017-.053l.217,0,.069-.206A.029.029,0,0,1,109.8,199.952Z" transform="translate(-106.079 -196.699)" fill="#f5f5f5"/>
      <path id="Path_2885" data-name="Path 2885" d="M109.8,230.605l.069.206.217,0a.029.029,0,0,1,.017.053l-.175.129.066.207a.029.029,0,0,1-.045.033l-.177-.126-.177.126a.029.029,0,0,1-.045-.033l.066-.207-.175-.129a.029.029,0,0,1,.017-.053l.217,0,.069-.206A.029.029,0,0,1,109.8,230.605Z" transform="translate(-106.079 -226.274)" fill="#f5f5f5"/>
      <path id="Path_2886" data-name="Path 2886" d="M133.589,123.018l.069.206.217,0a.029.029,0,0,1,.017.053l-.175.129.066.207a.029.029,0,0,1-.045.033l-.177-.126-.177.126a.029.029,0,0,1-.045-.033l.066-.207-.175-.129a.029.029,0,0,1,.017-.053l.217,0,.069-.206A.029.029,0,0,1,133.589,123.018Z" transform="translate(-129.036 -122.47)" fill="#f5f5f5"/>
      <path id="Path_2887" data-name="Path 2887" d="M133.589,153.673l.069.206.217,0a.029.029,0,0,1,.017.053l-.175.129.066.207a.029.029,0,0,1-.045.033l-.177-.126-.177.126a.029.029,0,0,1-.045-.033l.066-.207-.175-.129a.029.029,0,0,1,.017-.053l.217,0,.069-.206A.029.029,0,0,1,133.589,153.673Z" transform="translate(-129.036 -152.047)" fill="#f5f5f5"/>
      <path id="Path_2888" data-name="Path 2888" d="M133.589,184.327l.069.206.217,0a.029.029,0,0,1,.017.053l-.175.129.066.207a.029.029,0,0,1-.045.033l-.177-.126-.177.126a.029.029,0,0,1-.045-.033l.066-.207-.175-.129a.029.029,0,0,1,.017-.053l.217,0,.069-.206A.029.029,0,0,1,133.589,184.327Z" transform="translate(-129.036 -181.623)" fill="#f5f5f5"/>
      <path id="Path_2889" data-name="Path 2889" d="M133.589,214.981l.069.206.217,0a.029.029,0,0,1,.017.053l-.175.129.066.207a.029.029,0,0,1-.045.033l-.177-.126-.177.126a.029.029,0,0,1-.045-.033l.066-.207-.175-.129a.029.029,0,0,1,.017-.053l.217,0,.069-.206A.029.029,0,0,1,133.589,214.981Z" transform="translate(-129.036 -211.2)" fill="#f5f5f5"/>
      <path id="Path_2890" data-name="Path 2890" d="M157.383,107.989l.069.206.217,0a.029.029,0,0,1,.017.053l-.175.129.066.207a.029.029,0,0,1-.045.033l-.177-.126-.177.126a.029.029,0,0,1-.045-.033l.066-.207-.175-.129a.029.029,0,0,1,.017-.053l.217,0,.069-.206A.029.029,0,0,1,157.383,107.989Z" transform="translate(-151.994 -107.969)" fill="#f5f5f5"/>
      <path id="Path_2891" data-name="Path 2891" d="M157.383,138.643l.069.206.217,0a.029.029,0,0,1,.017.053l-.175.129.066.207a.029.029,0,0,1-.045.033l-.177-.126-.177.126a.029.029,0,0,1-.045-.033l.066-.207-.175-.129a.029.029,0,0,1,.017-.053l.217,0,.069-.206A.029.029,0,0,1,157.383,138.643Z" transform="translate(-151.994 -137.546)" fill="#f5f5f5"/>
      <path id="Path_2892" data-name="Path 2892" d="M157.383,169.3l.069.206.217,0a.029.029,0,0,1,.017.053l-.175.129.066.207a.029.029,0,0,1-.045.033l-.177-.126-.177.126a.029.029,0,0,1-.045-.033l.066-.207-.175-.129a.029.029,0,0,1,.017-.053l.217,0,.069-.206A.029.029,0,0,1,157.383,169.3Z" transform="translate(-151.994 -167.122)" fill="#f5f5f5"/>
      <path id="Path_2893" data-name="Path 2893" d="M157.383,199.952l.069.206.217,0a.029.029,0,0,1,.017.053l-.175.129.066.207a.029.029,0,0,1-.045.033l-.177-.126-.177.126a.029.029,0,0,1-.045-.033l.066-.207-.175-.129a.029.029,0,0,1,.017-.053l.217,0,.069-.206A.029.029,0,0,1,157.383,199.952Z" transform="translate(-151.994 -196.699)" fill="#f5f5f5"/>
      <path id="Path_2894" data-name="Path 2894" d="M157.383,230.605l.069.206.217,0a.029.029,0,0,1,.017.053l-.175.129.066.207a.029.029,0,0,1-.045.033l-.177-.126-.177.126a.029.029,0,0,1-.045-.033l.066-.207-.175-.129a.029.029,0,0,1,.017-.053l.217,0,.069-.206A.029.029,0,0,1,157.383,230.605Z" transform="translate(-151.994 -226.274)" fill="#f5f5f5"/>
      <path id="Path_2895" data-name="Path 2895" d="M181.176,123.018l.069.206.217,0a.029.029,0,0,1,.017.053l-.175.129.066.207a.029.029,0,0,1-.045.033l-.177-.126-.177.126a.029.029,0,0,1-.045-.033l.066-.207-.175-.129a.029.029,0,0,1,.017-.053l.217,0,.069-.206A.029.029,0,0,1,181.176,123.018Z" transform="translate(-174.95 -122.47)" fill="#f5f5f5"/>
      <path id="Path_2896" data-name="Path 2896" d="M181.176,153.673l.069.206.217,0a.029.029,0,0,1,.017.053l-.175.129.066.207a.029.029,0,0,1-.045.033l-.177-.126-.177.126a.029.029,0,0,1-.045-.033l.066-.207-.175-.129a.029.029,0,0,1,.017-.053l.217,0,.069-.206A.029.029,0,0,1,181.176,153.673Z" transform="translate(-174.95 -152.047)" fill="#f5f5f5"/>
      <path id="Path_2897" data-name="Path 2897" d="M181.176,184.327l.069.206.217,0a.029.029,0,0,1,.017.053l-.175.129.066.207a.029.029,0,0,1-.045.033l-.177-.126-.177.126a.029.029,0,0,1-.045-.033l.066-.207-.175-.129a.029.029,0,0,1,.017-.053l.217,0,.069-.206A.029.029,0,0,1,181.176,184.327Z" transform="translate(-174.95 -181.623)" fill="#f5f5f5"/>
      <path id="Path_2898" data-name="Path 2898" d="M181.176,214.981l.069.206.217,0a.029.029,0,0,1,.017.053l-.175.129.066.207a.029.029,0,0,1-.045.033l-.177-.126-.177.126a.029.029,0,0,1-.045-.033l.066-.207-.175-.129a.029.029,0,0,1,.017-.053l.217,0,.069-.206A.029.029,0,0,1,181.176,214.981Z" transform="translate(-174.95 -211.2)" fill="#f5f5f5"/>
      <path id="Path_2899" data-name="Path 2899" d="M204.97,107.989l.069.206.217,0a.029.029,0,0,1,.017.053l-.175.129.066.207a.029.029,0,0,1-.045.033l-.177-.126-.177.126a.029.029,0,0,1-.045-.033l.066-.207-.175-.129a.029.029,0,0,1,.017-.053l.217,0,.069-.206A.029.029,0,0,1,204.97,107.989Z" transform="translate(-197.908 -107.969)" fill="#f5f5f5"/>
      <path id="Path_2900" data-name="Path 2900" d="M204.97,138.643l.069.206.217,0a.029.029,0,0,1,.017.053l-.175.129.066.207a.029.029,0,0,1-.045.033l-.177-.126-.177.126a.029.029,0,0,1-.045-.033l.066-.207-.175-.129a.029.029,0,0,1,.017-.053l.217,0,.069-.206A.029.029,0,0,1,204.97,138.643Z" transform="translate(-197.908 -137.546)" fill="#f5f5f5"/>
      <path id="Path_2901" data-name="Path 2901" d="M204.97,169.3l.069.206.217,0a.029.029,0,0,1,.017.053l-.175.129.066.207a.029.029,0,0,1-.045.033l-.177-.126-.177.126a.029.029,0,0,1-.045-.033l.066-.207-.175-.129a.029.029,0,0,1,.017-.053l.217,0,.069-.206A.029.029,0,0,1,204.97,169.3Z" transform="translate(-197.908 -167.122)" fill="#f5f5f5"/>
      <path id="Path_2902" data-name="Path 2902" d="M204.97,199.952l.069.206.217,0a.029.029,0,0,1,.017.053l-.175.129.066.207a.029.029,0,0,1-.045.033l-.177-.126-.177.126a.029.029,0,0,1-.045-.033l.066-.207-.175-.129a.029.029,0,0,1,.017-.053l.217,0,.069-.206A.029.029,0,0,1,204.97,199.952Z" transform="translate(-197.908 -196.699)" fill="#f5f5f5"/>
      <path id="Path_2903" data-name="Path 2903" d="M204.97,230.605l.069.206.217,0a.029.029,0,0,1,.017.053l-.175.129.066.207a.029.029,0,0,1-.045.033l-.177-.126-.177.126a.029.029,0,0,1-.045-.033l.066-.207-.175-.129a.029.029,0,0,1,.017-.053l.217,0,.069-.206A.029.029,0,0,1,204.97,230.605Z" transform="translate(-197.908 -226.274)" fill="#f5f5f5"/>
    </g>
  </g>
</svg>
