<svg xmlns="http://www.w3.org/2000/svg" width="26" height="34.929" viewBox="0 0 26 34.929">
  <g id="inoculate" transform="translate(-65.442)">
    <path id="Path_2859" data-name="Path 2859" d="M76.658,302.733l-.228-.078V301h-7.5v1.621l-.1.029a4.732,4.732,0,0,0-3.385,4.518v7.2a1.023,1.023,0,0,0,1.023,1.023H78.821a1.023,1.023,0,0,0,1.023-1.023v-7.183A4.707,4.707,0,0,0,76.658,302.733Z" transform="translate(0 -280.466)" fill="#a9e3e4"/>
    <path id="Path_2860" data-name="Path 2860" d="M87.582,196.5h9.551a1.023,1.023,0,0,0,1.023-1.023v-3.408a1.023,1.023,0,0,0-1.023-1.023H87.582a1.023,1.023,0,0,0-1.023,1.023v3.408A1.023,1.023,0,0,0,87.582,196.5Z" transform="translate(-19.676 -178.016)" fill="#a9e3e4"/>
    <path id="Path_2861" data-name="Path 2861" d="M332.7,7.231a1.023,1.023,0,0,0-1.023-1.023h-1.027V1.023a1.023,1.023,0,0,0-2.047,0V6.208h-1.02a1.023,1.023,0,0,0-1.023,1.023V8.255h6.14Z" transform="translate(-243.303 0)" fill="#a9e3e4"/>
    <path id="Path_2862" data-name="Path 2862" d="M305.769,169.42h0v-4.093h-3.1a1.023,1.023,0,1,1,0-2.047h3.1v-2.047h-3.1a1.023,1.023,0,1,1,0-2.047h3.1V157.14h-3.1a1.023,1.023,0,1,1,0-2.047h3.1v-3.07A1.023,1.023,0,0,0,304.742,151H298.6a1.023,1.023,0,0,0-1.023,1.023v17.4a1.023,1.023,0,0,0,0,2.047h3.067v2.115h-2.04a1.023,1.023,0,0,0,0,2.047h6.133a1.023,1.023,0,0,0,0-2.047H302.7v-2.115h3.073a1.023,1.023,0,0,0,0-2.047Z" transform="translate(-215.35 -140.699)" fill="#a9e3e4"/>
  </g>
</svg>
