<svg xmlns="http://www.w3.org/2000/svg" xmlns:xlink="http://www.w3.org/1999/xlink" width="32" height="32" viewBox="0 0 32 32">
  <defs>
    <clipPath id="clip-Artboard_5">
      <rect width="32" height="32"/>
    </clipPath>
  </defs>
  <g id="Artboard_5" data-name="Artboard – 5" clip-path="url(#clip-Artboard_5)">
    <g id="Group_17565" data-name="Group 17565" transform="translate(19667.381 -1056.561)">
      <g id="Untitled-1" transform="translate(-19666.381 1060.561)">
        <path id="Path_3340" data-name="Path 3340" d="M115.393,94.66v-.779h10.252a2.549,2.549,0,0,1,2.7,2.7v.839h2.578a1.32,1.32,0,1,1,0,2.638h-2.578v.839h1.619a.5.5,0,0,1,.54.54v3.6h-1.079v-3h-1.139v2.278H115.333v-2.278h-8.394v3H105.8v-3.417c0-.54.18-.719.719-.719h8.814v-.839a1.455,1.455,0,0,1-1.259-.54,1.074,1.074,0,0,1-.24-.839c.06-.719.48-1.139,1.5-1.259v-.48h-1.5a.7.7,0,0,1-.66-.3c-1.259-1.259-2.518-2.578-3.837-3.837a1.124,1.124,0,1,1,1.559-1.619l1.559,1.559c.6.6,1.139,1.139,1.679,1.739a.585.585,0,0,0,.54.24A2.919,2.919,0,0,1,115.393,94.66Z" transform="translate(-102.302 -84.468)" fill="#3f5078"/>
        <path id="Path_3341" data-name="Path 3341" d="M128.777,86.735H124.76c-.36,0-.36-.06-.36-.36V80.56c0-.3.06-.36.36-.36h8.154c.3,0,.36.06.36.36v5.816c0,.3-.06.36-.36.36Zm.12-2.038a.8.8,0,0,1-.06-.3c-.18-.839-.42-1.679-.6-2.578,0-.06-.06-.12-.12-.24l-.18.18c-.24.48-.48,1.019-.719,1.559a.277.277,0,0,1-.3.18h-1.439a.15.15,0,1,0,0,.24h1.259c.42.06.66-.12.839-.54.12-.36.36-.719.54-1.139.24,1.019.48,1.979.719,2.938,0,.06.12.18.12.24a.828.828,0,0,0,.18-.24c.18-.54.36-1.079.6-1.619,0-.06.06-.12.12-.24a4.133,4.133,0,0,0,.18.48.277.277,0,0,0,.3.18h2.039a.455.455,0,0,0,.24-.12.312.312,0,0,0-.24-.12H131c-.66,0-.66,0-.9-.66-.06-.12-.12-.18-.18-.3-.06.12-.18.18-.18.3A5.354,5.354,0,0,0,128.9,84.7Z" transform="translate(-109.75 -80.2)" fill="#3f5078"/>
        <path id="Path_3342" data-name="Path 3342" d="M101.305,87.6a1.373,1.373,0,0,1,1.019.48c1.439,1.5,2.938,2.938,4.377,4.377l3.6,3.6a1.317,1.317,0,1,1-1.859,1.859l-8.034-8.034a1.384,1.384,0,0,1-.36-1.5A1.516,1.516,0,0,1,101.305,87.6Z" transform="translate(-99.965 -83.163)" fill="#3f5078"/>
        <path id="Path_3343" data-name="Path 3343" d="M109.319,85a1.587,1.587,0,0,1,1.559,1.559,1.527,1.527,0,0,1-1.619,1.559,1.587,1.587,0,0,1-1.559-1.559A1.685,1.685,0,0,1,109.319,85Z" transform="translate(-103.062 -82.122)" fill="#3f5078"/>
        <path id="Path_3344" data-name="Path 3344" d="M106.079,118.418A1.075,1.075,0,0,1,105,117.339a1.11,1.11,0,0,1,2.218-.06A1.138,1.138,0,0,1,106.079,118.418Z" transform="translate(-101.981 -94.616)" fill="#3f5078"/>
        <path id="Path_3345" data-name="Path 3345" d="M144.5,117.339a1.11,1.11,0,1,1,1.139,1.079A1.089,1.089,0,0,1,144.5,117.339Z" transform="translate(-117.799 -94.616)" fill="#3f5078"/>
        <path id="Path_3346" data-name="Path 3346" d="M107.382,116.015c-.06.06-.12.18-.18.18a.652.652,0,0,1-.3-.06c-.06,0-.06-.12-.12-.18a1.318,1.318,0,0,0-2.158.06c0,.06-.06.06-.06.12a.267.267,0,0,1-.36.12c-.18-.12-.18-.24-.06-.36a1.841,1.841,0,0,1,1.739-.9,1.709,1.709,0,0,1,1.319.779C107.262,115.835,107.322,115.955,107.382,116.015Z" transform="translate(-101.605 -94.131)" fill="#3f5078"/>
        <path id="Path_3347" data-name="Path 3347" d="M146.842,116.144c-.06.06-.12.18-.18.18a.458.458,0,0,1-.3-.12,1.3,1.3,0,0,0-1.139-.6,1.358,1.358,0,0,0-1.139.66c-.12.18-.18.24-.36.18-.18-.12-.12-.3,0-.42a1.821,1.821,0,0,1,3.058-.06A.263.263,0,0,1,146.842,116.144Z" transform="translate(-117.442 -94.2)" fill="#3f5078"/>
      </g>
    </g>
  </g>
</svg>
